<svg width="23" height="23" fill="none" xmlns="http://www.w3.org/2000/svg">
  <g clip-path="url(#clip0)" fill="#6697C5">
    <path d="M19.9139 11.5063C21.6186 9.45517 22.3738 7.35825 21.4502 5.75906C20.4279 3.98805 17.9238 3.85533 15.7061 4.21918C13.6007 -1.41079 9.39094 -1.40105 7.28745 4.21635C7.28736 4.21635 7.28682 4.21752 7.28601 4.21927C5.07599 3.85712 2.5659 3.98562 1.54227 5.75906C0.499728 7.56424 1.72981 9.86954 3.07869 11.506C3.07869 11.506 3.07869 11.5061 3.07873 11.5061C2.9364 11.679 2.79969 11.8531 2.66966 12.0282C-0.584611 16.4152 1.62977 19.7316 7.28916 18.7946C8.23413 21.3245 9.69683 23 11.4962 23C13.3363 23 14.7754 21.3039 15.7017 18.807C21.309 19.7446 23.6091 16.4585 20.3228 12.0283C20.1927 11.8531 20.0561 11.679 19.9139 11.5063ZM13.278 16.6737C13.8947 16.349 14.4987 15.9983 15.0824 15.6273C14.9866 16.142 14.8719 16.642 14.7385 17.1213C14.2581 16.9974 13.7697 16.8473 13.278 16.6737ZM11.4962 15.9499C10.1608 15.3374 8.84511 14.5779 7.6474 13.7281C7.51019 12.2655 7.51024 10.746 7.64744 9.28335C8.84659 8.43271 10.1626 7.67384 11.4969 7.06219C12.8354 7.6768 14.1506 8.43778 15.3453 9.28577C15.4823 10.7474 15.4822 12.2659 15.3452 13.7274C14.1472 14.5774 12.8314 15.3372 11.4962 15.9499ZM9.71519 16.6741C9.2232 16.8479 8.73452 16.9982 8.25425 17.1221C8.12108 16.6441 8.00672 16.1455 7.911 15.6323C8.50482 16.0078 9.10987 16.3564 9.71519 16.6741ZM6.12997 12.5472C5.73366 12.208 5.35929 11.86 5.01205 11.5059C5.35943 11.1516 5.73361 10.8036 6.12952 10.4647C6.10119 11.1662 6.10196 11.8627 6.12997 12.5472ZM7.91109 7.37921C8.00672 6.8663 8.12108 6.3681 8.25411 5.89039C8.73551 6.01435 9.22427 6.16454 9.71577 6.33807C9.10363 6.65896 8.49912 7.00741 7.91109 7.37921ZM13.2777 6.33896C13.7699 6.16521 14.2584 6.01493 14.7385 5.89106C14.8715 6.3686 14.9858 6.86661 15.0813 7.37926C14.4934 7.00759 13.8892 6.65945 13.2777 6.33896ZM16.8645 10.4684C17.2605 10.8072 17.634 11.1542 17.98 11.5065C17.6324 11.8607 17.2577 12.209 16.8609 12.5485C16.8903 11.8596 16.8918 11.1632 16.8645 10.4684ZM20.206 6.47743C20.6963 7.32686 20.2308 8.79584 18.9365 10.4287C18.2658 9.75281 17.5133 9.10546 16.7073 8.49988C16.5859 7.50268 16.401 6.527 16.1487 5.60097C16.2755 5.58202 16.4014 5.56514 16.5261 5.55073C17.7455 5.40903 19.6016 5.43013 20.206 6.47743ZM11.4962 1.44882C12.4768 1.44882 13.5166 2.58655 14.2831 4.52436C13.3771 4.76308 12.4376 5.09097 11.4959 5.49241C10.5529 5.09039 9.61341 4.76259 8.70938 4.52436C9.47579 2.58655 10.5156 1.44882 11.4962 1.44882ZM2.7864 6.47743C3.39091 5.43013 5.24691 5.40903 6.46626 5.55073C6.59139 5.56519 6.71769 5.58216 6.84475 5.60111C6.65228 6.32334 6.43766 7.30589 6.29026 8.49619C5.48169 9.10344 4.72753 9.75227 4.05603 10.4289C2.7617 8.79593 2.29615 7.32691 2.7864 6.47743ZM6.84386 17.4115C5.54427 17.6043 3.43998 17.6669 2.7864 16.5346C2.29611 15.6852 2.7617 14.2161 4.05612 12.5831C4.73435 13.267 5.4895 13.9147 6.2895 14.5152C6.4144 15.5361 6.60221 16.5104 6.84677 17.4111C6.84579 17.4112 6.84484 17.4114 6.84386 17.4115ZM11.4962 21.5633C10.5156 21.5633 9.47579 20.4255 8.70938 18.4877C9.63527 18.2437 10.572 17.9159 11.4967 17.5217C12.4828 17.9418 13.4126 18.2635 14.2799 18.4956C13.5138 20.4286 12.4754 21.5633 11.4962 21.5633ZM20.206 16.5346C19.6002 17.5842 17.7402 17.6025 16.5262 17.4613C16.4001 17.4468 16.2729 17.4297 16.1447 17.4106C16.3894 16.502 16.576 15.5235 16.7005 14.5071C17.5164 13.8926 18.2691 13.2434 18.9328 12.5787C18.9339 12.5802 18.9351 12.5817 18.9363 12.5831C20.2307 14.2161 20.6963 15.6852 20.206 16.5346Z"/>
    <path d="M11.4963 14.3795C13.0833 14.3795 14.3698 13.093 14.3698 11.5061C14.3698 9.91907 13.0833 8.63257 11.4963 8.63257C9.90931 8.63257 8.6228 9.91907 8.6228 11.5061C8.6228 13.093 9.90931 14.3795 11.4963 14.3795Z"/>
  </g>
  <defs>
    <clipPath id="clip0">
      <path fill="#fff" d="M0 0H23V23H0z"/>
    </clipPath>
  </defs>
</svg>
