<svg width="59" height="59" viewBox="0 0 59 59" fill="none" xmlns="http://www.w3.org/2000/svg">
<g clip-path="url(#clip0)">
<path d="M55.6 8.75351H53.1541V6.43799C53.1541 5.96069 52.7672 5.57373 52.2899 5.57373H47.079C46.6017 5.57373 46.2147 5.96069 46.2147 6.43799V8.75351H17.662V6.43799C17.662 5.96069 17.275 5.57373 16.7977 5.57373H11.5868C11.1095 5.57373 10.7225 5.96069 10.7225 6.43799V8.75351H8.7034C6.59311 8.75351 4.87646 10.4703 4.87646 12.5804V33.6097C4.87646 34.087 5.26342 34.4739 5.74072 34.4739C6.21802 34.4739 6.60498 34.087 6.60498 33.6097V12.5806C6.60498 11.4235 7.54633 10.4821 8.7034 10.4821H55.6C56.5216 10.4821 57.2715 11.232 57.2715 12.1536V40.7353C57.2715 41.657 56.5216 42.4068 55.6 42.4068H53.7581V39.1357C53.7581 38.6584 53.3711 38.2715 52.8938 38.2715H43.6074C43.1301 38.2715 42.7432 38.6584 42.7432 39.1357V42.4068H28.8911L32.1612 41.5126C33.8549 41.0505 35.3393 40.0887 36.4539 38.7312L42.0082 31.9646C42.1188 31.8302 42.1895 31.6561 42.2027 31.4825L42.6925 25.0312C42.7409 24.3935 42.3539 23.7673 41.7659 23.5211C42.0277 23.3726 42.2047 23.0919 42.2047 22.7694C42.2047 22.2921 41.8177 21.9051 41.3404 21.9051H37.5532C37.0759 21.9051 36.689 22.2921 36.689 22.7694C36.689 23.2467 37.0759 23.6336 37.5532 23.6336H40.3801C40.2855 23.6935 40.1959 23.7644 40.1138 23.8467L36.9422 27.0183C36.3296 27.6306 35.8253 28.3997 35.2824 29.0747C34.9833 29.4467 35.0423 29.9907 35.4143 30.2899C35.7862 30.589 36.3303 30.53 36.6294 30.1581L37.6237 28.9219L40.1753 31.4736L35.1181 37.6346C34.2322 38.7135 33.0524 39.478 31.7058 39.8454L18.0584 43.7725C17.0014 44.1114 17.528 45.7575 18.586 45.4186L21.5879 44.4561V51.6979H20.3871C19.9098 51.6979 19.5229 52.0849 19.5229 52.5622C19.5229 53.0395 19.9098 53.4264 20.3871 53.4264H25.6704C26.1477 53.4264 26.5347 53.0395 26.5347 52.5622C26.5347 52.0849 26.1477 51.6979 25.6704 51.6979H23.3165V44.1352H55.6C57.4747 44.1352 59 42.6099 59 40.7352V12.1535C59 10.2788 57.4747 8.75351 55.6 8.75351ZM47.9432 7.30225H51.4256V8.75305H47.9432V7.30225ZM12.4511 7.30225H15.9334V8.75305H12.4511V7.30225ZM40.925 25.4798L40.6217 29.4753L38.7757 27.6292L40.925 25.4798ZM44.4717 42.4067V39.9999H52.0296V42.4067H44.4717Z" fill="#0257A6"/>
<path d="M16.2603 51.6981H5.16365V47.109C5.16365 44.1938 5.83593 41.2851 7.1186 38.6669C7.82015 37.2354 9.3031 36.3104 10.8966 36.3104H25.4599C28.5038 36.3104 31.4647 35.2347 33.7976 33.2813C34.1635 32.9749 34.2118 32.4298 33.9054 32.0639C33.5989 31.6978 33.0538 31.6496 32.688 31.956C30.6658 33.6493 28.0989 34.5819 25.46 34.5819H19.2014C20.171 33.5726 20.7688 32.2039 20.7688 30.6973V27.5237C22.9905 27.3771 24.7536 25.524 24.7536 23.2659C24.7536 20.9117 22.8389 18.9964 20.4853 18.9964C19.0465 18.9627 17.6768 19.2975 16.6684 20.3947C16.1756 20.9289 15.4763 21.2353 14.7501 21.2353H12.3751C10.3914 21.2353 8.77752 22.8497 8.77752 24.8341V31.3114C8.77752 32.0468 8.95429 32.7685 9.39863 33.3656C9.59902 33.6348 9.84562 33.869 10.1244 34.0559C10.425 34.2576 10.8635 34.3307 11.1049 34.5819C8.79111 34.543 6.5936 35.8105 5.56651 37.9064C4.16814 40.7606 3.43525 43.9307 3.43525 47.109V51.6981H0.864258C0.386957 51.6981 0 52.085 0 52.5623C0 53.0396 0.386957 53.4266 0.864258 53.4266H16.2603C16.7376 53.4266 17.1245 53.0396 17.1245 52.5623C17.1245 52.085 16.7376 51.6981 16.2603 51.6981ZM14.9102 34.5743C14.4279 34.5447 13.9593 34.424 13.527 34.2243C13.7275 34.1214 13.9219 33.9945 14.0958 33.8511C14.8142 33.2583 15.2099 32.3809 15.2099 31.3807V27.5341H19.0403V30.6973C19.0403 32.8393 17.2971 34.5819 15.1546 34.5819C15.0629 34.5819 14.9855 34.5796 14.9102 34.5743ZM10.5059 31.3115V24.8342C10.5059 23.803 11.3444 22.9639 12.375 22.9639H14.75C15.9575 22.9639 17.1198 22.4547 17.9399 21.5656C18.619 20.8267 19.5406 20.6899 20.4852 20.7249C21.8857 20.7249 23.025 21.8648 23.025 23.2659C23.025 24.6663 21.8857 25.8056 20.4852 25.8056H14.3455C13.8682 25.8056 13.4813 26.1926 13.4813 26.6699V31.3807C13.4813 32.3888 12.5917 33.0218 11.6276 32.8379C10.8555 32.6906 10.5059 32.0622 10.5059 31.3115Z" fill="#0257A6"/>
<path d="M29.585 18.7735H34.2918C34.7691 18.7735 35.1561 18.3865 35.1561 17.9092V14.729C35.1561 14.2517 34.7691 13.8647 34.2918 13.8647H29.585C29.1077 13.8647 28.7207 14.2517 28.7207 14.729V17.9092C28.7207 18.3865 29.1077 18.7735 29.585 18.7735ZM30.4492 15.5933H33.4276V17.045H30.4492V15.5933Z" fill="#0257A6"/>
<path d="M28.7207 24.3596C28.7207 24.8369 29.1077 25.2238 29.585 25.2238H34.2918C34.7691 25.2238 35.1561 24.8369 35.1561 24.3596V21.1792C35.1561 20.7019 34.7691 20.3149 34.2918 20.3149H29.585C29.1077 20.3149 28.7207 20.7019 28.7207 21.1792V24.3596ZM30.4492 22.0435H33.4276V23.4953H30.4492V22.0435Z" fill="#0257A6"/>
<path d="M37.5537 17.1831H52.8943C53.3716 17.1831 53.7585 16.7961 53.7585 16.3188C53.7585 15.8415 53.3716 15.4546 52.8943 15.4546H37.5537C37.0764 15.4546 36.6895 15.8415 36.6895 16.3188C36.6895 16.7961 37.0764 17.1831 37.5537 17.1831Z" fill="#0257A6"/>
</g>
<defs>
<clipPath id="clip0">
<rect width="59" height="59" fill="white"/>
</clipPath>
</defs>
</svg>
