<svg width="35" height="35" fill="none" xmlns="http://www.w3.org/2000/svg">
  <g clip-path="url(#clip0)">
    <path d="M34.074 11.8954C33.6482 10.5499 33.0362 9.27053 32.2559 8.0946C30.0046 4.56382 26.5622 1.95713 22.5532 0.747608C19.469 -0.179828 16.1887 -0.238709 13.0732 0.577443C9.95769 1.39359 7.1276 3.05316 4.8942 5.37362C2.66079 7.69407 1.1106 10.5855 0.414122 13.73C-0.282361 16.8744 -0.0981561 20.15 0.946478 23.1966C2.44511 27.5895 5.62746 31.2073 9.79346 33.2539C13.9595 35.3005 18.7678 35.6083 23.1608 34.1097C27.5538 32.6111 31.1715 29.4287 33.2181 25.2627C35.2648 21.0967 35.5726 16.2884 34.074 11.8954ZM24.861 10.8394L28.2541 13.0332L28.7499 15.8274L26.313 18.2643C26.2234 18.3541 26.173 18.4759 26.173 18.6028V21.697L24.6612 23.2086C24.6167 23.253 24.5815 23.3057 24.5575 23.3638C24.5335 23.4218 24.5211 23.484 24.5212 23.5468V25.4349L21.4138 28.5423L19.0896 26.218V21.5909C19.0895 21.464 19.0391 21.3424 18.9493 21.2527L15.1674 17.4713C15.123 17.4268 15.0702 17.3915 15.0121 17.3675C14.954 17.3434 14.8918 17.331 14.8289 17.331H11.8107L9.57015 15.0902V10.5555L13.0975 7.02819L15.5817 6.04956L17.0984 7.56632C17.1755 7.64307 17.2763 7.69129 17.3844 7.70304L23.0719 8.33003C23.1579 8.33923 23.2448 8.32516 23.3235 8.28929L26.695 6.74491C26.773 6.70919 26.84 6.65316 26.8889 6.58268C26.9378 6.51221 26.9668 6.42987 26.973 6.34431C26.9792 6.25874 26.9623 6.17309 26.924 6.09632C26.8857 6.01954 26.8275 5.95447 26.7554 5.90792L21.6703 2.62421C21.6105 2.58561 21.5429 2.56086 21.4723 2.55175L13.6657 1.53784L13.6384 1.41753C17.3869 0.518599 21.3316 0.956941 24.7914 2.65685C28.2511 4.35677 31.0086 7.21151 32.5876 10.7281L31.5518 10.0065C31.5362 9.99581 31.5201 9.98597 31.5037 9.97694L28.7633 8.51378C28.6994 8.47967 28.6286 8.46052 28.5562 8.45777C28.4838 8.45502 28.4118 8.46875 28.3455 8.49792L24.9283 9.99937C24.8493 10.0342 24.7811 10.0898 24.7311 10.1602C24.681 10.2306 24.651 10.3132 24.6441 10.3993C24.6372 10.4854 24.6537 10.5718 24.6919 10.6492C24.7301 10.7267 24.7886 10.7924 24.861 10.8394ZM1.14827 20.0241C1.03569 19.2785 0.973747 18.5261 0.962884 17.7721L1.05777 17.8342C1.11093 17.8689 1.17047 17.8926 1.23291 17.904C1.29536 17.9154 1.35945 17.9143 1.42144 17.9006L2.24503 17.7196L4.51812 19.5385C4.5697 19.5798 4.62928 19.6099 4.6931 19.627C4.75692 19.6441 4.82359 19.6478 4.8889 19.6378L7.84886 19.1885L9.56714 21.3859L9.5398 24.4913L5.77429 24.9329C5.71168 24.9401 5.65112 24.9597 5.59612 24.9905C5.54111 25.0213 5.49275 25.0627 5.45382 25.1123L3.96851 27.0003C2.50204 24.9241 1.53671 22.5362 1.14827 20.0241ZM17.4998 34.0438C15.0118 34.0435 12.556 33.4812 10.3158 32.3988C8.07557 31.3164 6.10883 29.7418 4.56242 27.7928L6.083 25.8604L10.0705 25.3939C10.1863 25.3803 10.2931 25.3249 10.371 25.2382C10.4488 25.1515 10.4924 25.0393 10.4935 24.9228L10.5255 21.2281C10.5263 21.1199 10.4906 21.0146 10.4241 20.9292L8.43074 18.3797C8.37862 18.3126 8.30948 18.2607 8.23053 18.2294C8.15157 18.1981 8.06567 18.1885 7.98175 18.2017L4.95234 18.6613L2.66476 16.8309C2.60905 16.7864 2.5441 16.7549 2.47466 16.7387C2.40521 16.7224 2.33302 16.7219 2.26335 16.7371L1.41351 16.9231L0.97929 16.6398C1.16158 13.2411 2.38564 9.98095 4.48519 7.30213C6.58474 4.62331 9.45801 2.65572 12.7147 1.66663L12.8057 2.07378C12.8273 2.16957 12.8777 2.25643 12.9502 2.3226C13.0228 2.38877 13.1139 2.43106 13.2112 2.44374L21.2432 3.4869L25.5036 6.23769L23.0457 7.36343L17.6562 6.76952L16.0364 5.14968C15.9705 5.08383 15.8868 5.03864 15.7956 5.01964C15.7044 5.00065 15.6096 5.00869 15.5229 5.04276L12.654 6.17288C12.593 6.19709 12.5377 6.23347 12.4913 6.2798L8.75339 10.018C8.66364 10.1076 8.61318 10.2293 8.61312 10.3562V15.2885C8.61312 15.3513 8.62551 15.4135 8.64958 15.4716C8.67365 15.5296 8.70893 15.5823 8.75339 15.6267L11.2742 18.1478C11.364 18.2375 11.4858 18.288 11.6127 18.2881H14.6309L18.1309 21.7881V26.4149C18.1309 26.4777 18.1433 26.5399 18.1673 26.598C18.1913 26.656 18.2265 26.7087 18.2709 26.7532L21.0745 29.5567C21.1189 29.6012 21.1716 29.6365 21.2297 29.6605C21.2878 29.6846 21.35 29.697 21.4129 29.697C21.4757 29.697 21.538 29.6846 21.596 29.6605C21.6541 29.6365 21.7068 29.6012 21.7512 29.5567L25.3379 25.9717C25.4277 25.8819 25.4781 25.7601 25.4782 25.6332V23.7451L26.9898 22.2335C27.0795 22.1438 27.13 22.0222 27.13 21.8953V18.8008L29.603 16.3275C29.6575 16.2732 29.698 16.2064 29.7211 16.133C29.7442 16.0596 29.7492 15.9817 29.7356 15.9059L29.16 12.661C29.1486 12.5963 29.1239 12.5346 29.0876 12.4798C29.0512 12.425 29.0039 12.3784 28.9487 12.3427L26.1268 10.5181L28.5169 9.4678L31.0273 10.8076L33.2102 12.3282C34.03 14.8129 34.2486 17.4566 33.8478 20.0421C33.447 22.6277 32.4383 25.0812 30.9047 27.201C29.3711 29.3208 27.3563 31.0465 25.026 32.236C22.6956 33.4256 20.1162 34.0452 17.4998 34.0438Z" fill="#0257A6"/>
  </g>
  <defs>
    <clipPath id="clip0">
      <path fill="#fff" d="M0 0H35V35H0z"/>
    </clipPath>
  </defs>
</svg>
