<svg width="60" height="60" viewBox="0 0 60 60" fill="none" xmlns="http://www.w3.org/2000/svg">
<g clip-path="url(#clip0)">
<path d="M55.2383 17.1875H42.5272V8.35922C42.5272 5.73375 40.3911 3.59766 37.7655 3.59766H4.76168C2.13609 3.59766 0 5.73375 0 8.35922V21.4474C0 21.9329 0.393398 22.3263 0.878906 22.3263C1.36441 22.3263 1.75781 21.9329 1.75781 21.4474V8.35922C1.75781 6.70289 3.10535 5.35547 4.76168 5.35547H37.7657C39.422 5.35547 40.7695 6.70289 40.7695 8.35922V31.6564C40.7695 33.3128 39.4221 34.6603 37.7658 34.6603H18.7535C18.2592 34.6603 17.7947 34.8529 17.4457 35.202L11.6215 41.0262C11.6052 41.0427 11.5779 41.0695 11.5214 41.0462C11.4648 41.0228 11.4648 40.9843 11.4648 40.9614V36.5099C11.4648 35.49 10.635 34.6603 9.61512 34.6603H4.76168C3.10535 34.6603 1.75781 33.3128 1.75781 31.6564V24.963C1.75781 24.4775 1.36441 24.0841 0.878906 24.0841C0.393398 24.0841 0 24.4775 0 24.963V31.6564C0 34.282 2.13609 36.4181 4.76168 36.4181H9.61512C9.66586 36.4181 9.70699 36.4594 9.70699 36.5099V40.9614C9.70699 41.7121 10.1551 42.3829 10.8487 42.6701C11.079 42.7656 11.3198 42.8119 11.5584 42.8119C12.0389 42.8118 12.5098 42.6239 12.8646 42.2692L17.4728 37.6609V45.2463C17.4728 47.8718 19.6087 50.0079 22.2343 50.0079H32.8789C33.3645 50.0079 33.7579 49.6145 33.7579 49.129C33.7579 48.6435 33.3645 48.2501 32.8789 48.2501H22.2343C20.578 48.2501 19.2306 46.9027 19.2306 45.2463V36.4181H37.7658C40.3913 36.4181 42.5273 34.282 42.5273 31.6564V18.9454H55.2384C56.8948 18.9454 58.2423 20.2929 58.2423 21.9492V45.2464C58.2423 46.9028 56.8948 48.2502 55.2384 48.2502H50.385C49.3651 48.2502 48.5353 49.0799 48.5353 50.0998V54.5513C48.5353 54.5742 48.5353 54.6125 48.4787 54.6362C48.4225 54.6596 48.3949 54.6327 48.3787 54.6162L42.5546 48.7922C42.2054 48.4427 41.7409 48.2502 41.2467 48.2502H36.3949C35.9094 48.2502 35.516 48.6436 35.516 49.1291C35.516 49.6146 35.9094 50.008 36.3949 50.008H41.2467C41.2707 50.008 41.2943 50.0177 41.3115 50.035L47.1357 55.8592C47.4905 56.2138 47.9614 56.4019 48.4419 56.4019C48.6804 56.4018 48.9214 56.3555 49.1516 56.2601C49.8452 55.9729 50.2934 55.3021 50.2934 54.5513V50.0998C50.2934 50.0491 50.3346 50.008 50.3852 50.008H55.2387C57.8643 50.008 60.0004 47.8719 60.0004 45.2464V21.9492C60 19.3236 57.8639 17.1875 55.2383 17.1875Z" fill="#0257A6"/>
<path d="M27.1797 41.3633C27.1797 42.9185 28.4448 44.1836 29.9999 44.1836C31.5551 44.1836 32.8201 42.9184 32.8201 41.3633C32.8201 39.8082 31.5551 38.543 29.9999 38.543C28.4448 38.543 27.1797 39.8081 27.1797 41.3633ZM31.0623 41.3633C31.0623 41.9491 30.5857 42.4257 29.9999 42.4257C29.4141 42.4257 28.9375 41.9491 28.9375 41.3633C28.9375 40.7775 29.4141 40.3009 29.9999 40.3009C30.5857 40.3009 31.0623 40.7775 31.0623 41.3633Z" fill="#0257A6"/>
<path d="M18.4434 29.7152C18.4434 31.2703 19.7086 32.5355 21.2637 32.5355C22.8189 32.5355 24.0839 31.2703 24.0839 29.7152C24.0839 28.1601 22.8188 26.895 21.2637 26.895C19.7086 26.895 18.4434 28.1602 18.4434 29.7152ZM22.3263 29.7152C22.3263 30.3011 21.8497 30.7777 21.2638 30.7777C20.6779 30.7777 20.2013 30.3011 20.2013 29.7152C20.2013 29.1294 20.6779 28.6528 21.2638 28.6528C21.8495 28.6528 22.3263 29.1294 22.3263 29.7152Z" fill="#0257A6"/>
<path d="M24.0839 20.266C26.599 19.1005 28.1432 16.5054 27.9504 13.7146C27.7219 10.3987 25.0489 7.72573 21.7334 7.49687C19.8823 7.36866 18.0437 8.01988 16.6904 9.28304C15.3367 10.5464 14.5603 12.3327 14.5603 14.1838C14.5603 15.739 15.8256 17.0041 17.3807 17.0041C18.9357 17.0041 20.2009 15.7389 20.2009 14.1838C20.2009 13.8817 20.3178 13.613 20.539 13.4066C20.7562 13.204 21.0431 13.1043 21.3449 13.1241C21.8495 13.1589 22.2882 13.5978 22.323 14.1028C22.355 14.5655 22.0911 14.9937 21.6663 15.1681C19.7082 15.9721 18.4431 17.8719 18.4431 20.0082V21.9495C18.4431 23.5047 19.7082 24.7698 21.2633 24.7698C22.8184 24.7698 24.0837 23.5046 24.0837 21.9495V20.266H24.0839ZM23.1416 18.7598C22.6461 18.9631 22.3261 19.4532 22.3261 20.008V21.9494C22.3261 22.5353 21.8495 23.0119 21.2635 23.0119C20.6777 23.0119 20.2011 22.5353 20.2011 21.9494V20.008C20.2011 18.5877 21.0384 17.3261 22.3342 16.7939C23.4608 16.3314 24.1611 15.2011 24.0769 13.9817C23.9824 12.6119 22.8356 11.4648 21.4649 11.3704C21.3978 11.3658 21.3312 11.3635 21.265 11.3635C20.5452 11.3635 19.868 11.6287 19.34 12.1213C18.7617 12.6609 18.4433 13.3934 18.4433 14.1838C18.4433 14.7696 17.9667 15.2462 17.3809 15.2462C16.795 15.2462 16.3184 14.7696 16.3184 14.1838C16.3184 12.8182 16.8913 11.5002 17.89 10.568C18.8882 9.63612 20.2428 9.15484 21.6125 9.25058C24.0574 9.41909 26.0284 11.3903 26.1969 13.8355C26.3441 15.9698 25.1162 17.9488 23.1416 18.7598Z" fill="#0257A6"/>
<path d="M50.2931 41.3632C50.2931 39.808 49.0279 38.543 47.4728 38.543C45.9177 38.543 44.6526 39.8081 44.6526 41.3632C44.6526 42.9183 45.9177 44.1834 47.4728 44.1834C49.0279 44.1834 50.2931 42.9183 50.2931 41.3632ZM46.4103 41.3632C46.4103 40.7774 46.8869 40.3008 47.4727 40.3008C48.0585 40.3008 48.5351 40.7774 48.5351 41.3632C48.5351 41.949 48.0585 42.4256 47.4727 42.4256C46.887 42.4256 46.4103 41.949 46.4103 41.3632Z" fill="#0257A6"/>
<path d="M38.7366 44.1834C40.2917 44.1834 41.5568 42.9183 41.5568 41.3632C41.5568 39.8081 40.2917 38.543 38.7366 38.543C37.1814 38.543 35.9163 39.8081 35.9163 41.3632C35.9163 42.9183 37.1814 44.1834 38.7366 44.1834ZM38.7366 40.3007C39.3224 40.3007 39.799 40.7773 39.799 41.3631C39.799 41.9489 39.3224 42.4255 38.7366 42.4255C38.1507 42.4255 37.6741 41.9489 37.6741 41.3631C37.6741 40.7773 38.1507 40.3007 38.7366 40.3007Z" fill="#0257A6"/>
</g>
<defs>
<clipPath id="clip0">
<rect width="60" height="60" fill="white"/>
</clipPath>
</defs>
</svg>
