<svg width="13" height="19" viewBox="0 0 13 19" fill="none" xmlns="http://www.w3.org/2000/svg">
<path d="M5.235 0.990781C2.75119 1.43432 0.799637 3.47458 0.356101 5.95838C-0.0874352 8.35348 0.888344 10.5712 2.57378 11.9018C4.25922 13.3211 5.50112 15.1839 6.12207 17.3129L6.4769 18.6435L6.92043 17.3129C7.54138 15.0952 8.9607 13.2324 10.6461 11.7243C11.888 10.6599 12.6864 8.97443 12.6864 7.11158C12.6864 3.29717 9.22682 0.281123 5.235 0.990781ZM6.4769 10.6599C4.52534 10.6599 2.92861 9.06313 2.92861 7.11158C2.92861 5.16002 4.52534 3.56329 6.4769 3.56329C8.42845 3.56329 10.0252 5.16002 10.0252 7.11158C10.0252 9.06313 8.42845 10.6599 6.4769 10.6599Z" fill="#0257A6"/>
</svg>
