<svg width="54" height="50" fill="none" xmlns="http://www.w3.org/2000/svg">
  <path d="M44.4294 40.6039C46.3928 38.1451 47.8709 35.3338 48.7846 32.3205 48.9153 31.8839 49.046 31.4365 49.1548 30.9781 50.6899 24.7715 49.7855 18.211 46.6288 12.6542 45.6138 10.8581 44.3774 9.19706 42.9487 7.71034 42.2361 6.96384 41.4798 6.26049 40.6839 5.60402 37.4215 2.94491 33.5413 1.15562 29.404.402449 25.2668-.350725 21.0067-.0433432 17.0197 1.29603 13.0328 2.6354 9.44827 4.96329 6.5994 8.06336 3.75054 11.1634 1.72975 14.9351.724836 19.0277-.0593157 22.2159-.208982 25.5277.28439 28.7739.777763 32.0201 1.9045 35.137 3.60021 37.9465 5.29593 40.756 7.52737 43.2031 10.167 45.1478 12.8067 47.0924 15.8028 48.4967 18.9841 49.2802 19.6114 49.4441 20.2476 49.5717 20.8895 49.6622 24.6406 50.2883 28.485 50.0418 32.1259 48.9419L32.3437 48.8764 32.899 48.6909 33.095 48.6254C34.8191 48.0202 36.4728 47.2298 38.0273 46.2681L38.1906 46.1698 38.931 45.6787 39.3883 45.3622 39.6278 45.1876C39.9109 44.9802 40.1831 44.7838 40.4553 44.5655 40.7275 44.3473 40.8146 44.2709 40.9888 44.1181L41.1412 43.9871C41.7034 43.5127 42.2412 43.01 42.7527 42.481L42.9378 42.2737C43.4822 41.7171 43.9721 41.1823 44.3859 40.6476L44.4294 40.6039zM46.3131 32.8225C46.2151 33.0954 46.0844 33.3573 45.9755 33.6301 45.7795 34.1103 45.5944 34.6014 45.3658 35.0707 45.1371 35.54 45.0283 35.671 44.8541 35.9765 44.6799 36.2821 44.4294 36.7951 44.179 37.1879 43.9286 37.5808 43.7435 37.81 43.5257 38.1156 43.308 38.4212 43.0358 38.825 42.7636 39.207L39.1923 42.7757H39.1269C38.6479 43.1577 38.147 43.5178 37.6353 43.8671L37.2107 44.129C36.8622 44.3582 36.5138 44.5764 36.1219 44.7729L35.3706 45.1767 34.5649 45.5805 33.7156 45.9516 33.3127 46.1153C33.2006 45.6654 33.1421 45.2038 33.1385 44.7402 33.1459 44.139 33.2602 43.544 33.4761 42.9831 33.9518 41.7629 34.8586 40.7607 36.0239 40.1674L38.637 38.7486 36.4594 36.6641C35.1562 35.4493 34.2365 33.8786 33.8136 32.1459 33.6991 31.4864 33.6771 30.8142 33.7483 30.1487 33.7428 30.0542 33.7428 29.9594 33.7483 29.8649 33.9289 28.4232 34.2949 27.0109 34.8371 25.6632 36.7979 20.4281 39.5602 15.531 43.0249 11.1481L43.1555 11.3227 43.4604 11.7375C43.6237 11.9776 43.7979 12.2067 43.9504 12.4468 44.1028 12.6869 44.1463 12.7415 44.2334 12.8943 44.3205 13.0471 44.5383 13.3745 44.6799 13.6255 44.8214 13.8765 44.8432 13.9202 44.9303 14.073 45.0174 14.2258 45.2025 14.5859 45.3331 14.8369 45.4638 15.0879 45.4747 15.1316 45.5509 15.2844 45.6271 15.4372 45.8013 15.8301 45.9102 16.1029 46.0191 16.3757 46.0409 16.3866 46.0953 16.5285 46.2151 16.845 46.3348 17.1615 46.4437 17.4889 46.4437 17.5871 46.5199 17.6854 46.5635 17.7945 46.705 18.2201 46.8357 18.6567 46.9555 19.0932V19.2351C47.0534 19.628 47.1405 20.01 47.2277 20.4028 47.2277 20.5447 47.2277 20.6975 47.3039 20.8394 47.3801 20.9813 47.4128 21.4287 47.4563 21.7234L47.5216 22.2472C47.5216 22.5201 47.5761 22.7929 47.6087 23.0658V23.6224 24.419C47.6087 24.6155 47.6087 24.801 47.6087 24.9975 47.6087 25.1939 47.6087 25.5322 47.6087 25.7942 47.6087 26.0561 47.6087 26.1761 47.6087 26.3617 47.6087 26.5472 47.6087 26.9183 47.5325 27.1911 47.4563 27.4639 47.5325 27.5512 47.4781 27.7259 47.4236 27.9005 47.4019 28.337 47.3474 28.6426L47.2821 29.0901C47.195 29.5484 47.097 29.9959 46.9881 30.4543 46.8075 31.2557 46.5821 32.0464 46.3131 32.8225zM30.2314 43.114C29.1951 43.1178 28.1593 43.0668 27.1283 42.9612 27.3832 41.526 28.1304 40.225 29.2406 39.2834 29.8567 38.7428 30.5599 38.311 31.3202 38.0065 31.9055 37.7735 32.5325 37.6639 33.1619 37.6846 33.7913 37.7052 34.4098 37.8557 34.9786 38.1265 33.8486 38.7301 32.8811 39.5988 32.1586 40.6585 32.0171 40.8658 31.8755 41.0841 31.7558 41.3024 31.636 41.5206 31.5924 41.6953 31.5162 41.8917 31.4826 41.9588 31.4535 42.0281 31.4291 42.0991 31.3042 42.4262 31.2023 42.7617 31.1242 43.1031 30.852 43.1359 30.4818 43.114 30.2314 43.114zM32.7575 24.9102C31.8102 27.5512 31.1242 29.8649 31.7231 32.5497 31.8953 33.2745 32.1397 33.9801 32.4526 34.656L32.0715 34.3395C28.228 31.0654 26.7364 28.1951 27.0739 24.6919 27.4659 20.6211 29.393 16.1684 32.6595 11.421L33.6829 12.1303C34.4669 12.6869 36.1981 13.9747 37.57 15.0988 35.6227 18.1887 34.0094 21.4777 32.7575 24.9102zM25.0378 47.8069C23.7864 47.8045 22.5373 47.6986 21.3032 47.4904 20.7208 47.4073 20.1429 47.2944 19.572 47.1521 16.6709 46.4355 13.939 45.1531 11.5323 43.3782 9.12554 41.6034 7.09116 39.3707 5.54526 36.8078 3.99937 34.2448 2.97224 31.4018 2.52252 28.441 2.0728 25.4802 2.2093 22.4595 2.92422 19.5516 3.63914 16.6436 4.91848 13.9053 6.6892 11.4929 8.45991 9.08058 10.6873 7.04142 13.2443 5.4919 15.8012 3.94238 18.6376 2.91284 21.5915 2.46207 24.5454 2.01129 27.5589 2.14811 30.4601 2.86471 33.6959 3.67009 36.7122 5.1874 39.2903 7.30654 40.0239 7.90138 40.7186 8.54297 41.3699 9.22733 41.4408 9.29481 41.5064 9.36779 41.5659 9.4456 40.5424 10.7552 39.6169 12.0321 38.7894 13.2544 37.2651 11.9776 35.6754 10.8425 34.9677 10.3405L34.652 10.1113C34.1947 9.79484 33.7265 9.46743 33.2365 9.15093 32.7466 8.83444 32.4961 8.67073 32.1477 8.44155 28.5873 13.0907 25.4516 18.6567 24.8963 24.4736 24.4172 29.4611 27.0195 32.9426 30.6452 36.0093 29.6145 36.3652 28.6585 36.9091 27.8252 37.6136 26.7988 38.5048 25.9945 39.6242 25.4765 40.8824 24.9585 42.1406 24.7411 43.5028 24.8418 44.8602 26.8638 45.194 28.9122 45.3402 30.9609 45.2967 31.0005 45.847 31.0953 46.3918 31.244 46.9229 29.2264 47.5056 27.1375 47.8031 25.0378 47.8069zM53.2815 31.644C51.4548 33.1276 49.9693 34.9889 48.9263 37.1008 48.2332 38.4782 47.7418 39.9484 47.4673 41.4663 49.1754 38.7316 51.3935 36.3527 54.0001 34.4597 53.7388 33.5539 53.4884 32.6154 53.2815 31.644z" fill="#0257A6"/>
</svg>
