<svg width="161" height="30" fill="none" xmlns="http://www.w3.org/2000/svg">
  <path d="M26.72 24.3633C27.9006 22.8882 28.7893 21.2018 29.3388 19.3941 29.4173 19.1322 29.4959 18.8638 29.5614 18.5888 30.4844 14.8655 29.9406 10.9298 28.0425 7.59632 27.4321 6.51883 26.6887 5.5224 25.8296 4.63051 25.4011 4.18269 24.9464 3.76075 24.4678 3.36693 22.506 1.77174 20.1729.698352 17.6851.246525 15.1973-.205303 12.6357-.0209051 10.2383.782581 7.84095 1.58607 5.68558 2.98256 3.97254 4.84229 2.2595 6.70201 1.04439 8.96461.440128 11.4198-.0313868 13.3324-.121382 15.3191.175286 17.2665.471953 19.2139 1.14947 21.0837 2.16911 22.7691 3.18875 24.4546 4.53053 25.9225 6.11776 27.0891 7.705 28.2558 9.50657 29.0982 11.4195 29.5682 11.7967 29.6665 12.1793 29.7431 12.5653 29.7973 14.8208 30.1729 17.1325 30.0251 19.3218 29.3652L19.4527 29.326 19.7866 29.2147 19.9045 29.1754C20.9412 28.8123 21.9356 28.3382 22.8703 27.7612L22.9685 27.7023 23.4137 27.4077 23.6887 27.2178 23.8327 27.1131C24.0029 26.9887 24.1666 26.8708 24.3303 26.7399 24.494 26.6089 24.5463 26.5631 24.6511 26.4714L24.7427 26.3929C25.0808 26.1083 25.4042 25.8067 25.7117 25.4894L25.823 25.365C26.1504 25.0311 26.445 24.7103 26.6938 24.3895L26.72 24.3633zM27.8526 19.6953C27.7937 19.8589 27.7151 20.0161 27.6496 20.1797 27.5318 20.4678 27.4205 20.7624 27.283 21.0439 27.1455 21.3255 27.08 21.404 26.9753 21.5874 26.8705 21.7707 26.72 22.0784 26.5694 22.3141 26.4188 22.5498 26.3075 22.6873 26.1765 22.8706 26.0456 23.0539 25.8819 23.2961 25.7183 23.5253L23.5708 25.6662H23.5315C23.2435 25.8953 22.9423 26.1114 22.6346 26.3209L22.3793 26.478C22.1698 26.6155 21.9603 26.7464 21.7246 26.8643L21.2728 27.1065 20.7883 27.3487 20.2777 27.5713 20.0354 27.6696C19.968 27.3997 19.9328 27.1228 19.9307 26.8446 19.9351 26.484 20.0038 26.127 20.1336 25.7906 20.4197 25.0586 20.965 24.4573 21.6656 24.1014L23.2369 23.2503 21.9275 21.9998C21.1439 21.271 20.5909 20.3288 20.3366 19.2893 20.2677 18.8938 20.2545 18.4905 20.2973 18.0912 20.294 18.0345 20.294 17.9777 20.2973 17.921 20.4059 17.0561 20.626 16.2089 20.952 15.4004 22.1311 12.2598 23.7921 9.32211 25.8754 6.69283L25.954 6.79758 26.1373 7.04637C26.2355 7.19041 26.3402 7.32789 26.4319 7.47193 26.5235 7.61596 26.5497 7.6487 26.6021 7.74036 26.6545 7.83202 26.7854 8.02843 26.8705 8.17901 26.9556 8.32959 26.9687 8.35578 27.0211 8.44744 27.0735 8.5391 27.1848 8.75515 27.2634 8.90573 27.3419 9.05631 27.3485 9.0825 27.3943 9.17416 27.4401 9.26582 27.5449 9.50151 27.6104 9.66519 27.6758 9.82887 27.6889 9.83541 27.7217 9.92052 27.7937 10.1104 27.8657 10.3003 27.9312 10.4967 27.9312 10.5556 27.977 10.6145 28.0032 10.68 28.0883 10.9353 28.1669 11.1972 28.2389 11.4591V11.5442C28.2978 11.7799 28.3502 12.009 28.4025 12.2447 28.4025 12.3298 28.4025 12.4215 28.4484 12.5066 28.4942 12.5917 28.5138 12.8601 28.54 13.0369L28.5793 13.3512C28.5793 13.5148 28.612 13.6785 28.6317 13.8422V14.1761 14.654C28.6317 14.7719 28.6317 14.8832 28.6317 15.001 28.6317 15.1189 28.6317 15.3218 28.6317 15.479 28.6317 15.6361 28.6317 15.7081 28.6317 15.8194 28.6317 15.9307 28.6317 16.1533 28.5859 16.317 28.54 16.4807 28.5859 16.533 28.5531 16.6378 28.5204 16.7425 28.5073 17.0044 28.4746 17.1877L28.4353 17.4562C28.3829 17.7311 28.324 17.9996 28.2585 18.2745 28.1499 18.7553 28.0144 19.2297 27.8526 19.6953zM18.1826 25.8691C17.5595 25.8714 16.9366 25.8408 16.3167 25.7775 16.47 24.9164 16.9192 24.136 17.5868 23.5711 17.9573 23.2468 18.3801 22.9878 18.8373 22.8051 19.1893 22.6653 19.5662 22.5996 19.9447 22.612 20.3232 22.6244 20.6951 22.7146 21.0371 22.8771 20.3577 23.2392 19.7759 23.7604 19.3414 24.396 19.2563 24.5204 19.1712 24.6514 19.0992 24.7823 19.0272 24.9132 19.001 25.018 18.9552 25.1358 18.9349 25.1761 18.9174 25.2177 18.9028 25.2602 18.8277 25.4565 18.7664 25.6578 18.7195 25.8626 18.5558 25.8822 18.3332 25.8691 18.1826 25.8691zM19.7015 14.9487C19.1319 16.533 18.7195 17.921 19.0796 19.5316 19.1831 19.9664 19.3301 20.3897 19.5182 20.7952L19.2891 20.6053C16.978 18.6412 16.081 16.9193 16.284 14.8177 16.5197 12.3757 17.6785 9.70447 19.6426 6.85651L20.258 7.28207C20.7294 7.61596 21.7704 8.38852 22.5953 9.06286 21.4244 10.9164 20.4543 12.8895 19.7015 14.9487zM15.0597 28.6843C14.3072 28.6829 13.5561 28.6194 12.814 28.4945 12.4638 28.4447 12.1164 28.3769 11.7731 28.2915 10.0286 27.8616 8.38587 27.0924 6.93869 26.0276 5.49152 24.9629 4.26823 23.6235 3.33868 22.086 2.40913 20.5485 1.79151 18.843 1.52109 17.0668 1.25067 15.2906 1.33275 13.4785 1.76263 11.7341 2.19252 9.98958 2.96179 8.34686 4.02653 6.89969 5.09128 5.45252 6.43063 4.22923 7.96814 3.29968 9.50564 2.37012 11.2112 1.7525 12.9874 1.48209 14.7636 1.21167 16.5756 1.29374 18.3201 1.72363 20.2658 2.20678 22.0796 3.11701 23.6298 4.38827 24.0709 4.74512 24.4886 5.13001 24.8802 5.54055 24.9229 5.58104 24.9623 5.62482 24.9981 5.67149 24.3827 6.45714 23.8262 7.22314 23.3286 7.95641 22.412 7.19041 21.4561 6.50951 21.0306 6.20835L20.8407 6.07086C20.5657 5.881 20.2842 5.68459 19.9896 5.49472 19.695 5.30486 19.5444 5.20665 19.3349 5.06917 17.194 7.85821 15.3085 11.1972 14.9746 14.6868 14.6865 17.6788 16.2512 19.7673 18.4314 21.607 17.8117 21.8205 17.2368 22.1468 16.7357 22.5694 16.1185 23.104 15.6349 23.7756 15.3234 24.5304 15.012 25.2852 14.8813 26.1023 14.9418 26.9166 16.1576 27.1169 17.3893 27.2046 18.6213 27.1785 18.645 27.5086 18.7021 27.8354 18.7915 28.154 17.5783 28.5036 16.3222 28.6821 15.0597 28.6843zM32.0427 18.9882C30.9443 19.8782 30.051 20.9948 29.4239 22.2617 29.0071 23.088 28.7117 23.97 28.5466 24.8805 29.5737 23.24 30.9074 21.8129 32.4748 20.6773 32.3177 20.1339 32.1671 19.5709 32.0427 18.9882zM46.521 22.5956H39.4491V12.1402H46.3032V14.3765H42.1065V16.2353H45.6933V18.3554H42.1065V20.3593H46.521V22.5956zM47.798 15.3349H50.1504L50.223 16.0755C50.2521 16.2595 50.2327 16.4144 50.165 16.5402H50.194C50.3683 16.182 50.678 15.8577 51.1234 15.5673 51.5784 15.2769 52.0576 15.1316 52.561 15.1316 53.3548 15.1316 53.9744 15.3785 54.4197 15.8722 54.8747 16.366 55.1022 17.0969 55.1022 18.065V22.5956H52.5174V18.457C52.5174 17.789 52.256 17.4551 51.7333 17.4551 51.3267 17.4551 51.0023 17.5954 50.7603 17.8762 50.5183 18.1569 50.3973 18.5151 50.3973 18.9508V22.5956H47.798V15.3349zM55.8465 15.3349H56.7904V13.1567H59.3026V15.3349H61.1033V17.3389H59.3026V19.822C59.3026 20.3932 59.593 20.6788 60.1739 20.6788 60.5224 20.6788 60.9096 20.582 61.3356 20.3884V22.4794C60.8903 22.6924 60.2417 22.7989 59.3897 22.7989 58.7218 22.7989 58.1506 22.6392 57.6762 22.3197 57.2115 22.0002 56.9211 21.4968 56.8049 20.8095 56.7662 20.4997 56.7469 20.2432 56.7469 20.0399V17.3389H55.8465V15.3349zM62.4041 22.5956V15.3349H64.7565C64.7565 15.3543 64.771 15.5382 64.8001 15.8868 64.8194 16.1481 64.834 16.2982 64.8436 16.3369 65.076 15.9884 65.3761 15.7028 65.744 15.4802 66.1118 15.2478 66.5088 15.1316 66.9347 15.1316 67.0025 15.1316 67.0702 15.1365 67.138 15.1462 67.2155 15.1462 67.2784 15.151 67.3268 15.1607H67.3994V17.6874H67.3704C67.351 17.6777 67.3268 17.668 67.2978 17.6584 67.2687 17.639 67.2348 17.6245 67.1961 17.6148 67.1574 17.6051 67.109 17.6003 67.0509 17.6003 66.9928 17.5906 66.9347 17.5857 66.8766 17.5857 66.3732 17.5857 65.9327 17.76 65.5552 18.1085 65.1776 18.457 64.9889 18.9362 64.9889 19.5461V22.5956H62.4041zM71.6692 15.1316C72.7632 15.1316 73.6054 15.4608 74.196 16.1191 74.7962 16.7677 75.0963 17.5712 75.0963 18.5296 75.0963 18.7329 75.0721 19.0524 75.0237 19.488H70.5947C70.7011 20.2625 71.282 20.6497 72.3372 20.6497 72.8116 20.6497 73.2908 20.5965 73.7748 20.49 74.2589 20.3835 74.5977 20.2819 74.7913 20.1851V22.3487C74.1718 22.6489 73.2714 22.7989 72.0904 22.7989 70.8125 22.7989 69.796 22.4456 69.0409 21.7388 68.2858 21.0225 67.9082 20.0979 67.9082 18.9653 67.9082 17.8617 68.2664 16.9468 68.9828 16.2207 69.6992 15.4947 70.5947 15.1316 71.6692 15.1316zM72.6567 18.2973C72.6664 17.9585 72.5841 17.6777 72.4098 17.4551 72.2356 17.2324 71.979 17.1211 71.6402 17.1211 71.311 17.1211 71.0545 17.2324 70.8706 17.4551 70.6866 17.6777 70.5898 17.9585 70.5801 18.2973H72.6567zM76.3021 25.7903V15.3349H78.6401L78.6981 15.8722 78.6691 16.3369H78.6981C78.8627 15.9884 79.1531 15.7028 79.5694 15.4802 79.9954 15.2478 80.4601 15.1316 80.9635 15.1316 81.9219 15.1316 82.7254 15.4753 83.374 16.1627 84.0226 16.85 84.3469 17.7842 84.3469 18.9653 84.3469 20.1463 84.0275 21.0806 83.3885 21.7679 82.7496 22.4552 81.9606 22.7989 81.0216 22.7989 80.5472 22.7989 80.1212 22.7118 79.7437 22.5375 79.3661 22.3633 79.0757 22.1358 78.8724 21.855H78.8433C78.8724 21.9809 78.8869 22.1842 78.8869 22.4649V25.7903H76.3021zM80.4552 20.6497C80.8812 20.6497 81.2297 20.4949 81.5008 20.1851 81.7815 19.8753 81.9219 19.4687 81.9219 18.9653 81.9219 18.4619 81.7815 18.0553 81.5008 17.7455 81.22 17.4357 80.8715 17.2808 80.4552 17.2808 80.0486 17.2808 79.7001 17.4309 79.4097 17.731 79.1289 18.0311 78.9886 18.4425 78.9886 18.9653 78.9886 19.488 79.1289 19.8995 79.4097 20.1996 79.7001 20.4997 80.0486 20.6497 80.4552 20.6497zM85.5191 22.5956V15.3349H87.8715C87.8715 15.3543 87.8861 15.5382 87.9151 15.8868 87.9345 16.1481 87.949 16.2982 87.9587 16.3369 88.191 15.9884 88.4911 15.7028 88.859 15.4802 89.2269 15.2478 89.6238 15.1316 90.0497 15.1316 90.1175 15.1316 90.1853 15.1365 90.253 15.1462 90.3305 15.1462 90.3934 15.151 90.4418 15.1607H90.5144V17.6874H90.4854C90.466 17.6777 90.4418 17.668 90.4128 17.6584 90.3837 17.639 90.3499 17.6245 90.3111 17.6148 90.2724 17.6051 90.224 17.6003 90.1659 17.6003 90.1078 17.5906 90.0497 17.5857 89.9917 17.5857 89.4883 17.5857 89.0478 17.76 88.6702 18.1085 88.2927 18.457 88.1039 18.9362 88.1039 19.5461V22.5956H85.5191zM91.5605 15.3349H94.1599V22.5956H91.5605V15.3349zM91.851 14.2458C91.5993 14.0038 91.4734 13.6747 91.4734 13.2584 91.4734 12.8421 91.5993 12.5178 91.851 12.2855 92.1027 12.0434 92.4415 11.9224 92.8675 11.9224 93.2934 11.9224 93.6274 12.0434 93.8694 12.2855 94.1211 12.5178 94.247 12.8421 94.247 13.2584 94.247 13.6747 94.1211 14.0038 93.8694 14.2458 93.6274 14.4879 93.2934 14.6089 92.8675 14.6089 92.4415 14.6089 92.1027 14.4879 91.851 14.2458zM98.921 20.4029C98.921 20.277 98.8387 20.1754 98.6742 20.0979 98.5193 20.0205 98.2434 19.9285 97.8465 19.822 97.072 19.6187 96.4814 19.338 96.0749 18.9798 95.6683 18.6216 95.465 18.1037 95.465 17.426 95.465 16.7096 95.7167 16.1481 96.2201 15.7415 96.7235 15.3349 97.4205 15.1316 98.3111 15.1316 99.2502 15.1316 100.088 15.2769 100.823 15.5673V17.76C100.272 17.4793 99.6616 17.2953 98.9936 17.2082 98.7032 17.1888 98.4951 17.184 98.3692 17.1937 98.011 17.2421 97.8319 17.3631 97.8319 17.5567 97.8319 17.7794 98.1466 17.973 98.7758 18.1376 99.6665 18.3602 100.305 18.6506 100.693 19.0088 101.09 19.3574 101.288 19.8608 101.288 20.5191 101.288 21.2451 101.007 21.8066 100.446 22.2035 99.894 22.6004 99.1195 22.7989 98.1224 22.7989 97.193 22.7989 96.3508 22.644 95.5956 22.3342V20.0834C95.9345 20.277 96.3459 20.4465 96.83 20.5917 97.3237 20.7272 97.7448 20.795 98.0933 20.795 98.6451 20.795 98.921 20.6643 98.921 20.4029zM105.732 15.1316C106.826 15.1316 107.668 15.4608 108.259 16.1191 108.859 16.7677 109.159 17.5712 109.159 18.5296 109.159 18.7329 109.135 19.0524 109.086 19.488H104.657C104.764 20.2625 105.345 20.6497 106.4 20.6497 106.874 20.6497 107.354 20.5965 107.838 20.49 108.322 20.3835 108.66 20.2819 108.854 20.1851V22.3487C108.235 22.6489 107.334 22.7989 106.153 22.7989 104.875 22.7989 103.859 22.4456 103.104 21.7388 102.349 21.0225 101.971 20.0979 101.971 18.9653 101.971 17.8617 102.329 16.9468 103.046 16.2207 103.762 15.4947 104.657 15.1316 105.732 15.1316zM106.719 18.2973C106.729 17.9585 106.647 17.6777 106.473 17.4551 106.298 17.2324 106.042 17.1211 105.703 17.1211 105.374 17.1211 105.117 17.2324 104.933 17.4551 104.749 17.6777 104.653 17.9585 104.643 18.2973H106.719zM117.261 15.1316C118.355 15.1316 119.198 15.4608 119.788 16.1191 120.388 16.7677 120.689 17.5712 120.689 18.5296 120.689 18.7329 120.664 19.0524 120.616 19.488H116.187C116.293 20.2625 116.874 20.6497 117.929 20.6497 118.404 20.6497 118.883 20.5965 119.367 20.49 119.851 20.3835 120.19 20.2819 120.384 20.1851V22.3487C119.764 22.6489 118.864 22.7989 117.683 22.7989 116.405 22.7989 115.388 22.4456 114.633 21.7388 113.878 21.0225 113.5 20.0979 113.5 18.9653 113.5 17.8617 113.859 16.9468 114.575 16.2207 115.291 15.4947 116.187 15.1316 117.261 15.1316zM118.249 18.2973C118.259 17.9585 118.176 17.6777 118.002 17.4551 117.828 17.2324 117.571 17.1211 117.232 17.1211 116.903 17.1211 116.647 17.2324 116.463 17.4551 116.279 17.6777 116.182 17.9585 116.172 18.2973H118.249zM115.809 14.4491L116.971 11.9369H120.224L118.06 14.4491H115.809zM121.434 15.3349H122.378V13.1567H124.89V15.3349H126.69V17.3389H124.89V19.822C124.89 20.3932 125.18 20.6788 125.761 20.6788 126.11 20.6788 126.497 20.582 126.923 20.3884V22.4794C126.477 22.6924 125.829 22.7989 124.977 22.7989 124.309 22.7989 123.738 22.6392 123.263 22.3197 122.799 22.0002 122.508 21.4968 122.392 20.8095 122.353 20.4997 122.334 20.2432 122.334 20.0399V17.3389H121.434V15.3349zM128.728 16.2207C129.474 15.4947 130.418 15.1316 131.56 15.1316 132.702 15.1316 133.641 15.4947 134.377 16.2207 135.123 16.9468 135.495 17.8617 135.495 18.9653 135.495 20.0689 135.123 20.9837 134.377 21.7098 133.641 22.4359 132.702 22.7989 131.56 22.7989 130.418 22.7989 129.474 22.4359 128.728 21.7098 127.993 20.9837 127.625 20.0689 127.625 18.9653 127.625 17.8617 127.993 16.9468 128.728 16.2207zM131.56 20.6497C131.986 20.6497 132.344 20.4949 132.635 20.1851 132.925 19.8753 133.07 19.4687 133.07 18.9653 133.07 18.4619 132.925 18.0553 132.635 17.7455 132.344 17.4357 131.986 17.2808 131.56 17.2808 131.124 17.2808 130.761 17.4357 130.471 17.7455 130.19 18.0553 130.05 18.4619 130.05 18.9653 130.05 19.4687 130.19 19.8753 130.471 20.1851 130.761 20.4949 131.124 20.6497 131.56 20.6497zM136.684 15.3349H139.284V22.5956H136.684V15.3349zM136.975 14.2458C136.723 14.0038 136.597 13.6747 136.597 13.2584 136.597 12.8421 136.723 12.5178 136.975 12.2855 137.227 12.0434 137.565 11.9224 137.991 11.9224 138.417 11.9224 138.751 12.0434 138.993 12.2855 139.245 12.5178 139.371 12.8421 139.371 13.2584 139.371 13.6747 139.245 14.0038 138.993 14.2458 138.751 14.4879 138.417 14.6089 137.991 14.6089 137.565 14.6089 137.227 14.4879 136.975 14.2458zM140.952 20.4029V12.1402H143.537V19.822C143.537 20.3545 143.759 20.6207 144.205 20.6207 144.437 20.6207 144.694 20.5578 144.974 20.4319V22.5666C144.616 22.7215 144.089 22.7989 143.392 22.7989 142.665 22.7989 142.075 22.6053 141.62 22.2181 141.175 21.8308 140.952 21.2258 140.952 20.4029zM149.254 15.1316C150.348 15.1316 151.19 15.4608 151.781 16.1191 152.381 16.7677 152.681 17.5712 152.681 18.5296 152.681 18.7329 152.657 19.0524 152.608 19.488H148.179C148.286 20.2625 148.867 20.6497 149.922 20.6497 150.396 20.6497 150.875 20.5965 151.359 20.49 151.843 20.3835 152.182 20.2819 152.376 20.1851V22.3487C151.756 22.6489 150.856 22.7989 149.675 22.7989 148.397 22.7989 147.381 22.4456 146.625 21.7388 145.87 21.0225 145.493 20.0979 145.493 18.9653 145.493 17.8617 145.851 16.9468 146.567 16.2207 147.284 15.4947 148.179 15.1316 149.254 15.1316zM150.241 18.2973C150.251 17.9585 150.169 17.6777 149.994 17.4551 149.82 17.2324 149.564 17.1211 149.225 17.1211 148.896 17.1211 148.639 17.2324 148.455 17.4551 148.271 17.6777 148.174 17.9585 148.165 18.2973H150.241zM147.802 14.4491L148.963 11.9369H152.216L150.052 14.4491H147.802zM157.223 15.1316C158.317 15.1316 159.159 15.4608 159.75 16.1191 160.35 16.7677 160.65 17.5712 160.65 18.5296 160.65 18.7329 160.626 19.0524 160.578 19.488H156.149C156.255 20.2625 156.836 20.6497 157.891 20.6497 158.366 20.6497 158.845 20.5965 159.329 20.49 159.813 20.3835 160.152 20.2819 160.345 20.1851V22.3487C159.726 22.6489 158.825 22.7989 157.644 22.7989 156.366 22.7989 155.35 22.4456 154.595 21.7388 153.84 21.0225 153.462 20.0979 153.462 18.9653 153.462 17.8617 153.82 16.9468 154.537 16.2207 155.253 15.4947 156.149 15.1316 157.223 15.1316zM158.211 18.2973C158.22 17.9585 158.138 17.6777 157.964 17.4551 157.79 17.2324 157.533 17.1211 157.194 17.1211 156.865 17.1211 156.608 17.2324 156.425 17.4551 156.241 17.6777 156.144 17.9585 156.134 18.2973H158.211z" fill="#fff"/>
</svg>
