<svg width="21" height="21" fill="none" xmlns="http://www.w3.org/2000/svg">
  <g clip-path="url(#clip0)">
    <path d="M18.914 2.49715L10.6768 0.0259629C10.5615 -0.0086543 10.4386 -0.0086543 10.3232 0.0259629L2.08588 2.49715C1.82567 2.57521 1.64746 2.81474 1.64746 3.08643V12.1474C1.64746 13.326 2.1246 14.5324 3.06553 15.7332C3.78417 16.6503 4.77843 17.5713 6.02059 18.4704C8.10734 19.981 10.1622 20.9076 10.2486 20.9463C10.3286 20.9821 10.4143 21 10.5 21C10.5857 21 10.6715 20.9821 10.7514 20.9463C10.8378 20.9076 12.8926 19.981 14.9794 18.4704C16.2215 17.5713 17.2158 16.6503 17.9344 15.7332C18.8754 14.5325 19.3524 13.326 19.3524 12.1474V3.08643C19.3524 2.81474 19.1743 2.57521 18.914 2.49715Z" fill="#6697C5"/>
  </g>
  <defs>
    <clipPath id="clip0">
      <path fill="#fff" d="M0 0H21V21H0z"/>
    </clipPath>
  </defs>
</svg>
