<svg width="20" height="20" fill="none" xmlns="http://www.w3.org/2000/svg">
  <path d="M19.775 14.5195L16.025 11.3945C15.8387 11.2383 15.5787 11.207 15.36 11.3083C15.14 11.412 15 11.632 15 11.8745V13.7495H13.75L6.625 4.24951C6.38875 3.93451 6.01875 3.74951 5.625 3.74951H0.625C0.28 3.74951 0 4.02951 0 4.37451V5.62451C0 5.96951 0.28 6.24951 0.625 6.24951H5L12.1263 15.7495C12.3612 16.0645 12.7325 16.2495 13.125 16.2495H15V18.1245C15 18.367 15.14 18.587 15.36 18.6908C15.4438 18.7295 15.535 18.7495 15.625 18.7495C15.7688 18.7495 15.9112 18.7008 16.025 18.6045L19.775 15.4795C19.9187 15.3608 20 15.1845 20 14.9995C20 14.8145 19.9187 14.6383 19.775 14.5195Z" fill="#6697C5"/>
  <path d="M19.775 4.51956L16.025 1.39456C15.8387 1.23956 15.5788 1.20706 15.36 1.30956 15.14 1.41081 15 1.63206 15 1.87456V3.74956H13.125C12.7313 3.74956 12.3612 3.93456 12.125 4.24956L10.1562 6.87456 11.7188 8.95831 13.75 6.24956H15V8.12456C15 8.36706 15.14 8.58831 15.36 8.69081 15.4437 8.72956 15.535 8.74956 15.625 8.74956 15.7688 8.74956 15.9112 8.69956 16.025 8.60456L19.775 5.47956C19.9187 5.36081 20 5.18456 20 4.99956 20 4.81456 19.9187 4.63831 19.775 4.51956zM7.03125 11.042L5 13.7495H.625C.28 13.7495 0 14.0295 0 14.3745V15.6245C0 15.9695.28 16.2495.625 16.2495H5.62375C6.0175 16.2495 6.38875 16.0645 6.625 15.7495L8.59375 13.1245 7.03125 11.042z" fill="#6697C5"/>
</svg>
