<svg width="18" height="19" fill="none" xmlns="http://www.w3.org/2000/svg">
  <g clip-path="url(#clip0)">
    <path d="M7.56629 9.82712C10.0394 9.82712 12.0443 7.71086 12.0443 5.10034C12.0443 2.48983 10.0394 0.373535 7.56629 0.373535C5.09315 0.373535 3.08826 2.4898 3.08826 5.10031C3.08826 7.71083 5.09315 9.82712 7.56629 9.82712ZM9.73371 6.96483C9.52997 7.67578 8.65735 8.21023 7.61153 8.21023C6.56568 8.21023 5.69306 7.67578 5.48938 6.96483H9.73371ZM17.8892 14.9492L13.7922 18.5534C13.673 18.6582 13.4858 18.6492 13.3761 18.5334L11.3362 16.38C11.2161 16.2532 11.2161 16.0457 11.3363 15.919L11.7729 15.458C11.893 15.3313 12.0896 15.3312 12.2097 15.458L13.6516 16.9797L17.0985 13.9476C17.229 13.8329 17.4247 13.8516 17.5335 13.9894L17.9288 14.4901C18.0375 14.6278 18.0197 14.8344 17.8892 14.9492ZM10.8558 16.8871L11.6327 17.7073C10.5724 17.8649 9.23582 17.9768 7.56632 17.9768C3.24859 17.9768 1.13562 17.2321 0.360971 16.8682C0.161088 16.7744 0 16.506 0 16.275V14.7169C0 12.3821 1.68412 10.4451 3.83309 10.1857C3.89838 10.1778 3.99524 10.2073 4.04844 10.248C5.03926 11.0052 6.25232 11.4571 7.56629 11.4571C8.88026 11.4571 10.0933 11.0052 11.0841 10.248C11.1374 10.2073 11.2342 10.1778 11.2995 10.1857C13.4485 10.4451 15.1326 12.3821 15.1326 14.7169V14.7433L13.6931 16.0094L12.6901 14.9509C12.5034 14.7538 12.2551 14.6453 11.9913 14.6453C11.7274 14.6453 11.4792 14.7538 11.2925 14.9509L10.8558 15.4119C10.4703 15.8187 10.4703 16.4803 10.8558 16.8871Z" fill="#6697C5"/>
  </g>
  <defs>
    <clipPath id="clip0">
      <path fill="#fff" d="M0 0H18V19H0z"/>
    </clipPath>
  </defs>
</svg>
