<svg width="29" height="29" fill="none" xmlns="http://www.w3.org/2000/svg">
  <path d="M14.5 0C6.5048 0 0 6.5048 0 14.5C0 22.4952 6.5048 29 14.5 29C17.0497 29 19.5569 28.3292 21.7518 27.0592L19.9375 23.9209C18.2932 24.8723 16.4125 25.375 14.5 25.375C8.5032 25.375 3.62498 20.4968 3.62498 14.5C3.62498 8.5032 8.5032 3.62498 14.5 3.62498C20.4968 3.62498 25.375 8.5032 25.375 14.5V16.0788C25.375 17.2648 24.613 18.125 23.5625 18.125C22.5633 18.125 21.75 17.3117 21.75 16.3125V9.06249H19.2444C17.9694 7.94857 16.322 7.24997 14.5 7.24997C10.5024 7.24997 7.24997 10.5024 7.24997 14.5C7.24997 18.4976 10.5024 21.75 14.5 21.75C16.4037 21.75 18.1248 20.9972 19.4198 19.7928C20.418 20.9791 21.8944 21.75 23.5625 21.75C26.6114 21.75 29 19.2588 29 16.0788V14.5C29 6.5048 22.4952 0 14.5 0V0ZM14.5 18.125C12.5007 18.125 10.875 16.4992 10.875 14.5C10.875 12.5007 12.5008 10.875 14.5 10.875C16.4993 10.875 18.125 12.5008 18.125 14.5C18.125 16.4993 16.4993 18.125 14.5 18.125Z" fill="#0257A6"/>
</svg>
