<svg width="61" height="60" fill="none" xmlns="http://www.w3.org/2000/svg">
  <path d="M8.84912 25.1157H20.2788C20.4684 25.1157 20.6502 25.0416 20.7842 24.9098 20.9183 24.7779 20.9936 24.5991 20.9936 24.4126 20.9936 24.2261 20.9183 24.0473 20.7842 23.9154 20.6502 23.7836 20.4684 23.7095 20.2788 23.7095H8.84912C8.65953 23.7095 8.47771 23.7836 8.34365 23.9154 8.20959 24.0473 8.13428 24.2261 8.13428 24.4126 8.13428 24.5991 8.20959 24.7779 8.34365 24.9098 8.47771 25.0416 8.65953 25.1157 8.84912 25.1157zM28.9934 35.0225H35.4808C35.6704 35.0225 35.8523 34.9484 35.9863 34.8165 36.1204 34.6847 36.1957 34.5058 36.1957 34.3193 36.1957 34.1329 36.1204 33.954 35.9863 33.8222 35.8523 33.6903 35.6704 33.6162 35.4808 33.6162H28.9934C28.8038 33.6162 28.622 33.6903 28.4879 33.8222 28.3539 33.954 28.2786 34.1329 28.2786 34.3193 28.2786 34.5058 28.3539 34.6847 28.4879 34.8165 28.622 34.9484 28.8038 35.0225 28.9934 35.0225zM8.84912 31.0215H20.2788C20.4684 31.0215 20.6502 30.9474 20.7842 30.8155 20.9183 30.6837 20.9936 30.5048 20.9936 30.3184 20.9936 30.1319 20.9183 29.953 20.7842 29.8212 20.6502 29.6893 20.4684 29.6152 20.2788 29.6152H8.84912C8.65953 29.6152 8.47771 29.6893 8.34365 29.8212 8.20959 29.953 8.13428 30.1319 8.13428 30.3184 8.13428 30.5048 8.20959 30.6837 8.34365 30.8155 8.47771 30.9474 8.65953 31.0215 8.84912 31.0215zM8.84912 36.9268H20.2788C20.4684 36.9268 20.6502 36.8527 20.7842 36.7208 20.9183 36.589 20.9936 36.4101 20.9936 36.2236 20.9936 36.0372 20.9183 35.8583 20.7842 35.7264 20.6502 35.5946 20.4684 35.5205 20.2788 35.5205H8.84912C8.65953 35.5205 8.47771 35.5946 8.34365 35.7264 8.20959 35.8583 8.13428 36.0372 8.13428 36.2236 8.13428 36.4101 8.20959 36.589 8.34365 36.7208 8.47771 36.8527 8.65953 36.9268 8.84912 36.9268zM8.84912 42.832H20.2788C20.4684 42.832 20.6502 42.758 20.7842 42.6261 20.9183 42.4942 20.9936 42.3154 20.9936 42.1289 20.9936 41.9424 20.9183 41.7636 20.7842 41.6317 20.6502 41.4999 20.4684 41.4258 20.2788 41.4258H8.84912C8.65953 41.4258 8.47771 41.4999 8.34365 41.6317 8.20959 41.7636 8.13428 41.9424 8.13428 42.1289 8.13428 42.3154 8.20959 42.4942 8.34365 42.6261 8.47771 42.758 8.65953 42.832 8.84912 42.832zM8.84912 48.7373H20.2788C20.4684 48.7373 20.6502 48.6632 20.7842 48.5314 20.9183 48.3995 20.9936 48.2207 20.9936 48.0342 20.9936 47.8477 20.9183 47.6689 20.7842 47.537 20.6502 47.4051 20.4684 47.3311 20.2788 47.3311H8.84912C8.65953 47.3311 8.47771 47.4051 8.34365 47.537 8.20959 47.6689 8.13428 47.8477 8.13428 48.0342 8.13428 48.2207 8.20959 48.3995 8.34365 48.5314 8.47771 48.6632 8.65953 48.7373 8.84912 48.7373zM28.9934 40.8091H35.4808C35.6704 40.8091 35.8523 40.735 35.9863 40.6031 36.1204 40.4713 36.1957 40.2924 36.1957 40.106 36.1957 39.9195 36.1204 39.7406 35.9863 39.6088 35.8523 39.4769 35.6704 39.4028 35.4808 39.4028H28.9934C28.8038 39.4028 28.622 39.4769 28.4879 39.6088 28.3539 39.7406 28.2786 39.9195 28.2786 40.106 28.2786 40.2924 28.3539 40.4713 28.4879 40.6031 28.622 40.735 28.8038 40.8091 28.9934 40.8091zM29.5658 45.189H28.9939C28.8043 45.189 28.6225 45.263 28.4884 45.3949 28.3544 45.5268 28.2791 45.7056 28.2791 45.8921 28.2791 46.0786 28.3544 46.2574 28.4884 46.3893 28.6225 46.5211 28.8043 46.5952 28.9939 46.5952H29.5658C29.7554 46.5952 29.9372 46.5211 30.0712 46.3893 30.2053 46.2574 30.2806 46.0786 30.2806 45.8921 30.2806 45.7056 30.2053 45.5268 30.0712 45.3949 29.9372 45.263 29.7554 45.189 29.5658 45.189zM28.9934 29.2363H35.4808C35.6704 29.2363 35.8523 29.1622 35.9863 29.0304 36.1204 28.8985 36.1957 28.7197 36.1957 28.5332 36.1957 28.3467 36.1204 28.1679 35.9863 28.036 35.8523 27.9042 35.6704 27.8301 35.4808 27.8301H28.9934C28.8038 27.8301 28.622 27.9042 28.4879 28.036 28.3539 28.1679 28.2786 28.3467 28.2786 28.5332 28.2786 28.7197 28.3539 28.8985 28.4879 29.0304 28.622 29.1622 28.8038 29.2363 28.9934 29.2363zM28.9934 23.4502H35.4808C35.6704 23.4502 35.8523 23.3761 35.9863 23.2443 36.1204 23.1124 36.1957 22.9336 36.1957 22.7471 36.1957 22.5606 36.1204 22.3817 35.9863 22.2499 35.8523 22.118 35.6704 22.0439 35.4808 22.0439H28.9934C28.8038 22.0439 28.622 22.118 28.4879 22.2499 28.3539 22.3817 28.2786 22.5606 28.2786 22.7471 28.2786 22.9336 28.3539 23.1124 28.4879 23.2443 28.622 23.3761 28.8038 23.4502 28.9934 23.4502zM8.84912 19.2104H20.2788C20.4684 19.2104 20.6502 19.1364 20.7842 19.0045 20.9183 18.8726 20.9936 18.6938 20.9936 18.5073 20.9936 18.3208 20.9183 18.142 20.7842 18.0101 20.6502 17.8783 20.4684 17.8042 20.2788 17.8042H8.84912C8.65953 17.8042 8.47771 17.8783 8.34365 18.0101 8.20959 18.142 8.13428 18.3208 8.13428 18.5073 8.13428 18.6938 8.20959 18.8726 8.34365 19.0045 8.47771 19.1364 8.65953 19.2104 8.84912 19.2104z" fill="#0257A6"/>
  <path d="M51.0906 41.8575H48.8678C48.6389 41.8573 48.4196 41.7677 48.2578 41.6086C48.096 41.4494 48.005 41.2337 48.0047 41.0086C48.0046 40.9303 47.9911 40.8527 47.9649 40.7788V39.0082C48.6179 38.4593 49.1422 37.7777 49.5017 37.0103C49.8612 36.243 50.0473 35.4081 50.0472 34.5632V31.0407C50.0454 29.4873 49.4173 27.998 48.3005 26.8995C47.1837 25.801 45.6696 25.1831 44.0902 25.1814H44.0254C42.9474 25.1803 41.8896 25.4688 40.966 26.0156V16.8922C40.966 16.7057 40.8907 16.5269 40.7566 16.395C40.6226 16.2632 40.4407 16.1891 40.2511 16.1891H26.0872V11.8711C26.0872 11.6846 26.0119 11.5058 25.8779 11.3739C25.7438 11.242 25.562 11.168 25.3724 11.168H23.0419V6.03621C23.0419 5.84973 22.9666 5.67089 22.8325 5.53903C22.6984 5.40716 22.5166 5.33309 22.327 5.33309H15.3406V1.875C15.3406 1.68852 15.2653 1.50968 15.1312 1.37782C14.9972 1.24595 14.8154 1.17188 14.6258 1.17188C14.4362 1.17188 14.2544 1.24595 14.1203 1.37782C13.9862 1.50968 13.9109 1.68852 13.9109 1.875V5.33309H6.80109C6.61151 5.33309 6.42968 5.40716 6.29562 5.53903C6.16156 5.67089 6.08625 5.84973 6.08625 6.03621V11.168H3.75586C3.56627 11.168 3.38445 11.242 3.25039 11.3739C3.11633 11.5058 3.04102 11.6846 3.04102 11.8711V53.7705C3.04102 53.957 3.11633 54.1359 3.25039 54.2677C3.38445 54.3996 3.56627 54.4737 3.75586 54.4737H30.1565V58.125C30.1565 58.3115 30.2318 58.4903 30.3658 58.6222C30.4999 58.754 30.6817 58.8281 30.8713 58.8281H57.2443C57.4339 58.8281 57.6157 58.754 57.7498 58.6222C57.8838 58.4903 57.9591 58.3115 57.9591 58.125V48.6135C57.9571 46.8223 57.2328 45.1051 55.9451 43.8385C54.6574 42.572 52.9116 41.8595 51.0906 41.8575ZM7.51594 6.73934H21.6122V11.168H7.51594V6.73934ZM24.6575 53.0674H4.4707V12.5742H24.6575V53.0674ZM44.0902 26.5876C45.2905 26.589 46.4413 27.0585 47.29 27.8934C48.1388 28.7282 48.6162 29.8601 48.6176 31.0407V34.5632C48.6162 35.7438 48.1388 36.8757 47.29 37.7105C46.4413 38.5454 45.2905 39.015 44.0902 39.0163H44.0254C42.8251 39.015 41.6743 38.5454 40.8256 37.7105C39.9768 36.8757 39.4994 35.7438 39.4981 34.5632V31.0407C39.4994 29.8601 39.9768 28.7282 40.8256 27.8934C41.6743 27.0585 42.8251 26.589 44.0254 26.5876H44.0902ZM43.9973 45.8578H44.2811L45.5268 52.9059L44.0376 54.6169L42.5938 52.9177L43.9973 45.8578ZM43.3003 43.2637H44.8153L44.4015 44.4516H43.7141L43.3003 43.2637ZM42.6204 41.8575L41.5921 40.7215V39.9096C42.3569 40.2482 43.1862 40.423 44.0249 40.4225H44.0897C44.933 40.423 45.7666 40.2463 46.5347 39.9042V40.9107L45.5286 41.8575H42.6204ZM26.0872 53.0674V17.5954H39.5363V27.1955C38.5892 28.2598 38.0676 29.6263 38.0684 31.0407V34.5632C38.0683 35.4107 38.2556 36.2482 38.6173 37.0175C38.9789 37.7868 39.5063 38.4696 40.1629 39.0185V40.8466C40.1498 40.8998 40.1431 40.9542 40.143 41.0088C40.1427 41.2339 40.0517 41.4497 39.8899 41.6088C39.7281 41.768 39.5087 41.8575 39.2799 41.8577H37.0251C35.204 41.8598 33.4582 42.5722 32.1705 43.8387C30.8828 45.1053 30.1585 46.8225 30.1565 48.6137V53.0677L26.0872 53.0674ZM56.5294 57.4219H31.5862V48.6135C31.5877 47.1951 32.1612 45.8353 33.1809 44.8323C34.2005 43.8294 35.583 43.2653 37.0251 43.2637H39.2799C39.642 43.2634 39.9988 43.1786 40.3211 43.0163C40.6434 42.8539 40.922 42.6187 41.1339 42.3299L41.67 42.9224L42.6191 45.4622L41.1252 52.9767C41.1047 53.0794 41.1079 53.1853 41.1344 53.2867C41.1608 53.3881 41.21 53.4824 41.2783 53.5627L43.4824 56.1568C43.549 56.2352 43.6322 56.2984 43.7262 56.342C43.8202 56.3855 43.9227 56.4084 44.0266 56.409H44.0309C44.1341 56.409 44.236 56.387 44.3298 56.3445C44.4235 56.302 44.5067 56.2401 44.5738 56.1629L46.832 53.5687C46.9005 53.4901 46.9504 53.3975 46.9783 53.2976C47.0061 53.1977 47.0112 53.093 46.9932 52.991L45.6261 45.2578L46.4362 42.95L47.0478 42.3746C47.2537 42.6411 47.5174 42.859 47.8197 43.0125C48.122 43.1661 48.4554 43.2514 48.7954 43.2622C48.8088 43.263 48.8225 43.2634 48.8361 43.2634H51.0909C52.5329 43.2649 53.9154 43.829 54.9351 44.832C55.9547 45.8349 56.5283 47.1948 56.5298 48.6131L56.5294 57.4219Z" fill="#0257A6"/>
  <path d="M52.7175 48.3765H49.3323C49.1427 48.3765 48.9609 48.4505 48.8268 48.5824C48.6927 48.7143 48.6174 48.8931 48.6174 49.0796C48.6174 49.2661 48.6927 49.4449 48.8268 49.5768C48.9609 49.7086 49.1427 49.7827 49.3323 49.7827H52.7175C52.9071 49.7827 53.0889 49.7086 53.223 49.5768C53.3571 49.4449 53.4324 49.2661 53.4324 49.0796C53.4324 48.8931 53.3571 48.7143 53.223 48.5824C53.0889 48.4505 52.9071 48.3765 52.7175 48.3765Z" fill="#0257A6"/>
</svg>
