<svg width="21" height="21" viewBox="0 0 21 21" fill="none" xmlns="http://www.w3.org/2000/svg">
<g clip-path="url(#clip0)">
<path d="M21 10.5L18.6227 7.86057L18.9949 4.32707L15.5187 3.59113L13.7455 0.510742L10.5 1.96118L7.25455 0.510742L5.48133 3.59113L2.00512 4.32707L2.3773 7.86057L0 10.5L2.37725 13.1394L2.00508 16.6729L5.48129 17.4088L7.25451 20.4892L10.5 19.0387L13.7454 20.4892L15.5187 17.4088L18.9949 16.6729L18.6227 13.1394L21 10.5ZM14.9019 8.20092L9.63127 14.1058L5.96878 10.4434L6.83991 9.57223L9.58039 12.3127L13.9828 7.38055L14.9019 8.20092Z" fill="#6697C5"/>
</g>
<defs>
<clipPath id="clip0">
<rect width="21" height="21" fill="white"/>
</clipPath>
</defs>
</svg>
