<svg width="56" height="56" fill="none" xmlns="http://www.w3.org/2000/svg">
  <g clip-path="url(#clip0)" fill="#0257A6">
    <path d="M55.5391 7.0676C55.5059 7.03632 48.9279 0.763117 48.9279 0.763117C48.6765 0.521836 48.4164 0.272461 47.9308 0.272461H21.4489C20.6754 0.272461 20.0461 0.901695 20.0461 1.6752V5.98271L10.7125 7.58265C9.96441 7.7139 9.46129 8.42987 9.5909 9.17723L10.0646 11.9392C7.03087 12.9601 3.9162 14.0125 0.909369 15.0926C0.198869 15.3523 -0.173991 16.1423 0.0795407 16.8571L6.06071 33.4839C6.18102 33.8184 6.49635 34.0268 6.83268 34.0268C6.92477 34.0268 7.01862 34.0112 7.11027 33.9781C7.53662 33.8248 7.75788 33.3549 7.60454 32.9286L1.71185 16.5477C4.54467 15.5334 7.47832 14.5408 10.3454 13.5757L13.1641 30.0088L16.4075 48.9342C16.5246 49.6022 17.1119 50.0776 17.7747 50.0776C17.8497 50.0776 17.9258 50.0714 18.0022 50.0589L26.7867 48.5514L33.6511 47.3747L23.3271 51.0855L15.1858 54.0127L8.86301 36.4264C8.70977 36 8.24001 35.7788 7.81356 35.932C7.38721 36.0852 7.16595 36.5551 7.31918 36.9814L13.7316 54.8177C13.9367 55.3785 14.468 55.7272 15.0297 55.7272C15.1849 55.7272 15.3425 55.7005 15.4961 55.6444L23.8819 52.6294L42.9235 45.7854L46.5612 45.1618H54.5971C55.3706 45.1618 55.9999 44.5312 55.9999 43.7559V7.99193C56 7.50095 55.7336 7.25048 55.5391 7.0676ZM53.3657 7.26185H49.2609L49.1592 7.26229C48.9626 7.2636 48.5025 7.26699 48.3858 7.15106C48.3589 7.12426 48.3274 7.03479 48.3274 6.86865L48.3179 2.44826L53.3657 7.26185ZM54.3594 43.521H21.6867V27.534C21.6867 27.0809 21.3194 26.7136 20.8664 26.7136C20.4133 26.7136 20.0461 27.0809 20.0461 27.534V43.7557C20.0461 44.5308 20.6754 45.1616 21.4489 45.1616H36.8502L26.5094 46.9341L17.9801 48.3979L14.7811 29.7314L11.2516 9.1547L20.0459 7.64718V23.7277C20.0459 24.1807 20.4132 24.548 20.8663 24.548C21.3193 24.548 21.6866 24.1807 21.6866 23.7277V1.91298H46.676L46.6867 6.87051C46.6867 7.47141 46.8695 7.95748 47.2299 8.31535C47.7837 8.86518 48.5665 8.90346 49.0524 8.90346C49.0942 8.90346 49.1338 8.90313 49.1709 8.90291L54.3594 8.90259V43.521Z"/>
    <path d="M25.6406 13.0098C25.6406 13.4628 26.0079 13.8301 26.4609 13.8301H49.9149C50.3679 13.8301 50.7352 13.4628 50.7352 13.0098 50.7352 12.5567 50.3679 12.1895 49.9149 12.1895H26.4609C26.0079 12.1895 25.6406 12.5567 25.6406 13.0098zM49.9149 18.0171H26.4609C26.0079 18.0171 25.6406 18.3844 25.6406 18.8374 25.6406 19.2904 26.0079 19.6577 26.4609 19.6577H49.9149C50.3679 19.6577 50.7352 19.2904 50.7352 18.8374 50.7352 18.3844 50.3679 18.0171 49.9149 18.0171zM49.9149 23.8452H26.4609C26.0079 23.8452 25.6406 24.2125 25.6406 24.6655 25.6406 25.1186 26.0079 25.4858 26.4609 25.4858H49.9149C50.3679 25.4858 50.7352 25.1186 50.7352 24.6655 50.7352 24.2125 50.3679 23.8452 49.9149 23.8452zM49.9149 29.6729H26.4609C26.0079 29.6729 25.6406 30.0401 25.6406 30.4932 25.6406 30.9462 26.0079 31.3135 26.4609 31.3135H49.9149C50.3679 31.3135 50.7352 30.9462 50.7352 30.4932 50.7352 30.0401 50.3679 29.6729 49.9149 29.6729zM49.9149 35.5005H26.4609C26.0079 35.5005 25.6406 35.8678 25.6406 36.3208 25.6406 36.7738 26.0079 37.1411 26.4609 37.1411H49.9149C50.3679 37.1411 50.7352 36.7738 50.7352 36.3208 50.7352 35.8678 50.3679 35.5005 49.9149 35.5005z"/>
  </g>
  <defs>
    <clipPath id="clip0">
      <path fill="#fff" d="M0 0H56V56H0z"/>
    </clipPath>
  </defs>
</svg>
