<svg width="85" height="116" fill="none" xmlns="http://www.w3.org/2000/svg">
  <g clip-path="url(#clip0)" fill="#0257A6">
    <path d="M.0992243 92.4092C.0914358 92.0351.160641 91.6635.302566 91.3172.444492 90.9708.656126 90.6572.924403 90.3956 1.19732 90.1214 1.52401 89.9063 1.88406 89.7636 2.24411 89.621 2.62981 89.5539 3.01706 89.5664 3.55551 89.557 4.0881 89.6789 4.56839 89.9218V91.3629C4.13865 91.1375 3.66105 91.0179 3.17549 91.0141 2.97552 91.0036 2.77554 91.0344 2.58809 91.1046 2.40064 91.1748 2.22979 91.2829 2.08625 91.4221 1.9581 91.5521 1.85756 91.7065 1.79064 91.8761 1.72372 92.0457 1.69179 92.227 1.69677 92.4092 1.68582 92.7737 1.81853 93.128 2.06645 93.3962 2.19805 93.5325 2.35757 93.6389 2.53414 93.7082 2.71072 93.7775 2.9002 93.808 3.08967 93.7977 3.62122 93.8019 4.14616 93.6801 4.6212 93.4423V94.8966C4.09923 95.14 3.52701 95.2572 2.95104 95.2388 2.57451 95.249 2.19994 95.1812 1.85108 95.0396 1.50221 94.898 1.18665 94.6857.924403 94.4162.65788 94.1547.447338 93.842.305506 93.497.163674 93.152.0934994 92.782.0992243 92.4092zM5.80933 95.1268V89.6782H9.46652V90.9943H7.39367V91.7182H9.16945V92.9684H7.39367V93.7778H9.57874V95.0939L5.80933 95.1268zM15.1832 95.1269H13.5329L12.7341 93.4423H12.2852V95.1335H10.7339V89.6849H12.7935C13.3902 89.6564 13.979 89.8303 14.4637 90.1784 14.6733 90.3489 14.839 90.5668 14.947 90.8141 15.0549 91.0613 15.102 91.3307 15.0842 91.5998 15.1049 91.9306 15.0237 92.2597 14.8514 92.5432 14.6792 92.8266 14.4241 93.0508 14.1204 93.1857L15.1832 95.1269zM12.8727 91.0142H12.2852V92.1789H12.8727C13.282 92.1789 13.4801 91.9815 13.4801 91.5932 13.4873 91.5121 13.4762 91.4305 13.4476 91.3542 13.4191 91.2779 13.3738 91.2089 13.315 91.1524 13.1879 91.0571 13.0317 91.0083 12.8727 91.0142zM15.9028 89.6782H20.2928V90.9943H18.8999V95.1071H17.3023V90.9943H15.9028V89.6782zM22.92 89.6782V95.1268H21.3357V89.6782H22.92zM24.3528 95.1268V89.6782H27.8251V90.9943H25.9437V91.8037H27.5281V93.1198H25.9437V95.1268H24.3528zM30.525 89.6782V95.1268H28.9407V89.6782H30.525zM31.9641 95.1268V89.6782H35.6477V90.9943H33.5485V91.7181H35.3242V92.9684H33.5485V93.7778H35.7335V95.0939L31.9641 95.1268zM33.6211 87.6777H35.4893L34.268 89.2307H33.0533L33.6211 87.6777zM36.8887 95.1268V89.6782H40.5459V90.9943H38.473V91.7182H40.2686V92.9684H38.473V93.7778H40.6581V95.0939L36.8887 95.1268zM43.9325 92.4091C43.9247 92.0351 43.9939 91.6635 44.1358 91.3171 44.2777 90.9708 44.4894 90.6571 44.7577 90.3955 45.0329 90.1189 45.3628 89.9023 45.7264 89.7596 46.0901 89.6168 46.4796 89.5511 46.8701 89.5664 47.4086 89.5569 47.9412 89.6789 48.4214 89.9217V91.3628C47.9917 91.1375 47.5141 91.0179 47.0285 91.0141 46.8286 91.0036 46.6286 91.0344 46.4411 91.1046 46.2537 91.1748 46.0828 91.2829 45.9393 91.4221 45.6944 91.6929 45.5588 92.0445 45.5588 92.4091 45.5588 92.7737 45.6944 93.1254 45.9393 93.3962 46.0709 93.5325 46.2304 93.6389 46.407 93.7081 46.5836 93.7774 46.7731 93.8079 46.9625 93.7976 47.4891 93.8018 48.0092 93.6823 48.4809 93.4488V94.9031C47.9589 95.1465 47.3867 95.2638 46.8107 95.2453 46.4342 95.2556 46.0596 95.1877 45.7107 95.0462 45.3619 94.9046 45.0463 94.6923 44.7841 94.4228 44.5119 94.1627 44.296 93.8499 44.1496 93.5036 44.0032 93.1574 43.9293 92.7849 43.9325 92.4091zM53.0822 95.1267L52.739 94.4094H51.0754L50.7453 95.1267H49.095L51.8742 89.6057H51.9468L54.726 95.1267H53.0822zM51.9072 92.3695C51.8003 92.7156 51.6701 93.0542 51.5177 93.3829H52.3033C52.1507 93.055 52.0228 92.7162 51.9204 92.3695H51.9072zM57.4854 89.6783C58.0906 89.6474 58.6884 89.8213 59.182 90.1718 59.3997 90.3374 59.5736 90.5534 59.6886 90.801 59.8036 91.0487 59.8563 91.3207 59.8421 91.5932 59.8568 91.8677 59.8044 92.1417 59.6894 92.3916 59.5744 92.6415 59.4003 92.8598 59.182 93.0278 58.6854 93.3708 58.0887 93.5398 57.4854 93.5081H57.2015V95.1269H55.6172V89.6783H57.4854zM57.5712 90.9944H57.2015V92.1591H57.5712C58.0003 92.1591 58.2313 91.9617 58.2313 91.5735 58.2384 91.4912 58.226 91.4084 58.195 91.3318 58.164 91.2552 58.1154 91.187 58.0531 91.1326 57.9105 91.0399 57.7407 90.9982 57.5712 91.0141V90.9944zM62.4034 89.6782V95.1268H60.8191V89.6782H62.4034zM63.4463 89.6782H67.8296V90.9943H66.4367V95.1071H64.8392V90.9943H63.4463V89.6782zM72.3122 95.1267L71.9689 94.4094H70.3054L69.9753 95.1267H68.325L71.1041 89.6057H71.1768L73.956 95.1267H72.3122zM71.1306 92.3695C71.0302 92.7169 70.9022 93.0558 70.7477 93.3829H71.5332C71.3807 93.055 71.2527 92.7162 71.1504 92.3695H71.1306zM78.2995 95.1268H74.8469V89.6782H76.4313V93.7976H78.2995V95.1268zM78.1939 112.644H.158447V116H78.1939V112.644zM6.10641 106.136H3.88173L2.7991 103.846H2.19837V106.136H.105713V98.7854H2.87831C3.68179 98.7443 4.47547 98.9763 5.1294 99.4435 5.41334 99.6752 5.63802 99.9708 5.78492 100.306 5.93183 100.641 5.99676 101.006 5.97438 101.372 6.00029 101.819 5.88751 102.264 5.65132 102.645 5.41514 103.026 5.06699 103.326 4.6541 103.504L6.10641 106.136zM2.99054 100.582H2.19837V102.155H2.99054C3.53846 102.155 3.80911 101.891 3.80911 101.372 3.81969 101.261 3.80498 101.15 3.7661 101.046 3.72721 100.943 3.66517 100.849 3.58467 100.773 3.41508 100.642 3.20487 100.574 2.99054 100.582zM7.61157 106.136V98.7856H12.5428V100.582H9.75043V101.563H12.1402V103.247H9.75043V104.34H12.6947V106.136H7.61157zM17.2167 101.694C17.56 101.839 17.8372 101.97 18.0551 102.089 18.2909 102.213 18.5123 102.363 18.7152 102.536 18.9223 102.713 19.0812 102.94 19.1773 103.194 19.2796 103.47 19.3288 103.762 19.3226 104.056 19.3372 104.373 19.2752 104.688 19.142 104.975 19.0087 105.263 18.808 105.514 18.5568 105.708 17.9081 106.138 17.1358 106.344 16.3585 106.294 15.5885 106.315 14.8223 106.178 14.1074 105.892V103.852C14.7578 104.228 15.4946 104.43 16.2463 104.438 16.9064 104.438 17.2365 104.313 17.2365 104.056 17.2363 103.993 17.218 103.932 17.1837 103.879 17.1225 103.81 17.0485 103.754 16.9659 103.714 16.8695 103.663 16.7704 103.616 16.6688 103.576L16.2331 103.405 15.969 103.306C15.4042 103.112 14.8837 102.808 14.4375 102.411 14.2609 102.213 14.126 101.982 14.0409 101.731 13.9559 101.48 13.9224 101.215 13.9424 100.95 13.9323 100.629 13.9982 100.31 14.1346 100.018 14.2711 99.7266 14.4743 99.4712 14.728 99.2724 15.3301 98.8172 16.0721 98.5846 16.8272 98.6144 17.5038 98.6011 18.1766 98.7196 18.8077 98.9631V100.937C18.2612 100.602 17.6268 100.437 16.9857 100.463 16.7417 100.452 16.4983 100.495 16.2727 100.588 16.1989 100.613 16.1345 100.66 16.0884 100.722 16.0423 100.785 16.0167 100.86 16.0152 100.937 16.0152 101.056 16.1011 101.168 16.2727 101.266 16.5799 101.425 16.895 101.567 17.2167 101.694zM23.3296 98.7856C24.1431 98.7462 24.9467 98.9777 25.6137 99.4436 25.8796 99.6899 26.0917 99.9883 26.2368 100.32 26.3818 100.652 26.4567 101.01 26.4567 101.372 26.4567 101.734 26.3818 102.092 26.2368 102.423 26.0917 102.755 25.8796 103.053 25.6137 103.3 24.9469 103.766 24.1432 103.998 23.3296 103.958H22.9467V106.142H20.8079V98.7856H23.3296zM23.4418 100.582H22.9467V102.155H23.4418C24.0162 102.155 24.3066 101.892 24.3066 101.372 24.3174 101.26 24.3008 101.147 24.2583 101.042 24.2158 100.938 24.1485 100.846 24.0624 100.773 23.8829 100.642 23.6643 100.574 23.4418 100.582zM27.4422 102.464C27.4321 101.96 27.5252 101.459 27.7159 100.991 27.9066 100.524 28.1908 100.1 28.5513 99.7464 29.316 99.0316 30.325 98.6338 31.3734 98.6338 32.4217 98.6338 33.4307 99.0316 34.1955 99.7464 34.9107 100.471 35.3115 101.447 35.3115 102.464 35.3115 103.481 34.9107 104.457 34.1955 105.182 33.4285 105.892 32.4203 106.287 31.3734 106.287 30.3264 106.287 29.3182 105.892 28.5513 105.182 28.1892 104.829 27.9039 104.405 27.7131 103.938 27.5223 103.47 27.4301 102.969 27.4422 102.464zM29.5877 102.464C29.5785 102.951 29.7582 103.422 30.0894 103.78 30.2526 103.956 30.4506 104.097 30.671 104.193 30.8914 104.289 31.1294 104.339 31.3701 104.339 31.6107 104.339 31.8487 104.289 32.0691 104.193 32.2895 104.097 32.4875 103.956 32.6507 103.78 32.9755 103.418 33.155 102.95 33.155 102.464 33.155 101.978 32.9755 101.51 32.6507 101.148 32.4886 100.97 32.2909 100.828 32.0704 100.73 31.8498 100.633 31.6113 100.583 31.3701 100.583 31.1289 100.583 30.8903 100.633 30.6698 100.73 30.4492 100.828 30.2515 100.97 30.0894 101.148 29.7582 101.506 29.5785 101.977 29.5877 102.464zM43.1867 106.235L38.9486 102.839V106.13H36.8625V98.7068H36.9682L41.1799 102.102V98.8121H43.2791V106.261L43.1867 106.235zM48.1906 101.694C48.5273 101.839 48.8111 101.97 49.029 102.089 49.2638 102.215 49.485 102.365 49.6891 102.536 49.8921 102.716 50.0484 102.942 50.1446 103.194 50.2491 103.47 50.3006 103.762 50.2965 104.056 50.3077 104.373 50.2422 104.688 50.1055 104.975 49.9687 105.261 49.7648 105.51 49.5109 105.702 48.8594 106.131 48.0853 106.336 47.306 106.287 46.536 106.309 45.7698 106.172 45.0549 105.886V103.846C45.706 104.22 46.4423 104.422 47.1938 104.432 47.8539 104.432 48.1906 104.307 48.1906 104.05 48.1911 103.986 48.1702 103.923 48.1312 103.872 48.0728 103.804 48.0009 103.748 47.9199 103.708 47.8236 103.656 47.7244 103.61 47.6229 103.57L47.1872 103.398 46.9165 103.3C46.3536 103.105 45.8352 102.801 45.3916 102.405 45.2138 102.207 45.0777 101.976 44.9915 101.725 44.9053 101.474 44.8708 101.209 44.8899 100.944 44.8782 100.622 44.9434 100.302 45.0799 100.011 45.2165 99.7189 45.4206 99.4637 45.6755 99.2659 46.2766 98.8088 47.0193 98.5759 47.7747 98.6079 48.4513 98.5951 49.1239 98.7136 49.7551 98.9566V100.931C49.2079 100.597 48.5741 100.433 47.9332 100.457 47.6891 100.445 47.4454 100.487 47.2202 100.582 47.1451 100.605 47.0793 100.652 47.032 100.714 46.9846 100.777 46.9581 100.852 46.9561 100.931 46.9561 101.049 47.042 101.161 47.2202 101.26 47.5345 101.424 47.8586 101.569 48.1906 101.694zM56.4092 106.136L55.9471 105.162H53.7092L53.2603 106.136H51.0356L54.7919 98.7068H54.8909L58.6339 106.156 56.4092 106.136zM54.8249 102.412C54.6809 102.876 54.5067 103.331 54.3034 103.774H55.3662C55.1545 103.335 54.9801 102.879 54.8447 102.412H54.8249zM59.8289 106.136V98.7855H62.3308C63.0963 98.754 63.8554 98.9364 64.5225 99.3119 64.7914 99.4772 65.0107 99.7118 65.157 99.9909 65.3034 100.27 65.3716 100.583 65.3543 100.898 65.3659 101.214 65.2705 101.524 65.0836 101.78 64.9115 102.001 64.6838 102.174 64.4235 102.28 64.7605 102.377 65.0569 102.58 65.2684 102.859 65.517 103.155 65.6485 103.532 65.6381 103.918 65.6592 104.247 65.592 104.575 65.4434 104.868 65.2949 105.162 65.0704 105.411 64.7931 105.59 64.0957 105.987 63.2983 106.177 62.4958 106.136H59.8289zM62.4694 100.483H61.8753V101.733H62.4694C62.9843 101.733 63.2352 101.53 63.2352 101.115 63.2352 100.7 62.9711 100.483 62.4562 100.483H62.4694zM62.6213 103.115H61.8621V104.471H62.6081C62.8153 104.478 63.0199 104.423 63.1956 104.313 63.2742 104.254 63.3366 104.176 63.377 104.086 63.4174 103.996 63.4344 103.898 63.4266 103.8 63.435 103.701 63.4182 103.601 63.3778 103.51 63.3374 103.42 63.2748 103.34 63.1956 103.28 63.0258 103.154 62.82 103.084 62.6081 103.082L62.6213 103.115zM71.85 106.136H67.229V98.7856H69.3151V104.34H71.8302L71.85 106.136zM73.2759 106.136V98.7856H78.2072V100.582H75.4147V101.563H77.8111V103.247H75.4147V104.34H78.3656V106.136H73.2759zM69.888 63.5255C72.9825 59.6822 75.3107 55.2841 76.7469 50.5686 76.9647 49.8711 77.1562 49.1735 77.3344 48.4628 79.7504 38.7531 78.3325 28.4892 73.3736 19.7919 70.9507 15.5739 67.7684 11.8374 63.9863 8.76963 59.4228 5.07075 54.0833 2.44204 48.3629 1.07799 42.6426-.286061 36.6877-.350538 30.939.889328 25.1902 2.12919 19.7947 4.64167 15.1517 8.24087 10.5086 11.8401 6.73679 16.4339 4.11532 21.6824 1.49385 26.9309.0897986 32.6998.00705649 38.5623-.0756856 44.4248 1.165 50.2308 3.63731 55.5507 6.10962 60.8707 9.75028 65.5684 14.2899 69.2964 18.8296 73.0244 24.1521 75.6872 29.8635 77.0878 30.8532 77.341 31.8559 77.5409 32.8672 77.6866 38.7623 78.6701 44.8057 78.2827 50.526 76.5547L50.8627 76.4495 51.7473 76.1599 52.0509 76.048C54.7666 75.1159 57.3702 73.8866 59.8142 72.3827 59.9 72.3301 59.9859 72.284 60.0717 72.2248 60.4678 71.9813 60.8506 71.7181 61.2401 71.4615L61.9597 70.9679 62.3426 70.685C62.7717 70.3757 63.2007 70.0664 63.6628 69.7308 63.9665 69.4939 64.2372 69.257 64.5078 69.0201L64.7521 68.8161 64.8115 68.7635C65.7357 67.9804 66.5939 67.1908 67.353 66.4143 67.4521 66.309 67.5511 66.1971 67.6567 66.0919 68.5017 65.2101 69.2741 64.348 69.9276 63.5452L69.888 63.5255zM72.852 51.3253C72.7002 51.7596 72.489 52.1676 72.3173 52.5954 72.0071 53.3521 71.7166 54.1154 71.3535 54.8459 71.1159 55.3262 70.8254 55.7869 70.5613 56.2607 70.2115 56.9187 69.9012 57.5768 69.4853 58.1624 69.1684 58.6625 68.8252 59.1232 68.4555 59.6101 68.0858 60.0971 67.6963 60.7222 67.2738 61.2552L61.6098 66.8947 61.5042 66.9802C60.7516 67.5856 59.966 68.1515 59.1673 68.6845 58.9494 68.8359 58.7184 68.9675 58.5071 69.1123 57.9658 69.461 57.4179 69.7703 56.8568 70.1125 56.4673 70.3297 56.0712 70.5336 55.6751 70.7705 55.279 71.0074 54.8301 71.2048 54.401 71.4286 53.972 71.6523 53.5231 71.8234 53.0808 72.0077L52.4206 72.2643C52.2288 71.5227 52.1312 70.7599 52.1301 69.994 52.1335 69.9656 52.1335 69.9369 52.1301 69.9085 52.1442 68.9674 52.3252 68.0361 52.6649 67.1579 53.4085 65.2475 54.8329 63.6777 56.6653 62.749L60.7846 60.538 57.4311 57.2477C55.3843 55.3483 53.9388 52.8942 53.2722 50.1869 53.0518 49.2005 52.9674 48.1888 53.0213 47.1797 53.0213 47.0349 53.0213 46.8901 53.0213 46.7454 53.3204 44.4758 53.9151 42.2548 54.7905 40.1386 57.8648 31.949 62.2085 24.2906 67.6633 17.4427 67.7293 17.5348 67.8019 17.6203 67.8746 17.7125 68.033 17.923 68.1914 18.1468 68.3433 18.3705 68.6139 18.7324 68.8714 19.1075 69.1222 19.4826 69.2741 19.7063 69.4193 19.9366 69.5645 20.1406 69.8022 20.5223 70.0332 20.904 70.2577 21.2856 70.3963 21.5225 70.5283 21.7594 70.6604 21.9963 70.8782 22.3911 71.0829 22.786 71.2875 23.1874 71.4063 23.4243 71.5252 23.6546 71.6308 23.8915 71.8354 24.3126 72.0203 24.7469 72.2051 25.1747 72.2975 25.3918 72.3965 25.609 72.489 25.8327 72.687 26.3262 72.8718 26.8264 73.0435 27.3265 73.1029 27.491 73.1689 27.6489 73.2217 27.8134 73.4462 28.4846 73.6508 29.1624 73.8356 29.8468 73.8356 29.9192 73.8687 29.9981 73.8885 30.0705 74.0469 30.6759 74.1921 31.2813 74.3176 31.8933 74.3638 32.117 74.4034 32.3474 74.443 32.5513 74.531 33.012 74.6102 33.4726 74.6806 33.9332L74.7797 34.7558C74.8325 35.1769 74.8787 35.6047 74.9117 36.0324 74.9117 36.3219 74.9579 36.6115 74.9711 36.9076 74.9711 37.3222 75.0173 37.7367 75.0239 38.1579 75.0239 38.454 75.0239 38.7501 75.0239 39.0462 75.0239 39.4674 75.0239 39.882 75.0239 40.3031 75.0239 40.5992 75.0239 40.8888 74.9843 41.1849 74.9843 41.6192 74.9183 42.0535 74.8721 42.501 74.8721 42.7839 74.8259 43.0603 74.7929 43.3367 74.7334 43.8105 74.6542 44.2909 74.575 44.7712 74.575 45.0015 74.509 45.2384 74.4694 45.4687 74.3374 46.1794 74.1855 46.8901 74.0139 47.6008 73.6967 48.863 73.3088 50.1064 72.852 51.3253zM47.529 67.454C45.8994 67.4543 44.271 67.3687 42.6505 67.1974 43.0551 64.9684 44.2214 62.9478 45.9512 61.479 46.9216 60.6462 48.0235 59.9791 49.2123 59.5048 50.1337 59.1374 51.1213 58.9641 52.1132 58.9958 53.105 59.0275 54.0795 59.2635 54.9754 59.6891 53.1968 60.6238 51.6758 61.9796 50.5458 63.6373 50.2985 63.9544 50.0778 64.2911 49.8857 64.6441 49.7394 64.9432 49.6115 65.2509 49.5028 65.5654 49.4566 65.6707 49.4038 65.7694 49.3575 65.8813 49.1647 66.3962 49.0081 66.9239 48.8888 67.4606 48.5258 67.4737 47.9779 67.454 47.529 67.454zM51.4898 38.9739C50.0309 43.0932 48.9681 46.719 49.9055 50.9174 50.1683 52.0522 50.5534 53.1553 51.0541 54.2076L50.4402 53.714C44.4131 48.6274 42.063 44.0869 42.5911 38.6185 43.205 32.2618 46.1625 25.2931 51.3842 17.8704 51.7671 18.127 52.9949 18.9825 52.9949 18.9825 54.236 19.8577 56.9558 21.8581 59.1079 23.6283 56.0447 28.4631 53.5023 33.6068 51.5228 38.9739H51.4898zM39.3036 74.778C37.3372 74.7773 35.3743 74.6145 33.4349 74.2911 32.5143 74.1635 31.6018 73.9833 30.7019 73.7515 22.2154 71.6701 14.7863 66.565 9.81606 59.3991 4.8458 52.2333 2.67797 43.5021 3.7215 34.8526 4.76502 26.2031 8.94776 18.2332 15.4807 12.4464 22.0136 6.65956 30.4451 3.45581 39.1847 3.43948 42.0772 3.44214 44.9588 3.79345 47.7666 4.48577 54.365 6.09204 60.3658 9.54405 65.0623 14.4354 65.168 14.5473 65.2604 14.6657 65.366 14.7776 63.7487 16.8241 62.2964 18.818 60.9959 20.7329 58.593 18.7587 56.1108 16.9623 54.9886 16.1726L54.4869 15.8239C53.7673 15.3238 53.0279 14.8236 52.2622 14.3169 51.6813 13.9353 51.1069 13.5602 50.5392 13.2048 44.9742 20.4828 40.0363 29.1887 39.1583 38.2895 38.4058 46.061 42.5053 51.5293 48.1891 56.3396 46.5643 56.895 45.0576 57.7475 43.7463 58.8534 42.1316 60.2458 40.867 61.9963 40.0541 63.9642 39.2413 65.9322 38.9028 68.0628 39.0659 70.1849 42.2438 70.7084 45.4644 70.9287 48.6842 70.8429 48.7459 71.6806 48.8941 72.5098 49.1265 73.3172 45.9372 74.2614 42.6305 74.7532 39.3036 74.778zM83.8383 49.531C79.018 53.373 75.76 58.828 74.6689 64.8832 77.3677 60.6073 80.877 56.8969 85.0002 53.9596 84.535 52.5049 84.1472 51.0266 83.8383 49.531z"/>
    <path d="M25.4354 32.7246L27.4224 36.7387L31.8652 37.3836L28.6503 40.5093L29.4095 44.9182L25.4354 42.8387L21.4613 44.9182L22.2205 40.5093L19.0056 37.3836L23.4484 36.7387L25.4354 32.7246Z"/>
  </g>
  <defs>
    <clipPath id="clip0">
      <path fill="#fff" d="M0 0H85V116H0z"/>
    </clipPath>
  </defs>
</svg>
