<?xml version="1.0" encoding="utf-8"?><svg width="29" height="29" xmlns="http://www.w3.org/2000/svg" viewBox="0 0 29 29"><path d="M14.5 0C6.505 0 0 6.505 0 14.5S6.505 29 14.5 29c2.55 0 5.057-.67 7.252-1.94l-1.814-3.14a10.87 10.87 0 01-5.438 1.455c-5.997 0-10.875-4.878-10.875-10.875S8.503 3.625 14.5 3.625 25.375 8.503 25.375 14.5v1.579c0 1.186-.762 2.046-1.813 2.046-.999 0-1.812-.813-1.812-1.813v-7.25h-2.506C17.97 7.95 16.322 7.25 14.5 7.25c-3.998 0-7.25 3.252-7.25 7.25s3.252 7.25 7.25 7.25c1.904 0 3.625-.753 4.92-1.957.998 1.186 2.474 1.957 4.142 1.957 3.05 0 5.438-2.491 5.438-5.671V14.5C29 6.505 22.495 0 14.5 0zm0 18.125c-2 0-3.625-1.626-3.625-3.625 0-2 1.626-3.625 3.625-3.625 2 0 3.625 1.626 3.625 3.625 0 2-1.626 3.625-3.625 3.625z"/></svg>