<?xml version="1.0" encoding="utf-8"?><svg width="23" height="23" xmlns="http://www.w3.org/2000/svg" viewBox="0 0 23 23"><g clip-path="url(#dclip0)"><path d="M19.914 11.506c1.705-2.05 2.46-4.148 1.536-5.747-1.022-1.771-3.526-1.904-5.744-1.54-2.105-5.63-6.315-5.62-8.419-.003l-.001.003c-2.21-.362-4.72-.233-5.744 1.54C.5 7.564 1.73 9.87 3.08 11.506c-.143.173-.28.347-.41.522-3.254 4.387-1.04 7.704 4.62 6.767C8.234 21.325 9.697 23 11.496 23c1.84 0 3.28-1.696 4.206-4.193 5.607.938 7.907-2.348 4.62-6.779-.13-.175-.266-.349-.408-.522zm-6.636 5.168a25.63 25.63 0 001.804-1.047c-.095.515-.21 1.015-.344 1.494a17.6 17.6 0 01-1.46-.447zm-1.782-.724a24.047 24.047 0 01-3.849-2.222 24.05 24.05 0 010-4.445c1.2-.85 2.516-1.61 3.85-2.22a24.082 24.082 0 013.848 2.223c.137 1.461.137 2.98 0 4.441a24.074 24.074 0 01-3.849 2.223zm-1.78.724c-.493.174-.981.324-1.462.448a17.554 17.554 0 01-.343-1.49c.594.376 1.199.724 1.804 1.042zM6.13 12.547c-.396-.339-.77-.687-1.118-1.041a17.54 17.54 0 011.118-1.041 25.666 25.666 0 000 2.082zM7.911 7.38c.096-.513.21-1.01.343-1.489.482.124.97.275 1.462.448-.612.321-1.217.67-1.805 1.041zm5.367-1.04c.492-.174.98-.324 1.46-.448.133.478.248.976.343 1.488a25.758 25.758 0 00-1.803-1.04zm3.586 4.13c.396.338.77.685 1.116 1.038-.348.354-.722.702-1.12 1.042.03-.69.032-1.386.005-2.08zm3.342-3.992c.49.85.025 2.319-1.27 3.952a20.464 20.464 0 00-2.229-1.93 20.483 20.483 0 00-.558-2.898c.127-.019.252-.036.377-.05 1.22-.142 3.076-.12 3.68.926zm-8.71-5.028c.98 0 2.02 1.138 2.787 3.075-.906.24-1.845.567-2.787.968a20.453 20.453 0 00-2.787-.968c.767-1.937 1.807-3.075 2.787-3.075zm-8.71 5.028c.605-1.047 2.46-1.068 3.68-.926.125.014.252.031.379.05a21.627 21.627 0 00-.555 2.895 20.487 20.487 0 00-2.234 1.933c-1.294-1.633-1.76-3.102-1.27-3.952zm4.058 10.934c-1.3.193-3.404.256-4.058-.876-.49-.85-.024-2.319 1.27-3.952a20.39 20.39 0 002.234 1.932c.124 1.021.312 1.995.557 2.896h-.003zm4.652 4.152c-.98 0-2.02-1.137-2.787-3.075a20.407 20.407 0 002.788-.966c.986.42 1.916.742 2.783.974-.766 1.933-1.805 3.067-2.784 3.067zm8.71-5.028c-.606 1.05-2.466 1.067-3.68.926a11.527 11.527 0 01-.381-.05c.244-.909.431-1.888.556-2.904a21.114 21.114 0 002.232-1.928.075.075 0 00.003.004c1.295 1.633 1.76 3.102 1.27 3.952z"/><path d="M11.496 14.38a2.873 2.873 0 100-5.747 2.873 2.873 0 000 5.747z"/></g><defs><clipPath id="dclip0"><path d="M0 0h23v23H0z"/></clipPath></defs></svg>