<?xml version="1.0" encoding="utf-8"?><svg width="61" height="60" xmlns="http://www.w3.org/2000/svg" viewBox="0 0 61 60"><path d="M8.85 25.116h11.429a.72.72 0 00.505-.206.697.697 0 000-.995.72.72 0 00-.505-.206H8.849a.721.721 0 00-.505.206.697.697 0 000 .995.721.721 0 00.505.206zm20.143 9.907h6.488a.72.72 0 00.505-.207.697.697 0 000-.994.72.72 0 00-.505-.206h-6.488a.72.72 0 00-.505.206.697.697 0 000 .994.72.72 0 00.505.206zM8.85 31.02h11.43a.72.72 0 00.505-.206.697.697 0 000-.994.72.72 0 00-.505-.206H8.849a.72.72 0 00-.505.206.697.697 0 000 .994.72.72 0 00.505.206zm0 5.906h11.43a.72.72 0 00.505-.206.697.697 0 000-.995.72.72 0 00-.505-.206H8.849a.721.721 0 00-.505.206.698.698 0 000 .995.72.72 0 00.505.206zm0 5.905h11.43a.72.72 0 00.505-.206.697.697 0 000-.994.72.72 0 00-.505-.206H8.849a.721.721 0 00-.505.206.697.697 0 000 .994.72.72 0 00.505.206zm0 5.905h11.43a.72.72 0 00.505-.206.697.697 0 000-.994.72.72 0 00-.505-.206H8.849a.72.72 0 00-.505.206.697.697 0 000 .994.721.721 0 00.505.206zm20.144-7.928h6.488a.72.72 0 00.505-.206.697.697 0 000-.994.72.72 0 00-.505-.206h-6.488a.72.72 0 00-.505.206.697.697 0 000 .994.72.72 0 00.505.206zm.573 4.38h-.572a.72.72 0 00-.506.206.698.698 0 000 .994.721.721 0 00.506.206h.572a.72.72 0 00.505-.206.697.697 0 000-.994.72.72 0 00-.505-.206zm-.573-15.953h6.488c.19 0 .371-.074.505-.206a.697.697 0 000-.994.721.721 0 00-.505-.206h-6.488a.721.721 0 00-.505.206.698.698 0 000 .994.721.721 0 00.505.206zm0-5.786h6.488c.19 0 .371-.074.505-.206a.697.697 0 000-.994.72.72 0 00-.505-.206h-6.488a.72.72 0 00-.505.206.697.697 0 000 .994.721.721 0 00.505.206zM8.85 19.21h11.43a.72.72 0 00.505-.206.697.697 0 000-.994.72.72 0 00-.505-.206H8.849a.721.721 0 00-.505.206.697.697 0 000 .994.72.72 0 00.505.206z"/><path d="M51.09 41.858h-2.222a.871.871 0 01-.61-.25.843.843 0 01-.253-.6.69.69 0 00-.04-.23v-1.77a5.857 5.857 0 001.537-1.998c.36-.767.545-1.602.545-2.447v-3.522a5.818 5.818 0 00-1.746-4.142 6.014 6.014 0 00-4.21-1.718h-.066a5.995 5.995 0 00-3.059.835v-9.124a.697.697 0 00-.21-.497.721.721 0 00-.505-.206H26.087v-4.318a.698.698 0 00-.21-.497.72.72 0 00-.505-.206h-2.33V6.036a.697.697 0 00-.21-.497.721.721 0 00-.505-.206h-6.986V1.875a.697.697 0 00-.21-.497.72.72 0 00-1.01 0 .697.697 0 00-.21.497v3.458H6.8a.72.72 0 00-.505.206.697.697 0 00-.21.497v5.132h-2.33a.72.72 0 00-.506.206.697.697 0 00-.209.497v41.9c0 .186.075.365.21.497a.72.72 0 00.505.206h26.4v3.651c0 .187.076.365.21.497a.721.721 0 00.505.206h26.373c.19 0 .372-.074.506-.206a.698.698 0 00.21-.497v-9.511a6.708 6.708 0 00-2.015-4.775 6.935 6.935 0 00-4.854-1.981zM7.517 6.739h14.096v4.429H7.516V6.739zm17.142 46.328H4.47V12.574h20.186v40.493zm19.432-26.48a4.57 4.57 0 013.2 1.306 4.421 4.421 0 011.328 3.148v3.522a4.421 4.421 0 01-1.328 3.148 4.57 4.57 0 01-3.2 1.305h-.065a4.57 4.57 0 01-3.2-1.305 4.42 4.42 0 01-1.327-3.148v-3.522a4.42 4.42 0 011.328-3.148 4.57 4.57 0 013.2-1.305h.064zm-.093 19.27h.284l1.246 7.049-1.49 1.71-1.443-1.698 1.403-7.06zm-.697-2.593h1.515l-.413 1.188h-.688l-.414-1.188zm-.68-1.407l-1.028-1.136v-.811a6.002 6.002 0 002.433.513h.065c.843 0 1.677-.177 2.445-.519v1.007l-1.006.947H42.62zm-16.533 11.21V17.595h13.45v9.6a5.778 5.778 0 00-1.469 3.846v3.522c0 .848.188 1.685.55 2.454.36.77.888 1.453 1.545 2.002v1.828a.683.683 0 00-.02.162c0 .225-.091.44-.253.6a.871.871 0 01-.61.249h-2.255a6.935 6.935 0 00-4.855 1.98 6.708 6.708 0 00-2.014 4.776v4.454h-4.069zm30.442 4.355H31.586v-8.808a5.311 5.311 0 011.595-3.782 5.491 5.491 0 013.844-1.568h2.255a2.32 2.32 0 001.041-.248c.322-.162.601-.397.813-.686l.536.592.95 2.54-1.495 7.515a.69.69 0 00.153.586l2.204 2.594a.714.714 0 00.545.252h.004a.724.724 0 00.543-.246l2.258-2.594a.699.699 0 00.161-.578l-1.367-7.733.81-2.308.612-.575c.206.266.47.484.772.638a2.317 2.317 0 001.016.25h2.255a5.49 5.49 0 013.844 1.569 5.311 5.311 0 011.595 3.781v8.809z"/><path d="M52.718 48.377h-3.386a.72.72 0 00-.505.205.697.697 0 000 .995.721.721 0 00.505.206h3.386c.19 0 .37-.074.505-.206a.697.697 0 000-.995.72.72 0 00-.505-.206z"/></svg>