<?xml version="1.0" encoding="utf-8"?><svg width="21" height="21" xmlns="http://www.w3.org/2000/svg" viewBox="0 0 21 21"><g clip-path="url(#fclip0)"><path d="M21 10.5l-2.377-2.64.372-3.533-3.476-.736-1.774-3.08L10.5 1.96 7.255.511 5.48 3.59l-3.476.736.372 3.534L0 10.5l2.377 2.64-.372 3.533 3.476.736 1.774 3.08 3.245-1.45 3.245 1.45 1.774-3.08 3.476-.736-.372-3.534L21 10.5zm-6.098-2.3l-5.27 5.906-3.663-3.663.87-.87 2.741 2.74 4.403-4.932.919.82z"/></g><defs><clipPath id="fclip0"><path d="M0 0h21v21H0z"/></clipPath></defs></svg>