<?xml version="1.0" encoding="utf-8"?><svg width="59" height="59" xmlns="http://www.w3.org/2000/svg" viewBox="0 0 59 59"><g clip-path="url(#gclip0)"><path d="M55.6 8.754h-2.446V6.438a.864.864 0 00-.864-.864h-5.211a.864.864 0 00-.864.864v2.316H17.662V6.438a.864.864 0 00-.864-.864h-5.211a.864.864 0 00-.864.864v2.316h-2.02a3.831 3.831 0 00-3.827 3.826v21.03a.864.864 0 001.729 0V12.58a2.1 2.1 0 012.098-2.098H55.6c.922 0 1.672.75 1.672 1.672v28.581c0 .922-.75 1.672-1.672 1.672h-1.842v-3.271a.864.864 0 00-.864-.864h-9.287a.864.864 0 00-.864.864v3.27H28.891l3.27-.893a8.378 8.378 0 004.293-2.782l5.554-6.766a.878.878 0 00.195-.482l.49-6.452a1.54 1.54 0 00-.927-1.51.863.863 0 00-.426-1.616h-3.787a.864.864 0 000 1.729h2.827c-.095.06-.184.13-.266.213l-3.172 3.171c-.612.613-1.117 1.382-1.66 2.057a.864.864 0 001.347 1.083l.995-1.236 2.551 2.552-5.057 6.16a6.66 6.66 0 01-3.412 2.211l-13.648 3.928c-1.057.338-.53 1.984.528 1.646l3.002-.963v7.242h-1.2a.864.864 0 000 1.728h5.282a.864.864 0 100-1.728h-2.354v-7.563H55.6c1.875 0 3.4-1.525 3.4-3.4V12.154c0-1.875-1.525-3.4-3.4-3.4zm-7.657-1.452h3.483v1.451h-3.483v-1.45zm-35.492 0h3.482v1.451h-3.482v-1.45zM40.925 25.48l-.303 3.995-1.846-1.846 2.149-2.15zm3.547 16.927V40h7.558v2.407h-7.558z"/><path d="M16.26 51.698H5.164V47.11c0-2.915.672-5.824 1.955-8.442a4.235 4.235 0 013.778-2.357H25.46c3.044 0 6.005-1.075 8.338-3.029a.864.864 0 00-1.11-1.325 11.277 11.277 0 01-7.228 2.626h-6.259a5.591 5.591 0 001.568-3.885v-3.173a4.273 4.273 0 003.985-4.258 4.274 4.274 0 00-4.269-4.27c-1.438-.033-2.808.302-3.817 1.399a2.617 2.617 0 01-1.918.84h-2.375a3.602 3.602 0 00-3.597 3.6v6.476c0 .736.176 1.458.62 2.055.201.269.448.503.726.69.301.202.74.275.98.526-2.313-.039-4.51 1.228-5.537 3.324a20.99 20.99 0 00-2.132 9.203v4.59H.865a.864.864 0 100 1.728H16.26a.864.864 0 000-1.729zm-1.35-17.124c-.482-.03-.95-.15-1.383-.35.2-.103.395-.23.569-.373.718-.593 1.114-1.47 1.114-2.47v-3.847h3.83v3.163a3.89 3.89 0 01-4.13 3.877zm-4.404-3.262v-6.478c0-1.031.838-1.87 1.869-1.87h2.375c1.207 0 2.37-.51 3.19-1.398.679-.74 1.6-.876 2.545-.841 1.4 0 2.54 1.14 2.54 2.54 0 1.401-1.14 2.54-2.54 2.54h-6.14a.864.864 0 00-.864.865v4.71c0 1.009-.89 1.642-1.853 1.458-.773-.147-1.122-.776-1.122-1.527zM29.585 18.773h4.707a.864.864 0 00.864-.864v-3.18a.864.864 0 00-.864-.864h-4.707a.864.864 0 00-.864.864v3.18c0 .478.387.864.864.864zm.864-3.18h2.979v1.452h-2.979v-1.452zM28.72 24.36c0 .477.388.864.865.864h4.707a.864.864 0 00.864-.864v-3.18a.864.864 0 00-.864-.865h-4.707a.864.864 0 00-.864.864v3.18zm1.73-2.316h2.978v1.451h-2.979v-1.451zM37.554 17.183h15.34a.864.864 0 000-1.728h-15.34a.864.864 0 100 1.728z"/></g><defs><clipPath id="gclip0"><path d="M0 0h59v59H0z"/></clipPath></defs></svg>