<?xml version="1.0" encoding="utf-8"?><svg width="35" height="35" xmlns="http://www.w3.org/2000/svg" viewBox="0 0 35 35"><g clip-path="url(#hclip0)"><path d="M34.074 11.895a15.131 15.131 0 00-1.818-3.8A17.503 17.503 0 0022.553.748 17.51 17.51 0 00.946 23.197a17.501 17.501 0 0033.128-11.302zm-9.213-1.056l3.393 2.194.496 2.794-2.437 2.437a.48.48 0 00-.14.339v3.094l-1.512 1.512a.476.476 0 00-.14.338v1.888l-3.107 3.107-2.324-2.324v-4.627a.478.478 0 00-.14-.338l-3.783-3.782a.476.476 0 00-.338-.14H11.81l-2.24-2.24v-4.535l3.527-3.528 2.484-.978 1.516 1.516a.479.479 0 00.286.137l5.688.627a.483.483 0 00.252-.04l3.371-1.545a.478.478 0 00.06-.837L21.67 2.624a.478.478 0 00-.198-.072l-7.806-1.014-.028-.12a16.543 16.543 0 0118.95 9.31l-1.036-.721a.58.58 0 00-.048-.03l-2.74-1.463a.478.478 0 00-.418-.016l-3.418 1.501a.479.479 0 00-.067.84zM1.148 20.024a16.695 16.695 0 01-.185-2.252l.095.062a.477.477 0 00.363.067l.824-.181 2.273 1.819a.478.478 0 00.37.099l2.96-.45 1.72 2.198-.028 3.105-3.766.442a.476.476 0 00-.32.18L3.969 27a16.449 16.449 0 01-2.82-6.976zM17.5 34.044a16.518 16.518 0 01-12.938-6.251l1.521-1.933 3.987-.466a.48.48 0 00.423-.471l.032-3.695a.48.48 0 00-.1-.299L8.43 18.38a.475.475 0 00-.45-.177l-3.029.46-2.287-1.831a.479.479 0 00-.402-.094l-.85.186-.434-.283A16.576 16.576 0 0112.715 1.667l.09.407a.48.48 0 00.406.37l8.032 1.043 4.26 2.75-2.457 1.126-5.39-.593-1.62-1.62a.479.479 0 00-.513-.107l-2.869 1.13a.482.482 0 00-.163.107l-3.738 3.738a.478.478 0 00-.14.338v4.933a.478.478 0 00.14.338l2.521 2.52c.09.09.212.141.339.141h3.018l3.5 3.5v4.627a.48.48 0 00.14.338l2.803 2.804a.476.476 0 00.677 0l3.587-3.585a.48.48 0 00.14-.339v-1.888l1.512-1.512c.09-.09.14-.21.14-.338v-3.094l2.473-2.473a.476.476 0 00.133-.422l-.576-3.245a.479.479 0 00-.211-.318l-2.822-1.825 2.39-1.05 2.51 1.34 2.183 1.52A16.535 16.535 0 0117.5 34.044z"/></g><defs><clipPath id="hclip0"><path d="M0 0h35v35H0z"/></clipPath></defs></svg>