<?xml version="1.0" encoding="utf-8"?><svg width="60" height="60" xmlns="http://www.w3.org/2000/svg" viewBox="0 0 60 60"><g clip-path="url(#iclip0)"><path d="M55.238 17.188h-12.71V8.358a4.767 4.767 0 00-4.762-4.761H4.762A4.767 4.767 0 000 8.359v13.088a.879.879 0 101.758 0V8.36a3.007 3.007 0 013.004-3.004h33.004A3.007 3.007 0 0140.77 8.36v23.297a3.007 3.007 0 01-3.004 3.004H18.754c-.495 0-.96.193-1.308.542l-5.825 5.824c-.016.017-.043.043-.1.02-.056-.023-.056-.062-.056-.085V36.51c0-1.02-.83-1.85-1.85-1.85H4.762a3.007 3.007 0 01-3.004-3.004v-6.693a.879.879 0 10-1.758 0v6.693a4.767 4.767 0 004.762 4.762h4.853c.05 0 .092.041.092.092v4.451a1.85 1.85 0 003.158 1.308l4.608-4.608v7.585a4.767 4.767 0 004.761 4.762H32.88a.879.879 0 100-1.758H22.234a3.007 3.007 0 01-3.003-3.004v-8.828h18.535a4.767 4.767 0 004.761-4.762v-12.71h12.711a3.007 3.007 0 013.004 3.003v23.297a3.007 3.007 0 01-3.004 3.004h-4.853c-1.02 0-1.85.83-1.85 1.85v4.451c0 .023 0 .061-.056.085-.056.024-.084-.003-.1-.02l-5.824-5.824a1.837 1.837 0 00-1.308-.542h-4.852a.879.879 0 100 1.758h4.852c.024 0 .047.01.065.027l5.824 5.824a1.845 1.845 0 002.016.401 1.844 1.844 0 001.141-1.709V50.1c0-.05.042-.092.092-.092h4.854A4.767 4.767 0 0060 45.246V21.95a4.768 4.768 0 00-4.762-4.762z"/><path d="M27.18 41.363a2.823 2.823 0 002.82 2.82 2.823 2.823 0 002.82-2.82 2.823 2.823 0 00-2.82-2.82 2.823 2.823 0 00-2.82 2.82zm3.882 0a1.064 1.064 0 01-2.125 0 1.064 1.064 0 012.125 0zM18.443 29.715a2.824 2.824 0 002.82 2.82 2.823 2.823 0 002.82-2.82 2.823 2.823 0 00-2.82-2.82 2.823 2.823 0 00-2.82 2.82zm3.883 0a1.064 1.064 0 01-2.125 0 1.064 1.064 0 012.125 0zm1.758-9.449a6.7 6.7 0 003.866-6.551c-.228-3.316-2.901-5.99-6.217-6.218a6.733 6.733 0 00-5.043 1.786 6.726 6.726 0 00-2.13 4.9 2.824 2.824 0 002.82 2.821 2.823 2.823 0 002.82-2.82 1.067 1.067 0 011.144-1.06c.505.035.944.474.979.979.032.463-.232.89-.657 1.065a5.204 5.204 0 00-3.223 4.84v1.942a2.823 2.823 0 002.82 2.82 2.824 2.824 0 002.82-2.82v-1.684zm-.942-1.506a1.334 1.334 0 00-.816 1.248v1.941a1.064 1.064 0 01-2.125 0v-1.941c0-1.42.837-2.682 2.133-3.214a2.823 2.823 0 001.743-2.812c-.095-1.37-1.241-2.517-2.612-2.612a2.798 2.798 0 00-2.125.75 2.793 2.793 0 00-.897 2.064 1.064 1.064 0 01-2.125 0c0-1.366.573-2.684 1.572-3.616a4.962 4.962 0 013.723-1.317 4.956 4.956 0 014.584 4.585 4.946 4.946 0 01-3.055 4.924zm27.151 22.603a2.823 2.823 0 00-2.82-2.82 2.823 2.823 0 00-2.82 2.82 2.823 2.823 0 002.82 2.82 2.823 2.823 0 002.82-2.82zm-3.883 0a1.064 1.064 0 012.125 0 1.064 1.064 0 01-2.125 0zm-7.673 2.82a2.823 2.823 0 002.82-2.82 2.823 2.823 0 00-2.82-2.82 2.823 2.823 0 00-2.82 2.82 2.823 2.823 0 002.82 2.82zm0-3.882a1.064 1.064 0 010 2.124 1.064 1.064 0 010-2.124z"/></g><defs><clipPath id="iclip0"><path d="M0 0h60v60H0z"/></clipPath></defs></svg>