<?xml version="1.0" encoding="utf-8"?><svg width="161" height="30" xmlns="http://www.w3.org/2000/svg" viewBox="0 0 161 30"><path d="M26.72 24.363a14.876 14.876 0 002.841-5.774c.923-3.723.38-7.66-1.518-10.993a14.767 14.767 0 00-2.213-2.965 15.63 15.63 0 00-1.362-1.264 15 15 0 10-13.049 26.201c.378.098.76.175 1.146.23a14.92 14.92 0 006.757-.433l.13-.039.335-.111.117-.04a15.23 15.23 0 002.966-1.414l.098-.059.446-.294.275-.19.144-.105c.17-.124.334-.242.497-.373.164-.131.216-.177.321-.269l.092-.078c.338-.285.661-.586.969-.904l.111-.124c.327-.334.622-.655.87-.975l.027-.027zm1.133-4.668c-.06.164-.138.321-.203.485-.118.288-.23.582-.367.864-.138.282-.203.36-.308.543-.105.184-.255.491-.406.727-.15.236-.261.373-.392.557-.131.183-.295.425-.459.654l-2.147 2.141h-.04c-.287.23-.589.445-.896.655l-.256.157c-.21.137-.419.268-.654.386l-.452.242-.485.243-.51.222-.243.099a3.514 3.514 0 01-.104-.825 3.03 3.03 0 01.203-1.054 3.202 3.202 0 011.532-1.69l1.57-.85L21.928 22a5.48 5.48 0 01-1.59-2.71 4.307 4.307 0 01-.04-1.199 1.464 1.464 0 010-.17c.109-.865.329-1.712.655-2.52a32.304 32.304 0 014.923-8.708l.079.105.183.248c.098.144.203.282.295.426.091.144.118.177.17.268.052.092.183.288.268.439.086.15.099.177.151.268.052.092.164.308.242.459.079.15.085.176.131.268.046.092.15.328.216.491.066.164.079.17.112.256.072.19.144.38.21.576 0 .059.045.117.071.183.085.255.164.517.236.78v.084c.059.236.111.465.163.7 0 .086 0 .178.046.263.046.085.066.353.092.53l.04.314c0 .164.032.327.052.491v1.977c0 .112 0 .334-.046.498-.046.164 0 .216-.033.32-.033.105-.046.367-.078.55l-.04.27c-.052.274-.111.543-.176.817-.11.481-.245.956-.406 1.421zm-9.67 6.174a17.725 17.725 0 01-1.866-.091 3.751 3.751 0 011.27-2.207c.37-.324.793-.583 1.25-.766a2.755 2.755 0 012.2.072 4.774 4.774 0 00-1.696 1.519c-.085.124-.17.255-.242.386-.072.131-.098.236-.144.354a4.493 4.493 0 00-.236.727c-.163.02-.386.006-.536.006zM19.7 14.95c-.57 1.584-.982 2.972-.621 4.583.103.434.25.858.438 1.263l-.229-.19c-2.311-1.964-3.208-3.686-3.005-5.787.236-2.442 1.395-5.114 3.359-7.961l.615.425a50.1 50.1 0 012.337 1.78 30.862 30.862 0 00-2.893 5.887zM15.06 28.684a13.684 13.684 0 01-2.246-.19c-.35-.05-.698-.117-1.04-.203A13.68 13.68 0 1118.32 1.724a13.507 13.507 0 015.31 2.664c.44.357.859.742 1.25 1.153.043.04.082.084.118.13a41.546 41.546 0 00-1.67 2.285 37.103 37.103 0 00-2.297-1.748l-.19-.137c-.275-.19-.557-.386-.851-.576-.295-.19-.446-.288-.655-.426-2.141 2.79-4.027 6.128-4.36 9.618-.288 2.992 1.276 5.08 3.456 6.92-.62.213-1.194.54-1.695.962a5.238 5.238 0 00-1.794 4.348c1.216.2 2.447.288 3.68.261.023.33.08.657.17.976-1.214.35-2.47.528-3.732.53zm16.983-9.696a9.82 9.82 0 00-2.62 3.274 9.63 9.63 0 00-.876 2.619 15.058 15.058 0 013.928-4.204 24.467 24.467 0 01-.432-1.689zm14.478 3.608h-7.072V12.14h6.854v2.236h-4.197v1.86h3.587v2.12h-3.587v2.003h4.415v2.237zm1.277-7.261h2.352l.073.74c.03.184.01.34-.058.465h.029c.174-.358.484-.682.93-.973a2.63 2.63 0 011.437-.435c.794 0 1.413.247 1.859.74.455.494.682 1.225.682 2.193v4.53h-2.585v-4.138c0-.668-.261-1.002-.784-1.002-.406 0-.73.14-.973.421-.242.28-.363.64-.363 1.075v3.645h-2.599v-7.261zm8.048 0h.944v-2.178h2.513v2.178h1.8v2.004h-1.8v2.483c0 .571.29.857.87.857.35 0 .737-.097 1.163-.29v2.09c-.446.213-1.094.32-1.946.32-.668 0-1.24-.16-1.714-.48-.465-.319-.755-.822-.871-1.51a6.424 6.424 0 01-.058-.77v-2.7h-.9v-2.004zm6.558 7.26v-7.26h2.352c0 .02.015.203.044.552.02.261.034.411.044.45.232-.349.532-.634.9-.857a2.188 2.188 0 011.19-.348c.069 0 .136.005.204.014.078 0 .14.005.189.015h.072v2.526h-.029a.554.554 0 00-.072-.029.323.323 0 00-.102-.043.61.61 0 00-.145-.015 1.057 1.057 0 00-.174-.014c-.504 0-.944.174-1.322.523-.377.348-.566.827-.566 1.437v3.05h-2.585zm9.265-7.463c1.094 0 1.936.329 2.527.987.6.649.9 1.452.9 2.41 0 .204-.024.523-.072.959h-4.43c.107.774.688 1.162 1.743 1.162.475 0 .954-.053 1.438-.16.484-.106.823-.208 1.016-.305v2.164c-.62.3-1.52.45-2.7.45-1.278 0-2.295-.353-3.05-1.06-.755-.716-1.133-1.641-1.133-2.774 0-1.103.358-2.018 1.075-2.744.716-.726 1.612-1.09 2.686-1.09zm.988 3.165c.01-.338-.073-.62-.247-.842-.174-.223-.431-.334-.77-.334-.329 0-.585.111-.77.334-.183.223-.28.504-.29.842h2.077zm3.645 7.493V15.335h2.338l.058.537-.029.465h.03c.164-.349.454-.634.87-.857.426-.232.891-.348 1.394-.348.959 0 1.762.343 2.411 1.03.649.688.973 1.622.973 2.803 0 1.181-.32 2.116-.959 2.803a3.103 3.103 0 01-2.366 1.03c-.475 0-.9-.086-1.278-.26-.378-.175-.668-.402-.872-.683h-.029c.03.126.044.33.044.61v3.325h-2.585zm4.153-5.14c.426 0 .775-.155 1.046-.465.28-.31.42-.716.42-1.22 0-.503-.14-.91-.42-1.22-.281-.31-.63-.464-1.046-.464-.406 0-.755.15-1.045.45-.281.3-.421.711-.421 1.234s.14.934.42 1.235c.291.3.64.45 1.046.45zm5.064 1.946v-7.261h2.352c0 .02.015.203.044.552.02.261.034.411.044.45.232-.349.532-.634.9-.857a2.189 2.189 0 011.19-.348c.069 0 .136.005.204.014.078 0 .14.005.189.015h.072v2.526h-.029a.554.554 0 00-.072-.029.322.322 0 00-.102-.043.61.61 0 00-.145-.015 1.057 1.057 0 00-.174-.014c-.504 0-.944.174-1.322.523-.377.348-.566.827-.566 1.437v3.05h-2.585zm6.041-7.261h2.6v7.26h-2.6v-7.26zm.291-1.09c-.252-.241-.378-.57-.378-.987 0-.416.126-.74.378-.972.252-.243.59-.364 1.017-.364.425 0 .76.121 1.001.364.252.232.378.556.378.972 0 .417-.126.746-.378.988-.242.242-.576.363-1.001.363-.426 0-.765-.121-1.017-.363zm7.07 6.158c0-.126-.082-.228-.247-.305-.155-.078-.43-.17-.828-.276-.774-.203-1.365-.484-1.771-.842-.407-.358-.61-.876-.61-1.554 0-.716.252-1.278.755-1.684.504-.407 1.2-.61 2.091-.61.94 0 1.777.145 2.512.435v2.193a5.592 5.592 0 00-1.83-.552 4.948 4.948 0 00-.624-.014c-.358.048-.537.17-.537.363 0 .222.315.416.944.58.89.223 1.529.514 1.917.872.397.348.595.852.595 1.51 0 .726-.281 1.288-.842 1.684-.552.397-1.326.596-2.324.596-.929 0-1.771-.155-2.526-.465v-2.25c.338.193.75.363 1.234.508.494.135.915.203 1.263.203.552 0 .828-.13.828-.392zm6.811-5.271c1.094 0 1.936.329 2.527.987.6.649.9 1.452.9 2.41 0 .204-.024.523-.073.959h-4.429c.107.774.688 1.162 1.743 1.162a6.68 6.68 0 001.438-.16c.484-.106.822-.208 1.016-.305v2.164c-.619.3-1.52.45-2.701.45-1.278 0-2.294-.353-3.049-1.06-.755-.716-1.133-1.641-1.133-2.774 0-1.103.358-2.018 1.075-2.744.716-.726 1.611-1.09 2.686-1.09zm.987 3.165c.01-.338-.072-.62-.246-.842-.175-.223-.431-.334-.77-.334-.329 0-.586.111-.77.334-.184.223-.28.504-.29.842h2.076zm10.542-3.165c1.094 0 1.937.329 2.527.987.6.649.901 1.452.901 2.41 0 .204-.025.523-.073.959h-4.429c.106.774.687 1.162 1.742 1.162.475 0 .954-.053 1.438-.16.484-.106.823-.208 1.017-.305v2.164c-.62.3-1.52.45-2.701.45-1.278 0-2.295-.353-3.05-1.06-.755-.716-1.133-1.641-1.133-2.774 0-1.103.359-2.018 1.075-2.744.716-.726 1.612-1.09 2.686-1.09zm.988 3.165c.01-.338-.073-.62-.247-.842-.174-.223-.431-.334-.77-.334-.329 0-.585.111-.769.334-.184.223-.281.504-.291.842h2.077zm-2.44-3.848l1.162-2.512h3.253l-2.164 2.512h-2.251zm5.625.886h.944v-2.178h2.512v2.178h1.8v2.004h-1.8v2.483c0 .571.29.857.871.857.349 0 .736-.097 1.162-.29v2.09c-.446.213-1.094.32-1.946.32-.668 0-1.239-.16-1.714-.48-.464-.319-.755-.822-.871-1.51a6.362 6.362 0 01-.058-.77v-2.7h-.9v-2.004zm7.294.886c.746-.726 1.69-1.09 2.832-1.09s2.081.364 2.817 1.09c.746.726 1.118 1.64 1.118 2.744 0 1.104-.372 2.019-1.118 2.745-.736.726-1.675 1.089-2.817 1.089-1.142 0-2.086-.363-2.832-1.09-.735-.725-1.103-1.64-1.103-2.744 0-1.103.368-2.018 1.103-2.744zm2.832 4.429c.426 0 .784-.155 1.075-.465.29-.31.435-.716.435-1.22 0-.503-.145-.91-.435-1.22a1.416 1.416 0 00-1.075-.464 1.43 1.43 0 00-1.089.465c-.281.31-.421.716-.421 1.22 0 .503.14.91.421 1.22.29.309.653.464 1.089.464zm5.124-5.315h2.6v7.26h-2.6v-7.26zm.291-1.09c-.252-.241-.378-.57-.378-.987 0-.416.126-.74.378-.972.252-.243.59-.364 1.016-.364.426 0 .76.121 1.002.364.252.232.378.556.378.972 0 .417-.126.746-.378.988-.242.242-.576.363-1.002.363-.426 0-.764-.121-1.016-.363zm3.977 6.158V12.14h2.585v7.682c0 .533.222.799.668.799.232 0 .489-.063.769-.19v2.136c-.358.154-.885.232-1.582.232-.727 0-1.317-.194-1.772-.58-.445-.388-.668-.993-.668-1.816zm8.302-5.271c1.094 0 1.936.329 2.527.987.6.649.9 1.452.9 2.41 0 .204-.024.523-.073.959h-4.429c.107.774.688 1.162 1.743 1.162.474 0 .953-.053 1.437-.16.484-.106.823-.208 1.017-.305v2.164c-.62.3-1.52.45-2.701.45-1.278 0-2.294-.353-3.05-1.06-.755-.716-1.132-1.641-1.132-2.774 0-1.103.358-2.018 1.074-2.744.717-.726 1.612-1.09 2.687-1.09zm.987 3.165c.01-.338-.072-.62-.247-.842-.174-.223-.43-.334-.769-.334-.329 0-.586.111-.77.334-.184.223-.281.504-.29.842h2.076zm-2.439-3.848l1.161-2.512h3.253l-2.164 2.512h-2.25zm9.421.683c1.094 0 1.936.329 2.527.987.6.649.9 1.452.9 2.41 0 .204-.024.523-.072.959h-4.429c.106.774.687 1.162 1.742 1.162.475 0 .954-.053 1.438-.16.484-.106.823-.208 1.016-.305v2.164c-.619.3-1.52.45-2.701.45-1.278 0-2.294-.353-3.049-1.06-.755-.716-1.133-1.641-1.133-2.774 0-1.103.358-2.018 1.075-2.744.716-.726 1.612-1.09 2.686-1.09zm.988 3.165c.009-.338-.073-.62-.247-.842-.174-.223-.431-.334-.77-.334-.329 0-.586.111-.769.334-.184.223-.281.504-.291.842h2.077z"/></svg>