<?xml version="1.0" encoding="utf-8"?><svg width="54" height="50" xmlns="http://www.w3.org/2000/svg" viewBox="0 0 54 50"><path d="M44.43 40.604a24.814 24.814 0 004.355-8.283 24.966 24.966 0 00-2.156-19.666 24.607 24.607 0 00-3.68-4.945 26.02 26.02 0 00-2.265-2.106A24.889 24.889 0 0017.02 1.296 24.94 24.94 0 006.6 8.063 25.022 25.022 0 00.724 19.028 25.05 25.05 0 003.6 37.947a24.971 24.971 0 006.567 7.2 24.91 24.91 0 008.817 4.133c.627.164 1.264.292 1.905.382 3.752.626 7.596.38 11.237-.72l.218-.066.555-.185.196-.066a25.307 25.307 0 004.932-2.357l.164-.098.74-.491.457-.317.24-.174c.283-.208.555-.404.827-.623.273-.218.36-.294.534-.447l.152-.13a21.78 21.78 0 001.612-1.507l.185-.207a19.04 19.04 0 001.448-1.626l.043-.044zm1.883-7.782c-.098.273-.229.535-.338.808-.196.48-.38.971-.61 1.44-.228.47-.337.601-.51.907-.175.305-.426.818-.676 1.21-.25.394-.436.623-.653.929-.218.305-.49.709-.762 1.091l-3.572 3.569h-.065c-.48.382-.98.742-1.492 1.091l-.424.262c-.349.23-.697.447-1.09.644l-.75.404-.806.404-.85.37-.402.164a5.876 5.876 0 01-.175-1.375 5.065 5.065 0 01.338-1.757 5.332 5.332 0 012.548-2.816l2.613-1.418-2.178-2.085a9.139 9.139 0 01-2.645-4.518 7.199 7.199 0 01-.066-1.997 2.443 2.443 0 010-.284c.18-1.442.547-2.854 1.09-4.202a53.88 53.88 0 018.187-14.515l.13.175.305.415c.164.24.338.469.49.709.153.24.196.295.283.447.088.153.305.48.447.732.141.25.163.294.25.447.087.153.273.513.403.764.13.25.142.295.218.447.076.153.25.546.36.819.108.273.13.284.184.425.12.317.24.634.349.96 0 .1.076.197.12.306.141.426.272.863.392 1.3v.141c.097.393.184.775.272 1.168 0 .142 0 .295.076.436.076.142.109.59.152.884l.066.524c0 .273.054.546.087.819V26.362c0 .185 0 .556-.077.83-.076.272 0 .36-.054.534-.054.175-.076.611-.13.917l-.066.447c-.087.458-.185.906-.294 1.364a22 22 0 01-.675 2.368zM30.231 43.114a29.397 29.397 0 01-3.103-.153 6.257 6.257 0 012.113-3.678 7.227 7.227 0 012.08-1.276 4.573 4.573 0 013.658.12 7.943 7.943 0 00-2.82 2.531 7.912 7.912 0 00-.403.644c-.12.219-.164.393-.24.59a1.69 1.69 0 00-.087.207 7.509 7.509 0 00-.305 1.004c-.272.033-.642.011-.893.011zm2.526-18.204c-.947 2.641-1.633 4.955-1.034 7.64.172.725.417 1.43.73 2.106l-.382-.316c-3.843-3.275-5.335-6.145-4.997-9.648.392-4.07 2.319-8.524 5.585-13.271l1.024.71a83.351 83.351 0 013.887 2.968 51.496 51.496 0 00-4.813 9.811zm-7.72 22.897a22.711 22.711 0 01-3.734-.317 17.21 17.21 0 01-1.731-.338 22.729 22.729 0 01-8.04-3.774 22.786 22.786 0 01-5.987-6.57 22.84 22.84 0 01-2.62-17.256 22.83 22.83 0 013.764-8.06 22.772 22.772 0 016.555-6A22.718 22.718 0 0130.46 2.865a22.442 22.442 0 018.83 4.442 21.991 21.991 0 012.08 1.92c.07.068.136.14.196.219a69.195 69.195 0 00-2.777 3.808c-1.524-1.276-3.114-2.412-3.821-2.913l-.316-.23c-.457-.316-.925-.644-1.416-.96-.49-.317-.74-.48-1.088-.71-3.56 4.65-6.696 10.216-7.252 16.033-.479 4.987 2.123 8.469 5.75 11.535-1.032.356-1.988.9-2.82 1.605a8.73 8.73 0 00-2.984 7.246c2.022.334 4.07.48 6.119.437.04.55.134 1.095.283 1.626-2.018.583-4.107.88-6.206.884zm28.245-16.163a16.364 16.364 0 00-4.356 5.457 16.077 16.077 0 00-1.459 4.365A25.077 25.077 0 0154 34.46a40.841 40.841 0 01-.718-2.816z"/></svg>