<?xml version="1.0" encoding="utf-8"?><svg width="56" height="56" xmlns="http://www.w3.org/2000/svg" viewBox="0 0 56 56"><g clip-path="url(#mclip0)"><path d="M55.54 7.068L48.927.763c-.252-.241-.512-.49-.997-.49H21.449c-.774 0-1.403.629-1.403 1.402v4.308l-9.333 1.6A1.382 1.382 0 009.59 9.177l.474 2.762C7.03 12.96 3.916 14.012.909 15.093a1.389 1.389 0 00-.83 1.764l5.982 16.627a.82.82 0 001.544-.555L1.712 16.548a481.877 481.877 0 018.633-2.972l2.82 16.433 3.242 18.925a1.39 1.39 0 001.595 1.125l8.785-1.508 6.864-1.176-10.324 3.71-8.141 2.928-6.323-17.587a.82.82 0 10-1.544.555l6.413 17.837c.205.56.736.91 1.298.91.155 0 .313-.028.466-.084l8.386-3.015 19.041-6.844 3.638-.623h8.036c.774 0 1.403-.63 1.403-1.406V7.992c0-.491-.266-.742-.46-.924zm-2.174.194H49.159c-.196.002-.657.005-.773-.11-.027-.028-.059-.117-.059-.283l-.01-4.42 5.049 4.813zm.993 36.259H21.687V27.534a.82.82 0 10-1.64 0v16.222c0 .775.628 1.406 1.402 1.406H36.85l-10.34 1.772-8.53 1.464-3.199-18.667-3.53-20.576 8.795-1.508v16.08a.82.82 0 001.64 0V1.914h24.99l.01 4.958c0 .6.184 1.086.544 1.444.554.55 1.337.588 1.822.588H54.36V43.52z"/><path d="M25.64 13.01c0 .453.368.82.82.82h23.455a.82.82 0 000-1.64H26.46a.82.82 0 00-.82.82zm24.275 5.007H26.46a.82.82 0 000 1.64h23.454a.82.82 0 000-1.64zm0 5.828H26.46a.82.82 0 000 1.64h23.454a.82.82 0 100-1.64zm0 5.828H26.46a.82.82 0 100 1.64h23.454a.82.82 0 000-1.64zm0 5.828H26.46a.82.82 0 000 1.64h23.454a.82.82 0 000-1.64z"/></g><defs><clipPath id="mclip0"><path d="M0 0h56v56H0z"/></clipPath></defs></svg>