<?xml version="1.0" encoding="utf-8"?><svg width="21" height="21" xmlns="http://www.w3.org/2000/svg" viewBox="0 0 21 21"><g clip-path="url(#oclip0)"><path d="M18.914 2.497L10.677.026a.615.615 0 00-.354 0L2.086 2.497a.615.615 0 00-.439.59v9.06c0 1.179.478 2.385 1.419 3.586.718.917 1.712 1.838 2.955 2.737a26.512 26.512 0 004.228 2.476.615.615 0 00.502 0 26.515 26.515 0 004.228-2.476c1.242-.899 2.237-1.82 2.955-2.737.941-1.2 1.418-2.407 1.418-3.586v-9.06a.615.615 0 00-.438-.59z"/></g><defs><clipPath id="oclip0"><path d="M0 0h21v21H0z"/></clipPath></defs></svg>