<?xml version="1.0" encoding="utf-8"?><svg width="20" height="20" xmlns="http://www.w3.org/2000/svg" viewBox="0 0 20 20"><path d="M19.775 14.52l-3.75-3.125a.626.626 0 00-1.025.48v1.874h-1.25l-7.125-9.5a1.25 1.25 0 00-1-.5h-5A.625.625 0 000 4.376v1.25c0 .345.28.625.625.625H5l7.126 9.5c.235.314.607.5.999.5H15v1.875a.626.626 0 001.025.48l3.75-3.126a.622.622 0 000-.96z"/><path d="M19.775 4.52l-3.75-3.125a.626.626 0 00-1.025.48V3.75h-1.875a1.25 1.25 0 00-1 .5l-1.969 2.625 1.563 2.083L13.75 6.25H15v1.875a.624.624 0 001.025.48l3.75-3.125a.622.622 0 000-.96zM7.031 11.042L5 13.749H.625a.625.625 0 00-.625.625v1.25c0 .345.28.626.625.626h4.999c.394 0 .765-.186 1.001-.5l1.969-2.626-1.563-2.082z"/></svg>