<?xml version="1.0" encoding="utf-8"?><svg width="85" height="116" xmlns="http://www.w3.org/2000/svg" viewBox="0 0 85 116"><g clip-path="url(#qclip0)"><path d="M.1 92.41a2.73 2.73 0 01.824-2.014 2.82 2.82 0 012.093-.83 3.31 3.31 0 011.551.356v1.44a3.05 3.05 0 00-1.393-.348 1.457 1.457 0 00-1.089.408 1.355 1.355 0 00-.39.987c-.01.365.123.719.37.987a1.32 1.32 0 001.024.402 3.362 3.362 0 001.531-.356v1.455a3.675 3.675 0 01-1.67.342 2.728 2.728 0 01-2.027-.823A2.756 2.756 0 01.1 92.41zm5.71 2.717v-5.449h3.657v1.316H7.394v.724h1.775v1.25H7.394v.81h2.185v1.316l-3.77.033zm9.373 0h-1.65l-.799-1.685h-.449v1.692h-1.551v-5.45h2.06a2.647 2.647 0 011.67.494 1.693 1.693 0 01.62 1.422 1.621 1.621 0 01-.964 1.586l1.063 1.94zm-2.31-4.113h-.588v1.165h.588c.409 0 .607-.198.607-.586a.544.544 0 00-.165-.44.694.694 0 00-.442-.139zm3.03-1.336h4.39v1.316H18.9v4.113h-1.598v-4.113h-1.4v-1.316zm7.017 0v5.449h-1.584v-5.449h1.584zm1.433 5.449v-5.449h3.472v1.316h-1.881v.81h1.584v1.316h-1.584v2.007h-1.591zm6.172-5.449v5.449h-1.584v-5.449h1.584zm1.44 5.449v-5.449h3.683v1.316h-2.1v.724h1.776v1.25h-1.776v.81h2.185v1.316l-3.769.033zm1.656-7.45h1.868l-1.221 1.554h-1.215l.568-1.553zm3.268 7.45v-5.449h3.657v1.316h-2.073v.724h1.796v1.25h-1.796v.81h2.185v1.316l-3.77.033zm7.043-2.718a2.73 2.73 0 01.826-2.014 2.82 2.82 0 012.112-.829 3.309 3.309 0 011.551.356v1.44a3.051 3.051 0 00-1.392-.348 1.457 1.457 0 00-1.09.408 1.471 1.471 0 000 1.974 1.319 1.319 0 001.023.402 3.362 3.362 0 001.519-.35v1.455a3.673 3.673 0 01-1.67.342 2.729 2.729 0 01-2.027-.822 2.755 2.755 0 01-.852-2.014zm9.15 2.718l-.343-.718h-1.664l-.33.718h-1.65l2.78-5.521h.072l2.779 5.52h-1.644zm-1.175-2.757a8.075 8.075 0 01-.39 1.013h.786a7.308 7.308 0 01-.383-1.013h-.013zm5.578-2.692a2.693 2.693 0 011.697.494 1.68 1.68 0 01.66 1.421 1.693 1.693 0 01-.66 1.435 2.733 2.733 0 01-1.697.48h-.283v1.619h-1.585v-5.449h1.868zm.086 1.316h-.37v1.165h.37c.43 0 .66-.197.66-.586a.524.524 0 00-.178-.44.755.755 0 00-.482-.119v-.02zm4.832-1.316v5.449H60.82v-5.449h1.584zm1.043 0h4.384v1.316h-1.393v4.113h-1.598v-4.113h-1.393v-1.316zm8.866 5.449l-.343-.718h-1.664l-.33.718h-1.65l2.78-5.521h.072l2.779 5.52h-1.644zm-1.181-2.757a6.78 6.78 0 01-.383 1.013h.785a7.307 7.307 0 01-.383-1.013h-.02zm7.168 2.757h-3.452v-5.449h1.584v4.12H78.3v1.329zm-.105 17.517H.158V116h78.036v-3.356zm-72.088-6.508H3.882l-1.083-2.29h-.6v2.29H.105v-7.35h2.772a3.56 3.56 0 012.251.657 2.31 2.31 0 01.845 1.929c.026.447-.086.892-.323 1.273a2.196 2.196 0 01-.997.859l1.452 2.632zm-3.115-5.554h-.793v1.573h.793c.547 0 .818-.264.818-.783a.73.73 0 00-.224-.599.916.916 0 00-.594-.191zm4.62 5.554v-7.35h4.932v1.796H9.75v.981h2.39v1.684H9.75v1.093h2.945v1.796H7.612zm9.606-4.442c.343.145.62.276.838.395a3.6 3.6 0 01.66.447c.207.177.366.404.462.658.103.276.152.568.146.862a1.967 1.967 0 01-.766 1.652 3.565 3.565 0 01-2.198.586 5.647 5.647 0 01-2.252-.402v-2.04c.65.376 1.388.578 2.14.586.66 0 .99-.125.99-.382a.327.327 0 00-.053-.177.697.697 0 00-.218-.165 2.942 2.942 0 00-.297-.138l-.436-.171-.264-.099a4.505 4.505 0 01-1.531-.895 1.973 1.973 0 01-.496-1.461 2.05 2.05 0 01.786-1.678 3.267 3.267 0 012.1-.658 5.218 5.218 0 011.98.35v1.973a3.236 3.236 0 00-1.822-.474 1.674 1.674 0 00-.713.125.377.377 0 00-.258.349c0 .119.086.231.258.329.307.159.622.301.944.428zm6.113-2.908a3.678 3.678 0 012.284.658 2.633 2.633 0 01.843 1.928 2.62 2.62 0 01-.843 1.928 3.673 3.673 0 01-2.284.658h-.383v2.184h-2.14v-7.356h2.523zm.112 1.796h-.495v1.573h.495c.574 0 .865-.263.865-.783a.7.7 0 00-.245-.599.993.993 0 00-.62-.191zm4 1.882a3.706 3.706 0 011.11-2.718 4.133 4.133 0 015.644 0 3.868 3.868 0 010 5.436 4.155 4.155 0 01-5.645 0 3.684 3.684 0 01-1.109-2.718zm2.146 0c-.01.487.17.958.501 1.316a1.743 1.743 0 001.98.413c.22-.096.418-.237.582-.413a1.97 1.97 0 000-2.632 1.74 1.74 0 00-1.28-.565 1.74 1.74 0 00-1.282.565c-.33.358-.51.829-.501 1.316zm13.599 3.771l-4.238-3.396v3.291h-2.087v-7.423h.106l4.212 3.395v-3.29h2.1v7.449l-.093-.026zm5.004-4.541c.336.145.62.276.838.395a3.9 3.9 0 01.66.447c.203.18.36.406.456.658.104.276.156.568.151.862a1.974 1.974 0 01-.785 1.646 3.599 3.599 0 01-2.205.585 5.629 5.629 0 01-2.251-.401v-2.04a4.413 4.413 0 002.139.586c.66 0 .997-.125.997-.382a.29.29 0 00-.06-.178.67.67 0 00-.211-.164 2.737 2.737 0 00-.297-.138l-.436-.172-.27-.098a4.502 4.502 0 01-1.525-.895 1.98 1.98 0 01-.502-1.461 2.024 2.024 0 01.785-1.678 3.242 3.242 0 012.1-.658 5.237 5.237 0 011.98.349v1.974a3.262 3.262 0 00-1.822-.474 1.628 1.628 0 00-.713.125.377.377 0 00-.264.349c0 .118.086.23.264.329.315.164.639.309.97.434zm8.218 4.442l-.462-.974H53.71l-.449.974h-2.224l3.756-7.43h.099l3.743 7.45-2.225-.02zm-1.584-3.724c-.144.464-.318.919-.522 1.362h1.063a8.74 8.74 0 01-.521-1.362h-.02zm5.004 3.724v-7.35h2.502a4.123 4.123 0 012.191.526 1.752 1.752 0 01.832 1.586c.012.316-.084.626-.27.882-.172.221-.4.394-.66.5.336.097.633.3.844.579.249.296.38.673.37 1.059a1.855 1.855 0 01-.845 1.672 4.21 4.21 0 01-2.297.546h-2.667zm2.64-5.653h-.594v1.25h.594c.515 0 .766-.203.766-.618s-.264-.632-.779-.632h.013zm.152 2.632h-.759v1.356h.746a1.04 1.04 0 00.588-.158.581.581 0 00.23-.513.592.592 0 00-.23-.52 1.003 1.003 0 00-.588-.198l.013.033zm9.229 3.021h-4.621v-7.35h2.086v5.554h2.515l.02 1.796zm1.426 0v-7.35h4.931v1.796h-2.792v.981h2.396v1.684h-2.396v1.093h2.95v1.796h-5.09zm-3.388-42.61a38.587 38.587 0 006.859-12.957 38.907 38.907 0 00-3.373-30.777A39.574 39.574 0 0063.986 8.77a39.282 39.282 0 00-15.623-7.692A39.354 39.354 0 0030.939.889a39.287 39.287 0 00-15.787 7.352A39.134 39.134 0 004.115 21.682a39.007 39.007 0 00-.478 33.869A39.124 39.124 0 0014.29 69.296a39.28 39.28 0 0015.573 7.792c.99.253 1.993.453 3.004.599a38.922 38.922 0 0017.659-1.132l.337-.106.884-.29.304-.111a38.926 38.926 0 007.763-3.665c.086-.053.172-.099.258-.158.396-.244.779-.507 1.168-.763l.72-.494.383-.283 1.32-.954c.304-.237.574-.474.845-.71l.244-.205.06-.053a37.23 37.23 0 002.541-2.349c.1-.105.198-.217.304-.322a42.898 42.898 0 002.27-2.547l-.039-.02zm2.964-12.2c-.152.434-.363.842-.535 1.27-.31.756-.6 1.52-.963 2.25-.238.48-.529.94-.793 1.415-.35.658-.66 1.316-1.076 1.901-.317.5-.66.961-1.03 1.448s-.759 1.112-1.181 1.645l-5.664 5.64-.106.085a32.57 32.57 0 01-2.337 1.704c-.218.152-.449.284-.66.428-.541.349-1.09.658-1.65 1-.39.218-.786.422-1.182.659-.396.236-.845.434-1.274.658-.429.223-.878.394-1.32.579l-.66.256a9.12 9.12 0 01-.29-2.27.36.36 0 000-.085 7.955 7.955 0 01.534-2.751 8.333 8.333 0 014-4.409l4.12-2.211-3.354-3.29a14.296 14.296 0 01-4.159-7.061 11.08 11.08 0 01-.25-3.007v-.435c.298-2.27.893-4.49 1.769-6.606a83.562 83.562 0 0112.872-22.696c.066.092.139.177.212.27.158.21.316.434.468.657.27.362.528.738.78 1.113.151.223.296.454.441.658.238.381.47.763.694 1.145.138.236.27.473.402.71.218.395.423.79.627 1.191.12.237.238.468.344.704.204.422.39.856.574 1.284.093.217.192.434.284.658.198.493.383.993.554 1.494.06.164.126.322.179.486.224.672.429 1.35.614 2.034 0 .072.033.151.052.223.159.606.304 1.211.43 1.823.046.224.085.454.125.658.088.461.167.922.238 1.382l.099.823c.052.42.099.849.132 1.276 0 .29.046.58.06.876 0 .414.045.829.052 1.25v2.145c0 .296 0 .586-.04.882 0 .434-.066.868-.112 1.316 0 .283-.046.56-.08.836-.059.473-.138.954-.217 1.434 0 .23-.066.467-.106.698-.132.71-.283 1.421-.455 2.132a34.742 34.742 0 01-1.162 3.724zM47.529 67.453c-1.63 0-3.258-.085-4.879-.257a9.798 9.798 0 013.301-5.718c.97-.833 2.072-1.5 3.261-1.974a7.21 7.21 0 015.763.184c-1.778.935-3.3 2.29-4.43 3.948a7.35 7.35 0 00-.66 1.007c-.146.3-.273.607-.382.921-.046.106-.1.204-.145.316-.193.515-.35 1.043-.47 1.58-.362.013-.91-.007-1.359-.007zm3.96-28.48c-1.458 4.12-2.52 7.745-1.583 11.943a16.124 16.124 0 001.148 3.29l-.614-.493c-6.027-5.087-8.377-9.627-7.849-15.096.614-6.356 3.572-13.325 8.793-20.748.383.257 1.61 1.113 1.61 1.113 1.242.875 3.962 2.875 6.114 4.645a81.124 81.124 0 00-7.585 15.346h-.033zM39.305 74.778c-1.967 0-3.93-.163-5.87-.487a24.37 24.37 0 01-2.732-.54A35.788 35.788 0 019.816 59.4a35.585 35.585 0 01-6.095-24.546 35.636 35.636 0 0111.76-22.407A35.851 35.851 0 0139.185 3.44c2.892.003 5.774.354 8.582 1.047a35.674 35.674 0 0117.295 9.95c.106.111.198.23.304.342a102.378 102.378 0 00-4.37 5.955 108.83 108.83 0 00-6.007-4.56l-.502-.35c-.72-.5-1.46-1-2.225-1.506a94.365 94.365 0 00-1.723-1.112c-5.565 7.278-10.503 15.984-11.38 25.084-.753 7.772 3.346 13.24 9.03 18.05a13.83 13.83 0 00-4.443 2.514 13.611 13.611 0 00-3.692 5.111 13.57 13.57 0 00-.988 6.22c3.178.524 6.398.745 9.618.659.062.838.21 1.667.443 2.474a35.537 35.537 0 01-9.823 1.461zm44.534-25.247a25.393 25.393 0 00-9.17 15.352A38.917 38.917 0 0185 53.96a43.28 43.28 0 01-1.162-4.429z"/><path d="M25.435 32.725l1.987 4.014 4.443.645-3.215 3.125.76 4.41-3.975-2.08-3.974 2.08.76-4.41-3.215-3.125 4.442-.645 1.987-4.014z"/></g><defs><clipPath id="qclip0"><path d="M0 0h85v116H0z"/></clipPath></defs></svg>