<?xml version="1.0" encoding="utf-8"?><svg width="18" height="19" xmlns="http://www.w3.org/2000/svg" viewBox="0 0 18 19"><g clip-path="url(#rclip0)"><path d="M7.566 9.827c2.473 0 4.478-2.116 4.478-4.727 0-2.61-2.005-4.726-4.478-4.726S3.088 2.49 3.088 5.1s2.005 4.727 4.478 4.727zm2.168-2.862c-.204.71-1.077 1.245-2.122 1.245-1.046 0-1.919-.534-2.123-1.245h4.245zm8.155 7.984l-4.097 3.604a.303.303 0 01-.416-.02l-2.04-2.153a.34.34 0 010-.461l.437-.461a.298.298 0 01.437 0l1.442 1.522 3.447-3.032a.299.299 0 01.434.041l.396.501a.34.34 0 01-.04.46zm-7.033 1.938l.777.82c-1.06.158-2.397.27-4.067.27-4.317 0-6.43-.745-7.205-1.109-.2-.094-.361-.362-.361-.593v-1.558c0-2.335 1.684-4.272 3.833-4.531a.344.344 0 01.215.062 5.77 5.77 0 003.518 1.21 5.77 5.77 0 003.518-1.21c.053-.04.15-.07.216-.062 2.148.26 3.833 2.196 3.833 4.53v.027l-1.44 1.266-1.003-1.058a.956.956 0 00-.699-.306.956.956 0 00-.698.306l-.437.46a1.085 1.085 0 000 1.476z"/></g><defs><clipPath id="rclip0"><path d="M0 0h18v19H0z"/></clipPath></defs></svg>