<?xml version="1.0" encoding="utf-8"?><svg viewBox="0 0 161 116" xmlns="http://www.w3.org/2000/svg" xmlns:xlink="http://www.w3.org/1999/xlink"><style>:root>svg{display:none}:root>svg:target{display:block}</style><svg viewBox="0 0 20 16" id="arrow__icon" xmlns="http://www.w3.org/2000/svg"><path d="M18.734 8.742a1 1 0 000-1.414L12.37.964a1 1 0 10-1.414 1.414l5.656 5.657-5.656 5.656a1 1 0 101.414 1.415l6.364-6.364zM.14 9.035h17.887v-2H.14v2z"/></svg><svg viewBox="0 0 27 10" id="arrow__icon2" xmlns="http://www.w3.org/2000/svg"><path d="M26.46 4.54a.65.65 0 010 .92l-4.137 4.136a.65.65 0 11-.92-.919L25.082 5l-3.677-3.677a.65.65 0 01.919-.92L26.46 4.54zM0 4.35h26v1.3H0v-1.3z"/></svg><svg viewBox="0 0 29 29" id="at__icon" xmlns="http://www.w3.org/2000/svg"><path d="M14.5 0C6.505 0 0 6.505 0 14.5S6.505 29 14.5 29c2.55 0 5.057-.67 7.252-1.94l-1.814-3.14a10.87 10.87 0 01-5.438 1.455c-5.997 0-10.875-4.878-10.875-10.875S8.503 3.625 14.5 3.625 25.375 8.503 25.375 14.5v1.579c0 1.186-.762 2.046-1.813 2.046-.999 0-1.812-.813-1.812-1.813v-7.25h-2.506C17.97 7.95 16.322 7.25 14.5 7.25c-3.998 0-7.25 3.252-7.25 7.25s3.252 7.25 7.25 7.25c1.904 0 3.625-.753 4.92-1.957.998 1.186 2.474 1.957 4.142 1.957 3.05 0 5.438-2.491 5.438-5.671V14.5C29 6.505 22.495 0 14.5 0zm0 18.125c-2 0-3.625-1.626-3.625-3.625 0-2 1.626-3.625 3.625-3.625 2 0 3.625 1.626 3.625 3.625 0 2-1.626 3.625-3.625 3.625z"/></svg><svg viewBox="0 0 23 23" id="atom__icon" xmlns="http://www.w3.org/2000/svg"><g clip-path="url(#dclip0)"><path d="M19.914 11.506c1.705-2.05 2.46-4.148 1.536-5.747-1.022-1.771-3.526-1.904-5.744-1.54-2.105-5.63-6.315-5.62-8.419-.003l-.001.003c-2.21-.362-4.72-.233-5.744 1.54C.5 7.564 1.73 9.87 3.08 11.506c-.143.173-.28.347-.41.522-3.254 4.387-1.04 7.704 4.62 6.767C8.234 21.325 9.697 23 11.496 23c1.84 0 3.28-1.696 4.206-4.193 5.607.938 7.907-2.348 4.62-6.779-.13-.175-.266-.349-.408-.522zm-6.636 5.168a25.63 25.63 0 001.804-1.047c-.095.515-.21 1.015-.344 1.494a17.6 17.6 0 01-1.46-.447zm-1.782-.724a24.047 24.047 0 01-3.849-2.222 24.05 24.05 0 010-4.445c1.2-.85 2.516-1.61 3.85-2.22a24.082 24.082 0 013.848 2.223c.137 1.461.137 2.98 0 4.441a24.074 24.074 0 01-3.849 2.223zm-1.78.724c-.493.174-.981.324-1.462.448a17.554 17.554 0 01-.343-1.49c.594.376 1.199.724 1.804 1.042zM6.13 12.547c-.396-.339-.77-.687-1.118-1.041a17.54 17.54 0 011.118-1.041 25.666 25.666 0 000 2.082zM7.911 7.38c.096-.513.21-1.01.343-1.489.482.124.97.275 1.462.448-.612.321-1.217.67-1.805 1.041zm5.367-1.04c.492-.174.98-.324 1.46-.448.133.478.248.976.343 1.488a25.758 25.758 0 00-1.803-1.04zm3.586 4.13c.396.338.77.685 1.116 1.038-.348.354-.722.702-1.12 1.042.03-.69.032-1.386.005-2.08zm3.342-3.992c.49.85.025 2.319-1.27 3.952a20.464 20.464 0 00-2.229-1.93 20.483 20.483 0 00-.558-2.898c.127-.019.252-.036.377-.05 1.22-.142 3.076-.12 3.68.926zm-8.71-5.028c.98 0 2.02 1.138 2.787 3.075-.906.24-1.845.567-2.787.968a20.453 20.453 0 00-2.787-.968c.767-1.937 1.807-3.075 2.787-3.075zm-8.71 5.028c.605-1.047 2.46-1.068 3.68-.926.125.014.252.031.379.05a21.627 21.627 0 00-.555 2.895 20.487 20.487 0 00-2.234 1.933c-1.294-1.633-1.76-3.102-1.27-3.952zm4.058 10.934c-1.3.193-3.404.256-4.058-.876-.49-.85-.024-2.319 1.27-3.952a20.39 20.39 0 002.234 1.932c.124 1.021.312 1.995.557 2.896h-.003zm4.652 4.152c-.98 0-2.02-1.137-2.787-3.075a20.407 20.407 0 002.788-.966c.986.42 1.916.742 2.783.974-.766 1.933-1.805 3.067-2.784 3.067zm8.71-5.028c-.606 1.05-2.466 1.067-3.68.926a11.527 11.527 0 01-.381-.05c.244-.909.431-1.888.556-2.904a21.114 21.114 0 002.232-1.928.075.075 0 00.003.004c1.295 1.633 1.76 3.102 1.27 3.952z"/><path d="M11.496 14.38a2.873 2.873 0 100-5.747 2.873 2.873 0 000 5.747z"/></g><defs><clipPath id="dclip0"><path d="M0 0h23v23H0z"/></clipPath></defs></svg><svg viewBox="0 0 61 60" id="boss__icon" xmlns="http://www.w3.org/2000/svg"><path d="M8.85 25.116h11.429a.72.72 0 00.505-.206.697.697 0 000-.995.72.72 0 00-.505-.206H8.849a.721.721 0 00-.505.206.697.697 0 000 .995.721.721 0 00.505.206zm20.143 9.907h6.488a.72.72 0 00.505-.207.697.697 0 000-.994.72.72 0 00-.505-.206h-6.488a.72.72 0 00-.505.206.697.697 0 000 .994.72.72 0 00.505.206zM8.85 31.02h11.43a.72.72 0 00.505-.206.697.697 0 000-.994.72.72 0 00-.505-.206H8.849a.72.72 0 00-.505.206.697.697 0 000 .994.72.72 0 00.505.206zm0 5.906h11.43a.72.72 0 00.505-.206.697.697 0 000-.995.72.72 0 00-.505-.206H8.849a.721.721 0 00-.505.206.698.698 0 000 .995.72.72 0 00.505.206zm0 5.905h11.43a.72.72 0 00.505-.206.697.697 0 000-.994.72.72 0 00-.505-.206H8.849a.721.721 0 00-.505.206.697.697 0 000 .994.72.72 0 00.505.206zm0 5.905h11.43a.72.72 0 00.505-.206.697.697 0 000-.994.72.72 0 00-.505-.206H8.849a.72.72 0 00-.505.206.697.697 0 000 .994.721.721 0 00.505.206zm20.144-7.928h6.488a.72.72 0 00.505-.206.697.697 0 000-.994.72.72 0 00-.505-.206h-6.488a.72.72 0 00-.505.206.697.697 0 000 .994.72.72 0 00.505.206zm.573 4.38h-.572a.72.72 0 00-.506.206.698.698 0 000 .994.721.721 0 00.506.206h.572a.72.72 0 00.505-.206.697.697 0 000-.994.72.72 0 00-.505-.206zm-.573-15.953h6.488c.19 0 .371-.074.505-.206a.697.697 0 000-.994.721.721 0 00-.505-.206h-6.488a.721.721 0 00-.505.206.698.698 0 000 .994.721.721 0 00.505.206zm0-5.786h6.488c.19 0 .371-.074.505-.206a.697.697 0 000-.994.72.72 0 00-.505-.206h-6.488a.72.72 0 00-.505.206.697.697 0 000 .994.721.721 0 00.505.206zM8.85 19.21h11.43a.72.72 0 00.505-.206.697.697 0 000-.994.72.72 0 00-.505-.206H8.849a.721.721 0 00-.505.206.697.697 0 000 .994.72.72 0 00.505.206z"/><path d="M51.09 41.858h-2.222a.871.871 0 01-.61-.25.843.843 0 01-.253-.6.69.69 0 00-.04-.23v-1.77a5.857 5.857 0 001.537-1.998c.36-.767.545-1.602.545-2.447v-3.522a5.818 5.818 0 00-1.746-4.142 6.014 6.014 0 00-4.21-1.718h-.066a5.995 5.995 0 00-3.059.835v-9.124a.697.697 0 00-.21-.497.721.721 0 00-.505-.206H26.087v-4.318a.698.698 0 00-.21-.497.72.72 0 00-.505-.206h-2.33V6.036a.697.697 0 00-.21-.497.721.721 0 00-.505-.206h-6.986V1.875a.697.697 0 00-.21-.497.72.72 0 00-1.01 0 .697.697 0 00-.21.497v3.458H6.8a.72.72 0 00-.505.206.697.697 0 00-.21.497v5.132h-2.33a.72.72 0 00-.506.206.697.697 0 00-.209.497v41.9c0 .186.075.365.21.497a.72.72 0 00.505.206h26.4v3.651c0 .187.076.365.21.497a.721.721 0 00.505.206h26.373c.19 0 .372-.074.506-.206a.698.698 0 00.21-.497v-9.511a6.708 6.708 0 00-2.015-4.775 6.935 6.935 0 00-4.854-1.981zM7.517 6.739h14.096v4.429H7.516V6.739zm17.142 46.328H4.47V12.574h20.186v40.493zm19.432-26.48a4.57 4.57 0 013.2 1.306 4.421 4.421 0 011.328 3.148v3.522a4.421 4.421 0 01-1.328 3.148 4.57 4.57 0 01-3.2 1.305h-.065a4.57 4.57 0 01-3.2-1.305 4.42 4.42 0 01-1.327-3.148v-3.522a4.42 4.42 0 011.328-3.148 4.57 4.57 0 013.2-1.305h.064zm-.093 19.27h.284l1.246 7.049-1.49 1.71-1.443-1.698 1.403-7.06zm-.697-2.593h1.515l-.413 1.188h-.688l-.414-1.188zm-.68-1.407l-1.028-1.136v-.811a6.002 6.002 0 002.433.513h.065c.843 0 1.677-.177 2.445-.519v1.007l-1.006.947H42.62zm-16.533 11.21V17.595h13.45v9.6a5.778 5.778 0 00-1.469 3.846v3.522c0 .848.188 1.685.55 2.454.36.77.888 1.453 1.545 2.002v1.828a.683.683 0 00-.02.162c0 .225-.091.44-.253.6a.871.871 0 01-.61.249h-2.255a6.935 6.935 0 00-4.855 1.98 6.708 6.708 0 00-2.014 4.776v4.454h-4.069zm30.442 4.355H31.586v-8.808a5.311 5.311 0 011.595-3.782 5.491 5.491 0 013.844-1.568h2.255a2.32 2.32 0 001.041-.248c.322-.162.601-.397.813-.686l.536.592.95 2.54-1.495 7.515a.69.69 0 00.153.586l2.204 2.594a.714.714 0 00.545.252h.004a.724.724 0 00.543-.246l2.258-2.594a.699.699 0 00.161-.578l-1.367-7.733.81-2.308.612-.575c.206.266.47.484.772.638a2.317 2.317 0 001.016.25h2.255a5.49 5.49 0 013.844 1.569 5.311 5.311 0 011.595 3.781v8.809z"/><path d="M52.718 48.377h-3.386a.72.72 0 00-.505.205.697.697 0 000 .995.721.721 0 00.505.206h3.386c.19 0 .37-.074.505-.206a.697.697 0 000-.995.72.72 0 00-.505-.206z"/></svg><svg viewBox="0 0 21 21" id="check__icon" xmlns="http://www.w3.org/2000/svg"><g clip-path="url(#fclip0)"><path d="M21 10.5l-2.377-2.64.372-3.533-3.476-.736-1.774-3.08L10.5 1.96 7.255.511 5.48 3.59l-3.476.736.372 3.534L0 10.5l2.377 2.64-.372 3.533 3.476.736 1.774 3.08 3.245-1.45 3.245 1.45 1.774-3.08 3.476-.736-.372-3.534L21 10.5zm-6.098-2.3l-5.27 5.906-3.663-3.663.87-.87 2.741 2.74 4.403-4.932.919.82z"/></g><defs><clipPath id="fclip0"><path d="M0 0h21v21H0z"/></clipPath></defs></svg><svg viewBox="0 0 59 59" id="coaching__icon" xmlns="http://www.w3.org/2000/svg"><g clip-path="url(#gclip0)"><path d="M55.6 8.754h-2.446V6.438a.864.864 0 00-.864-.864h-5.211a.864.864 0 00-.864.864v2.316H17.662V6.438a.864.864 0 00-.864-.864h-5.211a.864.864 0 00-.864.864v2.316h-2.02a3.831 3.831 0 00-3.827 3.826v21.03a.864.864 0 001.729 0V12.58a2.1 2.1 0 012.098-2.098H55.6c.922 0 1.672.75 1.672 1.672v28.581c0 .922-.75 1.672-1.672 1.672h-1.842v-3.271a.864.864 0 00-.864-.864h-9.287a.864.864 0 00-.864.864v3.27H28.891l3.27-.893a8.378 8.378 0 004.293-2.782l5.554-6.766a.878.878 0 00.195-.482l.49-6.452a1.54 1.54 0 00-.927-1.51.863.863 0 00-.426-1.616h-3.787a.864.864 0 000 1.729h2.827c-.095.06-.184.13-.266.213l-3.172 3.171c-.612.613-1.117 1.382-1.66 2.057a.864.864 0 001.347 1.083l.995-1.236 2.551 2.552-5.057 6.16a6.66 6.66 0 01-3.412 2.211l-13.648 3.928c-1.057.338-.53 1.984.528 1.646l3.002-.963v7.242h-1.2a.864.864 0 000 1.728h5.282a.864.864 0 100-1.728h-2.354v-7.563H55.6c1.875 0 3.4-1.525 3.4-3.4V12.154c0-1.875-1.525-3.4-3.4-3.4zm-7.657-1.452h3.483v1.451h-3.483v-1.45zm-35.492 0h3.482v1.451h-3.482v-1.45zM40.925 25.48l-.303 3.995-1.846-1.846 2.149-2.15zm3.547 16.927V40h7.558v2.407h-7.558z"/><path d="M16.26 51.698H5.164V47.11c0-2.915.672-5.824 1.955-8.442a4.235 4.235 0 013.778-2.357H25.46c3.044 0 6.005-1.075 8.338-3.029a.864.864 0 00-1.11-1.325 11.277 11.277 0 01-7.228 2.626h-6.259a5.591 5.591 0 001.568-3.885v-3.173a4.273 4.273 0 003.985-4.258 4.274 4.274 0 00-4.269-4.27c-1.438-.033-2.808.302-3.817 1.399a2.617 2.617 0 01-1.918.84h-2.375a3.602 3.602 0 00-3.597 3.6v6.476c0 .736.176 1.458.62 2.055.201.269.448.503.726.69.301.202.74.275.98.526-2.313-.039-4.51 1.228-5.537 3.324a20.99 20.99 0 00-2.132 9.203v4.59H.865a.864.864 0 100 1.728H16.26a.864.864 0 000-1.729zm-1.35-17.124c-.482-.03-.95-.15-1.383-.35.2-.103.395-.23.569-.373.718-.593 1.114-1.47 1.114-2.47v-3.847h3.83v3.163a3.89 3.89 0 01-4.13 3.877zm-4.404-3.262v-6.478c0-1.031.838-1.87 1.869-1.87h2.375c1.207 0 2.37-.51 3.19-1.398.679-.74 1.6-.876 2.545-.841 1.4 0 2.54 1.14 2.54 2.54 0 1.401-1.14 2.54-2.54 2.54h-6.14a.864.864 0 00-.864.865v4.71c0 1.009-.89 1.642-1.853 1.458-.773-.147-1.122-.776-1.122-1.527zM29.585 18.773h4.707a.864.864 0 00.864-.864v-3.18a.864.864 0 00-.864-.864h-4.707a.864.864 0 00-.864.864v3.18c0 .478.387.864.864.864zm.864-3.18h2.979v1.452h-2.979v-1.452zM28.72 24.36c0 .477.388.864.865.864h4.707a.864.864 0 00.864-.864v-3.18a.864.864 0 00-.864-.865h-4.707a.864.864 0 00-.864.864v3.18zm1.73-2.316h2.978v1.451h-2.979v-1.451zM37.554 17.183h15.34a.864.864 0 000-1.728h-15.34a.864.864 0 100 1.728z"/></g><defs><clipPath id="gclip0"><path d="M0 0h59v59H0z"/></clipPath></defs></svg><svg viewBox="0 0 35 35" id="earth__icon" xmlns="http://www.w3.org/2000/svg"><g clip-path="url(#hclip0)"><path d="M34.074 11.895a15.131 15.131 0 00-1.818-3.8A17.503 17.503 0 0022.553.748 17.51 17.51 0 00.946 23.197a17.501 17.501 0 0033.128-11.302zm-9.213-1.056l3.393 2.194.496 2.794-2.437 2.437a.48.48 0 00-.14.339v3.094l-1.512 1.512a.476.476 0 00-.14.338v1.888l-3.107 3.107-2.324-2.324v-4.627a.478.478 0 00-.14-.338l-3.783-3.782a.476.476 0 00-.338-.14H11.81l-2.24-2.24v-4.535l3.527-3.528 2.484-.978 1.516 1.516a.479.479 0 00.286.137l5.688.627a.483.483 0 00.252-.04l3.371-1.545a.478.478 0 00.06-.837L21.67 2.624a.478.478 0 00-.198-.072l-7.806-1.014-.028-.12a16.543 16.543 0 0118.95 9.31l-1.036-.721a.58.58 0 00-.048-.03l-2.74-1.463a.478.478 0 00-.418-.016l-3.418 1.501a.479.479 0 00-.067.84zM1.148 20.024a16.695 16.695 0 01-.185-2.252l.095.062a.477.477 0 00.363.067l.824-.181 2.273 1.819a.478.478 0 00.37.099l2.96-.45 1.72 2.198-.028 3.105-3.766.442a.476.476 0 00-.32.18L3.969 27a16.449 16.449 0 01-2.82-6.976zM17.5 34.044a16.518 16.518 0 01-12.938-6.251l1.521-1.933 3.987-.466a.48.48 0 00.423-.471l.032-3.695a.48.48 0 00-.1-.299L8.43 18.38a.475.475 0 00-.45-.177l-3.029.46-2.287-1.831a.479.479 0 00-.402-.094l-.85.186-.434-.283A16.576 16.576 0 0112.715 1.667l.09.407a.48.48 0 00.406.37l8.032 1.043 4.26 2.75-2.457 1.126-5.39-.593-1.62-1.62a.479.479 0 00-.513-.107l-2.869 1.13a.482.482 0 00-.163.107l-3.738 3.738a.478.478 0 00-.14.338v4.933a.478.478 0 00.14.338l2.521 2.52c.09.09.212.141.339.141h3.018l3.5 3.5v4.627a.48.48 0 00.14.338l2.803 2.804a.476.476 0 00.677 0l3.587-3.585a.48.48 0 00.14-.339v-1.888l1.512-1.512c.09-.09.14-.21.14-.338v-3.094l2.473-2.473a.476.476 0 00.133-.422l-.576-3.245a.479.479 0 00-.211-.318l-2.822-1.825 2.39-1.05 2.51 1.34 2.183 1.52A16.535 16.535 0 0117.5 34.044z"/></g><defs><clipPath id="hclip0"><path d="M0 0h35v35H0z"/></clipPath></defs></svg><svg viewBox="0 0 60 60" id="interview__icon" xmlns="http://www.w3.org/2000/svg"><g clip-path="url(#iclip0)"><path d="M55.238 17.188h-12.71V8.358a4.767 4.767 0 00-4.762-4.761H4.762A4.767 4.767 0 000 8.359v13.088a.879.879 0 101.758 0V8.36a3.007 3.007 0 013.004-3.004h33.004A3.007 3.007 0 0140.77 8.36v23.297a3.007 3.007 0 01-3.004 3.004H18.754c-.495 0-.96.193-1.308.542l-5.825 5.824c-.016.017-.043.043-.1.02-.056-.023-.056-.062-.056-.085V36.51c0-1.02-.83-1.85-1.85-1.85H4.762a3.007 3.007 0 01-3.004-3.004v-6.693a.879.879 0 10-1.758 0v6.693a4.767 4.767 0 004.762 4.762h4.853c.05 0 .092.041.092.092v4.451a1.85 1.85 0 003.158 1.308l4.608-4.608v7.585a4.767 4.767 0 004.761 4.762H32.88a.879.879 0 100-1.758H22.234a3.007 3.007 0 01-3.003-3.004v-8.828h18.535a4.767 4.767 0 004.761-4.762v-12.71h12.711a3.007 3.007 0 013.004 3.003v23.297a3.007 3.007 0 01-3.004 3.004h-4.853c-1.02 0-1.85.83-1.85 1.85v4.451c0 .023 0 .061-.056.085-.056.024-.084-.003-.1-.02l-5.824-5.824a1.837 1.837 0 00-1.308-.542h-4.852a.879.879 0 100 1.758h4.852c.024 0 .047.01.065.027l5.824 5.824a1.845 1.845 0 002.016.401 1.844 1.844 0 001.141-1.709V50.1c0-.05.042-.092.092-.092h4.854A4.767 4.767 0 0060 45.246V21.95a4.768 4.768 0 00-4.762-4.762z"/><path d="M27.18 41.363a2.823 2.823 0 002.82 2.82 2.823 2.823 0 002.82-2.82 2.823 2.823 0 00-2.82-2.82 2.823 2.823 0 00-2.82 2.82zm3.882 0a1.064 1.064 0 01-2.125 0 1.064 1.064 0 012.125 0zM18.443 29.715a2.824 2.824 0 002.82 2.82 2.823 2.823 0 002.82-2.82 2.823 2.823 0 00-2.82-2.82 2.823 2.823 0 00-2.82 2.82zm3.883 0a1.064 1.064 0 01-2.125 0 1.064 1.064 0 012.125 0zm1.758-9.449a6.7 6.7 0 003.866-6.551c-.228-3.316-2.901-5.99-6.217-6.218a6.733 6.733 0 00-5.043 1.786 6.726 6.726 0 00-2.13 4.9 2.824 2.824 0 002.82 2.821 2.823 2.823 0 002.82-2.82 1.067 1.067 0 011.144-1.06c.505.035.944.474.979.979.032.463-.232.89-.657 1.065a5.204 5.204 0 00-3.223 4.84v1.942a2.823 2.823 0 002.82 2.82 2.824 2.824 0 002.82-2.82v-1.684zm-.942-1.506a1.334 1.334 0 00-.816 1.248v1.941a1.064 1.064 0 01-2.125 0v-1.941c0-1.42.837-2.682 2.133-3.214a2.823 2.823 0 001.743-2.812c-.095-1.37-1.241-2.517-2.612-2.612a2.798 2.798 0 00-2.125.75 2.793 2.793 0 00-.897 2.064 1.064 1.064 0 01-2.125 0c0-1.366.573-2.684 1.572-3.616a4.962 4.962 0 013.723-1.317 4.956 4.956 0 014.584 4.585 4.946 4.946 0 01-3.055 4.924zm27.151 22.603a2.823 2.823 0 00-2.82-2.82 2.823 2.823 0 00-2.82 2.82 2.823 2.823 0 002.82 2.82 2.823 2.823 0 002.82-2.82zm-3.883 0a1.064 1.064 0 012.125 0 1.064 1.064 0 01-2.125 0zm-7.673 2.82a2.823 2.823 0 002.82-2.82 2.823 2.823 0 00-2.82-2.82 2.823 2.823 0 00-2.82 2.82 2.823 2.823 0 002.82 2.82zm0-3.882a1.064 1.064 0 010 2.124 1.064 1.064 0 010-2.124z"/></g><defs><clipPath id="iclip0"><path d="M0 0h60v60H0z"/></clipPath></defs></svg><svg viewBox="0 0 13 19" id="location__icon" xmlns="http://www.w3.org/2000/svg"><path d="M5.235.99C2.751 1.435.8 3.476.356 5.959a6.107 6.107 0 002.218 5.944 11.15 11.15 0 013.548 5.41l.355 1.331.443-1.33c.621-2.218 2.04-4.08 3.726-5.589 1.242-1.064 2.04-2.75 2.04-4.612 0-3.815-3.46-6.83-7.451-6.121zm1.242 9.67a3.559 3.559 0 01-3.548-3.548 3.559 3.559 0 013.548-3.549 3.559 3.559 0 013.548 3.549 3.559 3.559 0 01-3.548 3.548z"/></svg><svg viewBox="0 0 54 50" id="logo-img__icon" xmlns="http://www.w3.org/2000/svg"><path d="M44.43 40.604a24.814 24.814 0 004.355-8.283 24.966 24.966 0 00-2.156-19.666 24.607 24.607 0 00-3.68-4.945 26.02 26.02 0 00-2.265-2.106A24.889 24.889 0 0017.02 1.296 24.94 24.94 0 006.6 8.063 25.022 25.022 0 00.724 19.028 25.05 25.05 0 003.6 37.947a24.971 24.971 0 006.567 7.2 24.91 24.91 0 008.817 4.133c.627.164 1.264.292 1.905.382 3.752.626 7.596.38 11.237-.72l.218-.066.555-.185.196-.066a25.307 25.307 0 004.932-2.357l.164-.098.74-.491.457-.317.24-.174c.283-.208.555-.404.827-.623.273-.218.36-.294.534-.447l.152-.13a21.78 21.78 0 001.612-1.507l.185-.207a19.04 19.04 0 001.448-1.626l.043-.044zm1.883-7.782c-.098.273-.229.535-.338.808-.196.48-.38.971-.61 1.44-.228.47-.337.601-.51.907-.175.305-.426.818-.676 1.21-.25.394-.436.623-.653.929-.218.305-.49.709-.762 1.091l-3.572 3.569h-.065c-.48.382-.98.742-1.492 1.091l-.424.262c-.349.23-.697.447-1.09.644l-.75.404-.806.404-.85.37-.402.164a5.876 5.876 0 01-.175-1.375 5.065 5.065 0 01.338-1.757 5.332 5.332 0 012.548-2.816l2.613-1.418-2.178-2.085a9.139 9.139 0 01-2.645-4.518 7.199 7.199 0 01-.066-1.997 2.443 2.443 0 010-.284c.18-1.442.547-2.854 1.09-4.202a53.88 53.88 0 018.187-14.515l.13.175.305.415c.164.24.338.469.49.709.153.24.196.295.283.447.088.153.305.48.447.732.141.25.163.294.25.447.087.153.273.513.403.764.13.25.142.295.218.447.076.153.25.546.36.819.108.273.13.284.184.425.12.317.24.634.349.96 0 .1.076.197.12.306.141.426.272.863.392 1.3v.141c.097.393.184.775.272 1.168 0 .142 0 .295.076.436.076.142.109.59.152.884l.066.524c0 .273.054.546.087.819V26.362c0 .185 0 .556-.077.83-.076.272 0 .36-.054.534-.054.175-.076.611-.13.917l-.066.447c-.087.458-.185.906-.294 1.364a22 22 0 01-.675 2.368zM30.231 43.114a29.397 29.397 0 01-3.103-.153 6.257 6.257 0 012.113-3.678 7.227 7.227 0 012.08-1.276 4.573 4.573 0 013.658.12 7.943 7.943 0 00-2.82 2.531 7.912 7.912 0 00-.403.644c-.12.219-.164.393-.24.59a1.69 1.69 0 00-.087.207 7.509 7.509 0 00-.305 1.004c-.272.033-.642.011-.893.011zm2.526-18.204c-.947 2.641-1.633 4.955-1.034 7.64.172.725.417 1.43.73 2.106l-.382-.316c-3.843-3.275-5.335-6.145-4.997-9.648.392-4.07 2.319-8.524 5.585-13.271l1.024.71a83.351 83.351 0 013.887 2.968 51.496 51.496 0 00-4.813 9.811zm-7.72 22.897a22.711 22.711 0 01-3.734-.317 17.21 17.21 0 01-1.731-.338 22.729 22.729 0 01-8.04-3.774 22.786 22.786 0 01-5.987-6.57 22.84 22.84 0 01-2.62-17.256 22.83 22.83 0 013.764-8.06 22.772 22.772 0 016.555-6A22.718 22.718 0 0130.46 2.865a22.442 22.442 0 018.83 4.442 21.991 21.991 0 012.08 1.92c.07.068.136.14.196.219a69.195 69.195 0 00-2.777 3.808c-1.524-1.276-3.114-2.412-3.821-2.913l-.316-.23c-.457-.316-.925-.644-1.416-.96-.49-.317-.74-.48-1.088-.71-3.56 4.65-6.696 10.216-7.252 16.033-.479 4.987 2.123 8.469 5.75 11.535-1.032.356-1.988.9-2.82 1.605a8.73 8.73 0 00-2.984 7.246c2.022.334 4.07.48 6.119.437.04.55.134 1.095.283 1.626-2.018.583-4.107.88-6.206.884zm28.245-16.163a16.364 16.364 0 00-4.356 5.457 16.077 16.077 0 00-1.459 4.365A25.077 25.077 0 0154 34.46a40.841 40.841 0 01-.718-2.816z"/></svg><svg viewBox="0 0 161 30" id="logo__icon" xmlns="http://www.w3.org/2000/svg"><path d="M26.72 24.363a14.876 14.876 0 002.841-5.774c.923-3.723.38-7.66-1.518-10.993a14.767 14.767 0 00-2.213-2.965 15.63 15.63 0 00-1.362-1.264 15 15 0 10-13.049 26.201c.378.098.76.175 1.146.23a14.92 14.92 0 006.757-.433l.13-.039.335-.111.117-.04a15.23 15.23 0 002.966-1.414l.098-.059.446-.294.275-.19.144-.105c.17-.124.334-.242.497-.373.164-.131.216-.177.321-.269l.092-.078c.338-.285.661-.586.969-.904l.111-.124c.327-.334.622-.655.87-.975l.027-.027zm1.133-4.668c-.06.164-.138.321-.203.485-.118.288-.23.582-.367.864-.138.282-.203.36-.308.543-.105.184-.255.491-.406.727-.15.236-.261.373-.392.557-.131.183-.295.425-.459.654l-2.147 2.141h-.04c-.287.23-.589.445-.896.655l-.256.157c-.21.137-.419.268-.654.386l-.452.242-.485.243-.51.222-.243.099a3.514 3.514 0 01-.104-.825 3.03 3.03 0 01.203-1.054 3.202 3.202 0 011.532-1.69l1.57-.85L21.928 22a5.48 5.48 0 01-1.59-2.71 4.307 4.307 0 01-.04-1.199 1.464 1.464 0 010-.17c.109-.865.329-1.712.655-2.52a32.304 32.304 0 014.923-8.708l.079.105.183.248c.098.144.203.282.295.426.091.144.118.177.17.268.052.092.183.288.268.439.086.15.099.177.151.268.052.092.164.308.242.459.079.15.085.176.131.268.046.092.15.328.216.491.066.164.079.17.112.256.072.19.144.38.21.576 0 .059.045.117.071.183.085.255.164.517.236.78v.084c.059.236.111.465.163.7 0 .086 0 .178.046.263.046.085.066.353.092.53l.04.314c0 .164.032.327.052.491v1.977c0 .112 0 .334-.046.498-.046.164 0 .216-.033.32-.033.105-.046.367-.078.55l-.04.27c-.052.274-.111.543-.176.817-.11.481-.245.956-.406 1.421zm-9.67 6.174a17.725 17.725 0 01-1.866-.091 3.751 3.751 0 011.27-2.207c.37-.324.793-.583 1.25-.766a2.755 2.755 0 012.2.072 4.774 4.774 0 00-1.696 1.519c-.085.124-.17.255-.242.386-.072.131-.098.236-.144.354a4.493 4.493 0 00-.236.727c-.163.02-.386.006-.536.006zM19.7 14.95c-.57 1.584-.982 2.972-.621 4.583.103.434.25.858.438 1.263l-.229-.19c-2.311-1.964-3.208-3.686-3.005-5.787.236-2.442 1.395-5.114 3.359-7.961l.615.425a50.1 50.1 0 012.337 1.78 30.862 30.862 0 00-2.893 5.887zM15.06 28.684a13.684 13.684 0 01-2.246-.19c-.35-.05-.698-.117-1.04-.203A13.68 13.68 0 1118.32 1.724a13.507 13.507 0 015.31 2.664c.44.357.859.742 1.25 1.153.043.04.082.084.118.13a41.546 41.546 0 00-1.67 2.285 37.103 37.103 0 00-2.297-1.748l-.19-.137c-.275-.19-.557-.386-.851-.576-.295-.19-.446-.288-.655-.426-2.141 2.79-4.027 6.128-4.36 9.618-.288 2.992 1.276 5.08 3.456 6.92-.62.213-1.194.54-1.695.962a5.238 5.238 0 00-1.794 4.348c1.216.2 2.447.288 3.68.261.023.33.08.657.17.976-1.214.35-2.47.528-3.732.53zm16.983-9.696a9.82 9.82 0 00-2.62 3.274 9.63 9.63 0 00-.876 2.619 15.058 15.058 0 013.928-4.204 24.467 24.467 0 01-.432-1.689zm14.478 3.608h-7.072V12.14h6.854v2.236h-4.197v1.86h3.587v2.12h-3.587v2.003h4.415v2.237zm1.277-7.261h2.352l.073.74c.03.184.01.34-.058.465h.029c.174-.358.484-.682.93-.973a2.63 2.63 0 011.437-.435c.794 0 1.413.247 1.859.74.455.494.682 1.225.682 2.193v4.53h-2.585v-4.138c0-.668-.261-1.002-.784-1.002-.406 0-.73.14-.973.421-.242.28-.363.64-.363 1.075v3.645h-2.599v-7.261zm8.048 0h.944v-2.178h2.513v2.178h1.8v2.004h-1.8v2.483c0 .571.29.857.87.857.35 0 .737-.097 1.163-.29v2.09c-.446.213-1.094.32-1.946.32-.668 0-1.24-.16-1.714-.48-.465-.319-.755-.822-.871-1.51a6.424 6.424 0 01-.058-.77v-2.7h-.9v-2.004zm6.558 7.26v-7.26h2.352c0 .02.015.203.044.552.02.261.034.411.044.45.232-.349.532-.634.9-.857a2.188 2.188 0 011.19-.348c.069 0 .136.005.204.014.078 0 .14.005.189.015h.072v2.526h-.029a.554.554 0 00-.072-.029.323.323 0 00-.102-.043.61.61 0 00-.145-.015 1.057 1.057 0 00-.174-.014c-.504 0-.944.174-1.322.523-.377.348-.566.827-.566 1.437v3.05h-2.585zm9.265-7.463c1.094 0 1.936.329 2.527.987.6.649.9 1.452.9 2.41 0 .204-.024.523-.072.959h-4.43c.107.774.688 1.162 1.743 1.162.475 0 .954-.053 1.438-.16.484-.106.823-.208 1.016-.305v2.164c-.62.3-1.52.45-2.7.45-1.278 0-2.295-.353-3.05-1.06-.755-.716-1.133-1.641-1.133-2.774 0-1.103.358-2.018 1.075-2.744.716-.726 1.612-1.09 2.686-1.09zm.988 3.165c.01-.338-.073-.62-.247-.842-.174-.223-.431-.334-.77-.334-.329 0-.585.111-.77.334-.183.223-.28.504-.29.842h2.077zm3.645 7.493V15.335h2.338l.058.537-.029.465h.03c.164-.349.454-.634.87-.857.426-.232.891-.348 1.394-.348.959 0 1.762.343 2.411 1.03.649.688.973 1.622.973 2.803 0 1.181-.32 2.116-.959 2.803a3.103 3.103 0 01-2.366 1.03c-.475 0-.9-.086-1.278-.26-.378-.175-.668-.402-.872-.683h-.029c.03.126.044.33.044.61v3.325h-2.585zm4.153-5.14c.426 0 .775-.155 1.046-.465.28-.31.42-.716.42-1.22 0-.503-.14-.91-.42-1.22-.281-.31-.63-.464-1.046-.464-.406 0-.755.15-1.045.45-.281.3-.421.711-.421 1.234s.14.934.42 1.235c.291.3.64.45 1.046.45zm5.064 1.946v-7.261h2.352c0 .02.015.203.044.552.02.261.034.411.044.45.232-.349.532-.634.9-.857a2.189 2.189 0 011.19-.348c.069 0 .136.005.204.014.078 0 .14.005.189.015h.072v2.526h-.029a.554.554 0 00-.072-.029.322.322 0 00-.102-.043.61.61 0 00-.145-.015 1.057 1.057 0 00-.174-.014c-.504 0-.944.174-1.322.523-.377.348-.566.827-.566 1.437v3.05h-2.585zm6.041-7.261h2.6v7.26h-2.6v-7.26zm.291-1.09c-.252-.241-.378-.57-.378-.987 0-.416.126-.74.378-.972.252-.243.59-.364 1.017-.364.425 0 .76.121 1.001.364.252.232.378.556.378.972 0 .417-.126.746-.378.988-.242.242-.576.363-1.001.363-.426 0-.765-.121-1.017-.363zm7.07 6.158c0-.126-.082-.228-.247-.305-.155-.078-.43-.17-.828-.276-.774-.203-1.365-.484-1.771-.842-.407-.358-.61-.876-.61-1.554 0-.716.252-1.278.755-1.684.504-.407 1.2-.61 2.091-.61.94 0 1.777.145 2.512.435v2.193a5.592 5.592 0 00-1.83-.552 4.948 4.948 0 00-.624-.014c-.358.048-.537.17-.537.363 0 .222.315.416.944.58.89.223 1.529.514 1.917.872.397.348.595.852.595 1.51 0 .726-.281 1.288-.842 1.684-.552.397-1.326.596-2.324.596-.929 0-1.771-.155-2.526-.465v-2.25c.338.193.75.363 1.234.508.494.135.915.203 1.263.203.552 0 .828-.13.828-.392zm6.811-5.271c1.094 0 1.936.329 2.527.987.6.649.9 1.452.9 2.41 0 .204-.024.523-.073.959h-4.429c.107.774.688 1.162 1.743 1.162a6.68 6.68 0 001.438-.16c.484-.106.822-.208 1.016-.305v2.164c-.619.3-1.52.45-2.701.45-1.278 0-2.294-.353-3.049-1.06-.755-.716-1.133-1.641-1.133-2.774 0-1.103.358-2.018 1.075-2.744.716-.726 1.611-1.09 2.686-1.09zm.987 3.165c.01-.338-.072-.62-.246-.842-.175-.223-.431-.334-.77-.334-.329 0-.586.111-.77.334-.184.223-.28.504-.29.842h2.076zm10.542-3.165c1.094 0 1.937.329 2.527.987.6.649.901 1.452.901 2.41 0 .204-.025.523-.073.959h-4.429c.106.774.687 1.162 1.742 1.162.475 0 .954-.053 1.438-.16.484-.106.823-.208 1.017-.305v2.164c-.62.3-1.52.45-2.701.45-1.278 0-2.295-.353-3.05-1.06-.755-.716-1.133-1.641-1.133-2.774 0-1.103.359-2.018 1.075-2.744.716-.726 1.612-1.09 2.686-1.09zm.988 3.165c.01-.338-.073-.62-.247-.842-.174-.223-.431-.334-.77-.334-.329 0-.585.111-.769.334-.184.223-.281.504-.291.842h2.077zm-2.44-3.848l1.162-2.512h3.253l-2.164 2.512h-2.251zm5.625.886h.944v-2.178h2.512v2.178h1.8v2.004h-1.8v2.483c0 .571.29.857.871.857.349 0 .736-.097 1.162-.29v2.09c-.446.213-1.094.32-1.946.32-.668 0-1.239-.16-1.714-.48-.464-.319-.755-.822-.871-1.51a6.362 6.362 0 01-.058-.77v-2.7h-.9v-2.004zm7.294.886c.746-.726 1.69-1.09 2.832-1.09s2.081.364 2.817 1.09c.746.726 1.118 1.64 1.118 2.744 0 1.104-.372 2.019-1.118 2.745-.736.726-1.675 1.089-2.817 1.089-1.142 0-2.086-.363-2.832-1.09-.735-.725-1.103-1.64-1.103-2.744 0-1.103.368-2.018 1.103-2.744zm2.832 4.429c.426 0 .784-.155 1.075-.465.29-.31.435-.716.435-1.22 0-.503-.145-.91-.435-1.22a1.416 1.416 0 00-1.075-.464 1.43 1.43 0 00-1.089.465c-.281.31-.421.716-.421 1.22 0 .503.14.91.421 1.22.29.309.653.464 1.089.464zm5.124-5.315h2.6v7.26h-2.6v-7.26zm.291-1.09c-.252-.241-.378-.57-.378-.987 0-.416.126-.74.378-.972.252-.243.59-.364 1.016-.364.426 0 .76.121 1.002.364.252.232.378.556.378.972 0 .417-.126.746-.378.988-.242.242-.576.363-1.002.363-.426 0-.764-.121-1.016-.363zm3.977 6.158V12.14h2.585v7.682c0 .533.222.799.668.799.232 0 .489-.063.769-.19v2.136c-.358.154-.885.232-1.582.232-.727 0-1.317-.194-1.772-.58-.445-.388-.668-.993-.668-1.816zm8.302-5.271c1.094 0 1.936.329 2.527.987.6.649.9 1.452.9 2.41 0 .204-.024.523-.073.959h-4.429c.107.774.688 1.162 1.743 1.162.474 0 .953-.053 1.437-.16.484-.106.823-.208 1.017-.305v2.164c-.62.3-1.52.45-2.701.45-1.278 0-2.294-.353-3.05-1.06-.755-.716-1.132-1.641-1.132-2.774 0-1.103.358-2.018 1.074-2.744.717-.726 1.612-1.09 2.687-1.09zm.987 3.165c.01-.338-.072-.62-.247-.842-.174-.223-.43-.334-.769-.334-.329 0-.586.111-.77.334-.184.223-.281.504-.29.842h2.076zm-2.439-3.848l1.161-2.512h3.253l-2.164 2.512h-2.25zm9.421.683c1.094 0 1.936.329 2.527.987.6.649.9 1.452.9 2.41 0 .204-.024.523-.072.959h-4.429c.106.774.687 1.162 1.742 1.162.475 0 .954-.053 1.438-.16.484-.106.823-.208 1.016-.305v2.164c-.619.3-1.52.45-2.701.45-1.278 0-2.294-.353-3.049-1.06-.755-.716-1.133-1.641-1.133-2.774 0-1.103.358-2.018 1.075-2.744.716-.726 1.612-1.09 2.686-1.09zm.988 3.165c.009-.338-.073-.62-.247-.842-.174-.223-.431-.334-.77-.334-.329 0-.586.111-.769.334-.184.223-.281.504-.291.842h2.077z"/></svg><svg viewBox="0 0 56 56" id="paper__icon" xmlns="http://www.w3.org/2000/svg"><g clip-path="url(#mclip0)"><path d="M55.54 7.068L48.927.763c-.252-.241-.512-.49-.997-.49H21.449c-.774 0-1.403.629-1.403 1.402v4.308l-9.333 1.6A1.382 1.382 0 009.59 9.177l.474 2.762C7.03 12.96 3.916 14.012.909 15.093a1.389 1.389 0 00-.83 1.764l5.982 16.627a.82.82 0 001.544-.555L1.712 16.548a481.877 481.877 0 018.633-2.972l2.82 16.433 3.242 18.925a1.39 1.39 0 001.595 1.125l8.785-1.508 6.864-1.176-10.324 3.71-8.141 2.928-6.323-17.587a.82.82 0 10-1.544.555l6.413 17.837c.205.56.736.91 1.298.91.155 0 .313-.028.466-.084l8.386-3.015 19.041-6.844 3.638-.623h8.036c.774 0 1.403-.63 1.403-1.406V7.992c0-.491-.266-.742-.46-.924zm-2.174.194H49.159c-.196.002-.657.005-.773-.11-.027-.028-.059-.117-.059-.283l-.01-4.42 5.049 4.813zm.993 36.259H21.687V27.534a.82.82 0 10-1.64 0v16.222c0 .775.628 1.406 1.402 1.406H36.85l-10.34 1.772-8.53 1.464-3.199-18.667-3.53-20.576 8.795-1.508v16.08a.82.82 0 001.64 0V1.914h24.99l.01 4.958c0 .6.184 1.086.544 1.444.554.55 1.337.588 1.822.588H54.36V43.52z"/><path d="M25.64 13.01c0 .453.368.82.82.82h23.455a.82.82 0 000-1.64H26.46a.82.82 0 00-.82.82zm24.275 5.007H26.46a.82.82 0 000 1.64h23.454a.82.82 0 000-1.64zm0 5.828H26.46a.82.82 0 000 1.64h23.454a.82.82 0 100-1.64zm0 5.828H26.46a.82.82 0 100 1.64h23.454a.82.82 0 000-1.64zm0 5.828H26.46a.82.82 0 000 1.64h23.454a.82.82 0 000-1.64z"/></g><defs><clipPath id="mclip0"><path d="M0 0h56v56H0z"/></clipPath></defs></svg><svg viewBox="0 0 25 25" id="phone-call__icon" xmlns="http://www.w3.org/2000/svg"><g clip-path="url(#nclip0)"><path d="M24.32 18.348l-3.49-3.49c-1.245-1.245-3.363-.747-3.862.873-.374 1.121-1.62 1.744-2.741 1.495-2.492-.623-5.856-3.863-6.48-6.48-.373-1.12.375-2.367 1.496-2.74 1.62-.499 2.118-2.617.872-3.863L6.626.654c-.996-.872-2.492-.872-3.364 0L.895 3.022C-1.473 5.514 1.144 12.117 7 17.974c5.856 5.856 12.46 8.597 14.952 6.105l2.368-2.367c.872-.997.872-2.492 0-3.364z"/></g><defs><clipPath id="nclip0"><path d="M0 0h25v25H0z"/></clipPath></defs></svg><svg viewBox="0 0 21 21" id="shield__icon" xmlns="http://www.w3.org/2000/svg"><g clip-path="url(#oclip0)"><path d="M18.914 2.497L10.677.026a.615.615 0 00-.354 0L2.086 2.497a.615.615 0 00-.439.59v9.06c0 1.179.478 2.385 1.419 3.586.718.917 1.712 1.838 2.955 2.737a26.512 26.512 0 004.228 2.476.615.615 0 00.502 0 26.515 26.515 0 004.228-2.476c1.242-.899 2.237-1.82 2.955-2.737.941-1.2 1.418-2.407 1.418-3.586v-9.06a.615.615 0 00-.438-.59z"/></g><defs><clipPath id="oclip0"><path d="M0 0h21v21H0z"/></clipPath></defs></svg><svg viewBox="0 0 20 20" id="shuffle__icon" xmlns="http://www.w3.org/2000/svg"><path d="M19.775 14.52l-3.75-3.125a.626.626 0 00-1.025.48v1.874h-1.25l-7.125-9.5a1.25 1.25 0 00-1-.5h-5A.625.625 0 000 4.376v1.25c0 .345.28.625.625.625H5l7.126 9.5c.235.314.607.5.999.5H15v1.875a.626.626 0 001.025.48l3.75-3.126a.622.622 0 000-.96z"/><path d="M19.775 4.52l-3.75-3.125a.626.626 0 00-1.025.48V3.75h-1.875a1.25 1.25 0 00-1 .5l-1.969 2.625 1.563 2.083L13.75 6.25H15v1.875a.624.624 0 001.025.48l3.75-3.125a.622.622 0 000-.96zM7.031 11.042L5 13.749H.625a.625.625 0 00-.625.625v1.25c0 .345.28.626.625.626h4.999c.394 0 .765-.186 1.001-.5l1.969-2.626-1.563-2.082z"/></svg><svg viewBox="0 0 85 116" id="star__icon" xmlns="http://www.w3.org/2000/svg"><g clip-path="url(#qclip0)"><path d="M.1 92.41a2.73 2.73 0 01.824-2.014 2.82 2.82 0 012.093-.83 3.31 3.31 0 011.551.356v1.44a3.05 3.05 0 00-1.393-.348 1.457 1.457 0 00-1.089.408 1.355 1.355 0 00-.39.987c-.01.365.123.719.37.987a1.32 1.32 0 001.024.402 3.362 3.362 0 001.531-.356v1.455a3.675 3.675 0 01-1.67.342 2.728 2.728 0 01-2.027-.823A2.756 2.756 0 01.1 92.41zm5.71 2.717v-5.449h3.657v1.316H7.394v.724h1.775v1.25H7.394v.81h2.185v1.316l-3.77.033zm9.373 0h-1.65l-.799-1.685h-.449v1.692h-1.551v-5.45h2.06a2.647 2.647 0 011.67.494 1.693 1.693 0 01.62 1.422 1.621 1.621 0 01-.964 1.586l1.063 1.94zm-2.31-4.113h-.588v1.165h.588c.409 0 .607-.198.607-.586a.544.544 0 00-.165-.44.694.694 0 00-.442-.139zm3.03-1.336h4.39v1.316H18.9v4.113h-1.598v-4.113h-1.4v-1.316zm7.017 0v5.449h-1.584v-5.449h1.584zm1.433 5.449v-5.449h3.472v1.316h-1.881v.81h1.584v1.316h-1.584v2.007h-1.591zm6.172-5.449v5.449h-1.584v-5.449h1.584zm1.44 5.449v-5.449h3.683v1.316h-2.1v.724h1.776v1.25h-1.776v.81h2.185v1.316l-3.769.033zm1.656-7.45h1.868l-1.221 1.554h-1.215l.568-1.553zm3.268 7.45v-5.449h3.657v1.316h-2.073v.724h1.796v1.25h-1.796v.81h2.185v1.316l-3.77.033zm7.043-2.718a2.73 2.73 0 01.826-2.014 2.82 2.82 0 012.112-.829 3.309 3.309 0 011.551.356v1.44a3.051 3.051 0 00-1.392-.348 1.457 1.457 0 00-1.09.408 1.471 1.471 0 000 1.974 1.319 1.319 0 001.023.402 3.362 3.362 0 001.519-.35v1.455a3.673 3.673 0 01-1.67.342 2.729 2.729 0 01-2.027-.822 2.755 2.755 0 01-.852-2.014zm9.15 2.718l-.343-.718h-1.664l-.33.718h-1.65l2.78-5.521h.072l2.779 5.52h-1.644zm-1.175-2.757a8.075 8.075 0 01-.39 1.013h.786a7.308 7.308 0 01-.383-1.013h-.013zm5.578-2.692a2.693 2.693 0 011.697.494 1.68 1.68 0 01.66 1.421 1.693 1.693 0 01-.66 1.435 2.733 2.733 0 01-1.697.48h-.283v1.619h-1.585v-5.449h1.868zm.086 1.316h-.37v1.165h.37c.43 0 .66-.197.66-.586a.524.524 0 00-.178-.44.755.755 0 00-.482-.119v-.02zm4.832-1.316v5.449H60.82v-5.449h1.584zm1.043 0h4.384v1.316h-1.393v4.113h-1.598v-4.113h-1.393v-1.316zm8.866 5.449l-.343-.718h-1.664l-.33.718h-1.65l2.78-5.521h.072l2.779 5.52h-1.644zm-1.181-2.757a6.78 6.78 0 01-.383 1.013h.785a7.307 7.307 0 01-.383-1.013h-.02zm7.168 2.757h-3.452v-5.449h1.584v4.12H78.3v1.329zm-.105 17.517H.158V116h78.036v-3.356zm-72.088-6.508H3.882l-1.083-2.29h-.6v2.29H.105v-7.35h2.772a3.56 3.56 0 012.251.657 2.31 2.31 0 01.845 1.929c.026.447-.086.892-.323 1.273a2.196 2.196 0 01-.997.859l1.452 2.632zm-3.115-5.554h-.793v1.573h.793c.547 0 .818-.264.818-.783a.73.73 0 00-.224-.599.916.916 0 00-.594-.191zm4.62 5.554v-7.35h4.932v1.796H9.75v.981h2.39v1.684H9.75v1.093h2.945v1.796H7.612zm9.606-4.442c.343.145.62.276.838.395a3.6 3.6 0 01.66.447c.207.177.366.404.462.658.103.276.152.568.146.862a1.967 1.967 0 01-.766 1.652 3.565 3.565 0 01-2.198.586 5.647 5.647 0 01-2.252-.402v-2.04c.65.376 1.388.578 2.14.586.66 0 .99-.125.99-.382a.327.327 0 00-.053-.177.697.697 0 00-.218-.165 2.942 2.942 0 00-.297-.138l-.436-.171-.264-.099a4.505 4.505 0 01-1.531-.895 1.973 1.973 0 01-.496-1.461 2.05 2.05 0 01.786-1.678 3.267 3.267 0 012.1-.658 5.218 5.218 0 011.98.35v1.973a3.236 3.236 0 00-1.822-.474 1.674 1.674 0 00-.713.125.377.377 0 00-.258.349c0 .119.086.231.258.329.307.159.622.301.944.428zm6.113-2.908a3.678 3.678 0 012.284.658 2.633 2.633 0 01.843 1.928 2.62 2.62 0 01-.843 1.928 3.673 3.673 0 01-2.284.658h-.383v2.184h-2.14v-7.356h2.523zm.112 1.796h-.495v1.573h.495c.574 0 .865-.263.865-.783a.7.7 0 00-.245-.599.993.993 0 00-.62-.191zm4 1.882a3.706 3.706 0 011.11-2.718 4.133 4.133 0 015.644 0 3.868 3.868 0 010 5.436 4.155 4.155 0 01-5.645 0 3.684 3.684 0 01-1.109-2.718zm2.146 0c-.01.487.17.958.501 1.316a1.743 1.743 0 001.98.413c.22-.096.418-.237.582-.413a1.97 1.97 0 000-2.632 1.74 1.74 0 00-1.28-.565 1.74 1.74 0 00-1.282.565c-.33.358-.51.829-.501 1.316zm13.599 3.771l-4.238-3.396v3.291h-2.087v-7.423h.106l4.212 3.395v-3.29h2.1v7.449l-.093-.026zm5.004-4.541c.336.145.62.276.838.395a3.9 3.9 0 01.66.447c.203.18.36.406.456.658.104.276.156.568.151.862a1.974 1.974 0 01-.785 1.646 3.599 3.599 0 01-2.205.585 5.629 5.629 0 01-2.251-.401v-2.04a4.413 4.413 0 002.139.586c.66 0 .997-.125.997-.382a.29.29 0 00-.06-.178.67.67 0 00-.211-.164 2.737 2.737 0 00-.297-.138l-.436-.172-.27-.098a4.502 4.502 0 01-1.525-.895 1.98 1.98 0 01-.502-1.461 2.024 2.024 0 01.785-1.678 3.242 3.242 0 012.1-.658 5.237 5.237 0 011.98.349v1.974a3.262 3.262 0 00-1.822-.474 1.628 1.628 0 00-.713.125.377.377 0 00-.264.349c0 .118.086.23.264.329.315.164.639.309.97.434zm8.218 4.442l-.462-.974H53.71l-.449.974h-2.224l3.756-7.43h.099l3.743 7.45-2.225-.02zm-1.584-3.724c-.144.464-.318.919-.522 1.362h1.063a8.74 8.74 0 01-.521-1.362h-.02zm5.004 3.724v-7.35h2.502a4.123 4.123 0 012.191.526 1.752 1.752 0 01.832 1.586c.012.316-.084.626-.27.882-.172.221-.4.394-.66.5.336.097.633.3.844.579.249.296.38.673.37 1.059a1.855 1.855 0 01-.845 1.672 4.21 4.21 0 01-2.297.546h-2.667zm2.64-5.653h-.594v1.25h.594c.515 0 .766-.203.766-.618s-.264-.632-.779-.632h.013zm.152 2.632h-.759v1.356h.746a1.04 1.04 0 00.588-.158.581.581 0 00.23-.513.592.592 0 00-.23-.52 1.003 1.003 0 00-.588-.198l.013.033zm9.229 3.021h-4.621v-7.35h2.086v5.554h2.515l.02 1.796zm1.426 0v-7.35h4.931v1.796h-2.792v.981h2.396v1.684h-2.396v1.093h2.95v1.796h-5.09zm-3.388-42.61a38.587 38.587 0 006.859-12.957 38.907 38.907 0 00-3.373-30.777A39.574 39.574 0 0063.986 8.77a39.282 39.282 0 00-15.623-7.692A39.354 39.354 0 0030.939.889a39.287 39.287 0 00-15.787 7.352A39.134 39.134 0 004.115 21.682a39.007 39.007 0 00-.478 33.869A39.124 39.124 0 0014.29 69.296a39.28 39.28 0 0015.573 7.792c.99.253 1.993.453 3.004.599a38.922 38.922 0 0017.659-1.132l.337-.106.884-.29.304-.111a38.926 38.926 0 007.763-3.665c.086-.053.172-.099.258-.158.396-.244.779-.507 1.168-.763l.72-.494.383-.283 1.32-.954c.304-.237.574-.474.845-.71l.244-.205.06-.053a37.23 37.23 0 002.541-2.349c.1-.105.198-.217.304-.322a42.898 42.898 0 002.27-2.547l-.039-.02zm2.964-12.2c-.152.434-.363.842-.535 1.27-.31.756-.6 1.52-.963 2.25-.238.48-.529.94-.793 1.415-.35.658-.66 1.316-1.076 1.901-.317.5-.66.961-1.03 1.448s-.759 1.112-1.181 1.645l-5.664 5.64-.106.085a32.57 32.57 0 01-2.337 1.704c-.218.152-.449.284-.66.428-.541.349-1.09.658-1.65 1-.39.218-.786.422-1.182.659-.396.236-.845.434-1.274.658-.429.223-.878.394-1.32.579l-.66.256a9.12 9.12 0 01-.29-2.27.36.36 0 000-.085 7.955 7.955 0 01.534-2.751 8.333 8.333 0 014-4.409l4.12-2.211-3.354-3.29a14.296 14.296 0 01-4.159-7.061 11.08 11.08 0 01-.25-3.007v-.435c.298-2.27.893-4.49 1.769-6.606a83.562 83.562 0 0112.872-22.696c.066.092.139.177.212.27.158.21.316.434.468.657.27.362.528.738.78 1.113.151.223.296.454.441.658.238.381.47.763.694 1.145.138.236.27.473.402.71.218.395.423.79.627 1.191.12.237.238.468.344.704.204.422.39.856.574 1.284.093.217.192.434.284.658.198.493.383.993.554 1.494.06.164.126.322.179.486.224.672.429 1.35.614 2.034 0 .072.033.151.052.223.159.606.304 1.211.43 1.823.046.224.085.454.125.658.088.461.167.922.238 1.382l.099.823c.052.42.099.849.132 1.276 0 .29.046.58.06.876 0 .414.045.829.052 1.25v2.145c0 .296 0 .586-.04.882 0 .434-.066.868-.112 1.316 0 .283-.046.56-.08.836-.059.473-.138.954-.217 1.434 0 .23-.066.467-.106.698-.132.71-.283 1.421-.455 2.132a34.742 34.742 0 01-1.162 3.724zM47.529 67.453c-1.63 0-3.258-.085-4.879-.257a9.798 9.798 0 013.301-5.718c.97-.833 2.072-1.5 3.261-1.974a7.21 7.21 0 015.763.184c-1.778.935-3.3 2.29-4.43 3.948a7.35 7.35 0 00-.66 1.007c-.146.3-.273.607-.382.921-.046.106-.1.204-.145.316-.193.515-.35 1.043-.47 1.58-.362.013-.91-.007-1.359-.007zm3.96-28.48c-1.458 4.12-2.52 7.745-1.583 11.943a16.124 16.124 0 001.148 3.29l-.614-.493c-6.027-5.087-8.377-9.627-7.849-15.096.614-6.356 3.572-13.325 8.793-20.748.383.257 1.61 1.113 1.61 1.113 1.242.875 3.962 2.875 6.114 4.645a81.124 81.124 0 00-7.585 15.346h-.033zM39.305 74.778c-1.967 0-3.93-.163-5.87-.487a24.37 24.37 0 01-2.732-.54A35.788 35.788 0 019.816 59.4a35.585 35.585 0 01-6.095-24.546 35.636 35.636 0 0111.76-22.407A35.851 35.851 0 0139.185 3.44c2.892.003 5.774.354 8.582 1.047a35.674 35.674 0 0117.295 9.95c.106.111.198.23.304.342a102.378 102.378 0 00-4.37 5.955 108.83 108.83 0 00-6.007-4.56l-.502-.35c-.72-.5-1.46-1-2.225-1.506a94.365 94.365 0 00-1.723-1.112c-5.565 7.278-10.503 15.984-11.38 25.084-.753 7.772 3.346 13.24 9.03 18.05a13.83 13.83 0 00-4.443 2.514 13.611 13.611 0 00-3.692 5.111 13.57 13.57 0 00-.988 6.22c3.178.524 6.398.745 9.618.659.062.838.21 1.667.443 2.474a35.537 35.537 0 01-9.823 1.461zm44.534-25.247a25.393 25.393 0 00-9.17 15.352A38.917 38.917 0 0185 53.96a43.28 43.28 0 01-1.162-4.429z"/><path d="M25.435 32.725l1.987 4.014 4.443.645-3.215 3.125.76 4.41-3.975-2.08-3.974 2.08.76-4.41-3.215-3.125 4.442-.645 1.987-4.014z"/></g><defs><clipPath id="qclip0"><path d="M0 0h85v116H0z"/></clipPath></defs></svg><svg viewBox="0 0 18 19" id="verified-user__icon" xmlns="http://www.w3.org/2000/svg"><g clip-path="url(#rclip0)"><path d="M7.566 9.827c2.473 0 4.478-2.116 4.478-4.727 0-2.61-2.005-4.726-4.478-4.726S3.088 2.49 3.088 5.1s2.005 4.727 4.478 4.727zm2.168-2.862c-.204.71-1.077 1.245-2.122 1.245-1.046 0-1.919-.534-2.123-1.245h4.245zm8.155 7.984l-4.097 3.604a.303.303 0 01-.416-.02l-2.04-2.153a.34.34 0 010-.461l.437-.461a.298.298 0 01.437 0l1.442 1.522 3.447-3.032a.299.299 0 01.434.041l.396.501a.34.34 0 01-.04.46zm-7.033 1.938l.777.82c-1.06.158-2.397.27-4.067.27-4.317 0-6.43-.745-7.205-1.109-.2-.094-.361-.362-.361-.593v-1.558c0-2.335 1.684-4.272 3.833-4.531a.344.344 0 01.215.062 5.77 5.77 0 003.518 1.21 5.77 5.77 0 003.518-1.21c.053-.04.15-.07.216-.062 2.148.26 3.833 2.196 3.833 4.53v.027l-1.44 1.266-1.003-1.058a.956.956 0 00-.699-.306.956.956 0 00-.698.306l-.437.46a1.085 1.085 0 000 1.476z"/></g><defs><clipPath id="rclip0"><path d="M0 0h18v19H0z"/></clipPath></defs></svg></svg>