<svg width="667" height="468" viewBox="0 0 667 468" fill="none" xmlns="http://www.w3.org/2000/svg">
<circle cx="68.3761" cy="366.243" r="2.69198" transform="rotate(90 68.3761 366.243)" fill="#6697C5"/>
<circle cx="68.3761" cy="399.624" r="2.69198" transform="rotate(90 68.3761 399.624)" fill="#6697C5"/>
<circle cx="68.3761" cy="431.928" r="2.69198" transform="rotate(90 68.3761 431.928)" fill="#6697C5"/>
<circle cx="68.3761" cy="465.308" r="2.69198" transform="rotate(90 68.3761 465.308)" fill="#6697C5"/>
<circle cx="36.0724" cy="366.243" r="2.69198" transform="rotate(90 36.0724 366.243)" fill="#6697C5"/>
<circle cx="36.0724" cy="399.624" r="2.69198" transform="rotate(90 36.0724 399.624)" fill="#6697C5"/>
<circle cx="36.0724" cy="431.928" r="2.69198" transform="rotate(90 36.0724 431.928)" fill="#6697C5"/>
<circle cx="36.0724" cy="465.308" r="2.69198" transform="rotate(90 36.0724 465.308)" fill="#6697C5"/>
<circle cx="2.69194" cy="366.243" r="2.69198" transform="rotate(90 2.69194 366.243)" fill="#6697C5"/>
<circle cx="2.69194" cy="399.624" r="2.69198" transform="rotate(90 2.69194 399.624)" fill="#6697C5"/>
<circle cx="2.69194" cy="431.928" r="2.69198" transform="rotate(90 2.69194 431.928)" fill="#6697C5"/>
<circle cx="2.69194" cy="465.308" r="2.69198" transform="rotate(90 2.69194 465.308)" fill="#6697C5"/>
<circle cx="68.3761" cy="299.692" r="2.69198" transform="rotate(90 68.3761 299.692)" fill="#6697C5"/>
<circle cx="68.3761" cy="333.072" r="2.69198" transform="rotate(90 68.3761 333.072)" fill="#6697C5"/>
<circle cx="36.0724" cy="299.692" r="2.69198" transform="rotate(90 36.0724 299.692)" fill="#6697C5"/>
<circle cx="36.0724" cy="333.072" r="2.69198" transform="rotate(90 36.0724 333.072)" fill="#6697C5"/>
<circle cx="2.69194" cy="299.692" r="2.69198" transform="rotate(90 2.69194 299.692)" fill="#6697C5"/>
<circle cx="2.69194" cy="333.072" r="2.69198" transform="rotate(90 2.69194 333.072)" fill="#6697C5"/>
</svg>
