<svg width="667" height="468" fill="none" xmlns="http://www.w3.org/2000/svg">
  <circle cx="68.4" cy="366.2" r="2.7" transform="rotate(90 68 366)" fill="#6697C5"/>
  <circle cx="68.4" cy="399.6" r="2.7" transform="rotate(90 68 400)" fill="#6697C5"/>
  <circle cx="68.4" cy="431.9" r="2.7" transform="rotate(90 68 432)" fill="#6697C5"/>
  <circle cx="68.4" cy="465.3" r="2.7" transform="rotate(90 68 465)" fill="#6697C5"/>
  <circle cx="36.1" cy="366.2" r="2.7" transform="rotate(90 36 366)" fill="#6697C5"/>
  <circle cx="36.1" cy="399.6" r="2.7" transform="rotate(90 36 400)" fill="#6697C5"/>
  <circle cx="36.1" cy="431.9" r="2.7" transform="rotate(90 36 432)" fill="#6697C5"/>
  <circle cx="36.1" cy="465.3" r="2.7" transform="rotate(90 36 465)" fill="#6697C5"/>
  <circle cx="2.7" cy="366.2" r="2.7" transform="rotate(90 3 366)" fill="#6697C5"/>
  <circle cx="2.7" cy="399.6" r="2.7" transform="rotate(90 3 400)" fill="#6697C5"/>
  <circle cx="2.7" cy="431.9" r="2.7" transform="rotate(90 3 432)" fill="#6697C5"/>
  <circle cx="2.7" cy="465.3" r="2.7" transform="rotate(90 3 465)" fill="#6697C5"/>
  <circle cx="68.4" cy="299.7" r="2.7" transform="rotate(90 68 300)" fill="#6697C5"/>
  <circle cx="68.4" cy="333.1" r="2.7" transform="rotate(90 68 333)" fill="#6697C5"/>
  <circle cx="36.1" cy="299.7" r="2.7" transform="rotate(90 36 300)" fill="#6697C5"/>
  <circle cx="36.1" cy="333.1" r="2.7" transform="rotate(90 36 333)" fill="#6697C5"/>
  <circle cx="2.7" cy="299.7" r="2.7" transform="rotate(90 3 300)" fill="#6697C5"/>
  <circle cx="2.7" cy="333.1" r="2.7" transform="rotate(90 3 333)" fill="#6697C5"/>
</svg>
