<svg width="331" height="130" viewBox="0 0 331 130" fill="none" xmlns="http://www.w3.org/2000/svg">
<path opacity="0.3" d="M329.46 119.96C329.713 119.706 329.713 119.294 329.46 119.04L325.323 114.904C325.069 114.65 324.658 114.65 324.404 114.904C324.15 115.158 324.15 115.569 324.404 115.823L328.081 119.5L324.404 123.177C324.15 123.431 324.15 123.842 324.404 124.096C324.658 124.35 325.069 124.35 325.323 124.096L329.46 119.96ZM1.47927 1.38902C1.88068 1.92635 2.28435 2.46162 2.69026 2.99485L3.72466 2.20744C3.32112 1.67732 2.91981 1.14517 2.52073 0.610981L1.47927 1.38902ZM5.15256 6.16968C5.98229 7.21984 6.82093 8.26184 7.66841 9.29573L8.6738 8.4716C7.83125 7.44373 6.99749 6.40779 6.17259 5.36375L5.15256 6.16968ZM10.2437 12.3806C11.1109 13.4007 11.987 14.4127 12.8718 15.4167L13.8471 14.5571C12.9674 13.559 12.0964 12.5528 11.2341 11.5386L10.2437 12.3806ZM15.5535 18.4054C16.4564 19.3938 17.368 20.3742 18.2882 21.3466L19.2324 20.4531C18.3174 19.4862 17.4111 18.5114 16.5134 17.5286L15.5535 18.4054ZM21.0743 24.2395C22.0108 25.1948 22.9557 26.1422 23.9091 27.0817L24.8216 26.1557C23.8735 25.2215 22.9339 24.2794 22.0027 23.3295L21.0743 24.2395ZM26.7947 29.8763C27.7635 30.7984 28.7406 31.7126 29.726 32.619L30.6061 31.6622C29.6261 30.7608 28.6544 29.8516 27.691 28.9346L26.7947 29.8763ZM32.704 35.3119C33.7043 36.2013 34.7129 37.0829 35.7297 37.9567L36.577 36.9708C35.5657 36.1017 34.5626 35.2249 33.5677 34.3404L32.704 35.3119ZM38.793 40.5456C39.8221 41.4009 40.8593 42.2485 41.9044 43.0886L42.7188 42.0753C41.6792 41.2397 40.6475 40.3966 39.6239 39.5458L38.793 40.5456ZM45.0523 45.5771C46.1073 46.3973 47.1701 47.2101 48.2407 48.0154L49.0222 46.9765C47.9571 46.1754 46.8998 45.3668 45.8503 44.5508L45.0523 45.5771ZM51.4726 50.4069C52.5511 51.1919 53.6372 51.9696 54.7308 52.74L55.4795 51.6773C54.3914 50.9107 53.3107 50.1369 52.2376 49.3558L51.4726 50.4069ZM58.0341 55.0294C59.1373 55.7816 60.2479 56.5266 61.3657 57.2644L62.0818 56.1794C60.9694 55.4452 59.8642 54.7038 58.7665 53.9553L58.0341 55.0294ZM64.7305 59.4497C65.8587 60.1706 66.994 60.8844 68.1364 61.5912L68.8204 60.4857C67.6833 59.7822 66.5533 59.0717 65.4305 58.3542L64.7305 59.4497ZM71.5561 63.6731C72.703 64.3602 73.8568 65.0404 75.0175 65.7137L75.6698 64.5892C74.5144 63.919 73.3658 63.2419 72.2242 62.5579L71.5561 63.6731ZM78.5028 67.7034C79.6656 68.3567 80.8351 69.0032 82.0112 69.6431L82.6325 68.5012C81.4615 67.8641 80.2971 67.2204 79.1395 66.57L78.5028 67.7034ZM85.5594 71.5428C86.7373 72.1634 87.9216 72.7774 89.1123 73.385L89.7032 72.2271C88.5175 71.622 87.3382 71.0106 86.1654 70.3927L85.5594 71.5428ZM92.7001 75.1868C93.8984 75.779 95.103 76.3648 96.3138 76.9442L96.875 75.7716C95.6691 75.1945 94.4694 74.6111 93.276 74.0213L92.7001 75.1868ZM99.9357 78.6501C101.149 79.2124 102.369 79.7686 103.594 80.3186L104.126 79.1325C102.906 78.5847 101.691 78.0307 100.482 77.4706L99.9357 78.6501ZM107.26 81.9377C108.483 82.4691 109.712 82.9945 110.946 83.5139L111.451 82.3156C110.221 81.7982 108.997 81.2748 107.778 80.7454L107.26 81.9377ZM114.667 85.0542C115.898 85.5556 117.135 86.0513 118.378 86.5412L118.854 85.3318C117.616 84.8437 116.384 84.3498 115.157 83.8502L114.667 85.0542ZM122.12 87.9929C123.369 88.4695 124.623 88.9403 125.883 89.4055L126.333 88.186C125.078 87.7224 123.828 87.2532 122.583 86.7783L122.12 87.9929ZM129.643 90.7713C130.901 91.221 132.165 91.6652 133.434 92.1038L133.859 90.8751C132.594 90.438 131.334 89.9953 130.08 89.5471L129.643 90.7713ZM137.231 93.3947C138.494 93.8169 139.762 94.2337 141.035 94.6452L141.435 93.4082C140.166 92.998 138.902 92.5826 137.643 92.1617L137.231 93.3947ZM144.869 95.8636C146.14 96.2607 147.415 96.6525 148.696 97.0391L149.071 95.7946C147.795 95.4092 146.523 95.0186 145.257 94.6228L144.869 95.8636ZM152.538 98.1795C153.823 98.5545 155.113 98.9244 156.408 99.2892L156.76 98.0379C155.469 97.6742 154.183 97.3054 152.902 96.9316L152.538 98.1795ZM160.259 100.356C161.546 100.706 162.838 101.051 164.134 101.391L164.464 100.134C163.171 99.7944 161.884 99.4502 160.6 99.1011L160.259 100.356ZM168.031 102.396C169.319 102.722 170.611 103.044 171.908 103.36L172.216 102.097C170.923 101.782 169.635 101.461 168.351 101.136L168.031 102.396ZM175.809 104.296C177.111 104.602 178.417 104.904 179.728 105.201L180.015 103.933C178.708 103.637 177.406 103.336 176.107 103.03L175.809 104.296ZM183.628 106.068C184.932 106.353 186.24 106.633 187.553 106.909L187.82 105.636C186.511 105.362 185.206 105.082 183.905 104.798L183.628 106.068ZM191.489 107.719C192.792 107.982 194.099 108.241 195.409 108.495L195.657 107.219C194.349 106.966 193.046 106.707 191.746 106.445L191.489 107.719ZM199.353 109.245C200.666 109.49 201.984 109.73 203.305 109.966L203.534 108.687C202.216 108.451 200.901 108.211 199.591 107.967L199.353 109.245ZM207.242 110.655C208.558 110.881 209.878 111.102 211.201 111.319L211.411 110.036C210.091 109.82 208.774 109.599 207.462 109.374L207.242 110.655ZM215.167 111.955C216.481 112.161 217.797 112.363 219.118 112.561L219.31 111.276C217.993 111.078 216.679 110.877 215.369 110.671L215.167 111.955ZM223.088 113.143C224.412 113.333 225.738 113.518 227.068 113.699L227.244 112.411C225.917 112.23 224.593 112.045 223.273 111.856L223.088 113.143ZM231.029 114.227C232.352 114.398 233.679 114.566 235.009 114.73L235.168 113.44C233.841 113.276 232.517 113.109 231.196 112.937L231.029 114.227ZM239.001 115.21C240.321 115.365 241.644 115.516 242.97 115.663L243.113 114.37C241.79 114.224 240.47 114.073 239.153 113.919L239.001 115.21ZM246.957 116.092C248.288 116.232 249.623 116.368 250.961 116.5L251.088 115.206C249.753 115.074 248.421 114.939 247.092 114.799L246.957 116.092ZM254.935 116.88C256.262 117.004 257.593 117.124 258.926 117.24L259.039 115.945C257.708 115.829 256.38 115.709 255.055 115.586L254.935 116.88ZM262.934 117.577C264.26 117.685 265.588 117.79 266.919 117.891L267.018 116.595C265.689 116.494 264.363 116.389 263.04 116.282L262.934 117.577ZM270.913 118.183C272.247 118.277 273.584 118.367 274.923 118.454L275.008 117.157C273.671 117.07 272.336 116.98 271.004 116.886L270.913 118.183ZM278.919 118.703C280.248 118.783 281.58 118.859 282.914 118.931L282.985 117.633C281.653 117.561 280.323 117.485 278.996 117.406L278.919 118.703ZM286.924 119.139C288.257 119.205 289.593 119.268 290.931 119.327L290.988 118.028C289.652 117.969 288.319 117.907 286.988 117.841L286.924 119.139ZM294.925 119.494C296.259 119.547 297.596 119.596 298.934 119.642L298.979 118.343C297.642 118.297 296.308 118.247 294.976 118.195L294.925 119.494ZM302.951 119.771C304.28 119.81 305.611 119.846 306.944 119.879L306.977 118.58C305.645 118.547 304.316 118.51 302.989 118.471L302.951 119.771ZM310.951 119.97C312.289 119.997 313.629 120.021 314.971 120.042L314.991 118.742C313.651 118.721 312.313 118.697 310.977 118.67L310.951 119.97ZM318.968 120.095C320.301 120.11 321.635 120.121 322.972 120.13L322.98 118.83C321.646 118.821 320.313 118.81 318.983 118.795L318.968 120.095ZM326.988 120.148C327.658 120.149 328.329 120.15 329 120.15V118.85C328.33 118.85 327.66 118.849 326.99 118.848L326.988 120.148ZM329.919 120.419C330.427 119.912 330.427 119.088 329.919 118.581L321.646 110.308C321.138 109.8 320.315 109.8 319.808 110.308C319.3 110.815 319.3 111.638 319.808 112.146L327.162 119.5L319.808 126.854C319.3 127.362 319.3 128.185 319.808 128.692C320.315 129.2 321.138 129.2 321.646 128.692L329.919 120.419ZM0.958532 1.77804C1.36112 2.31694 1.76597 2.85377 2.17306 3.38856L4.24185 1.81373C3.8395 1.28517 3.43937 0.754583 3.04147 0.221962L0.958532 1.77804ZM4.64254 6.57264C5.47469 7.62587 6.31577 8.6709 7.16571 9.70779L9.1765 8.05954C8.33641 7.03467 7.50509 6.00176 6.68261 4.96078L4.64254 6.57264ZM9.74846 12.8016C10.6182 13.8247 11.4968 14.8396 12.3842 15.8464L14.3347 14.1273C13.4576 13.1321 12.5891 12.1288 11.7294 11.1175L9.74846 12.8016ZM15.0736 18.8437C15.9791 19.835 16.8932 20.8182 17.8161 21.7934L19.7045 20.0063C18.7922 19.0422 17.8884 18.0702 16.9933 17.0902L15.0736 18.8437ZM20.6101 24.6944C21.5492 25.6525 22.4968 26.6026 23.4529 27.5447L25.2778 25.6927C24.3324 24.7611 23.3954 23.8218 22.4669 22.8745L20.6101 24.6944ZM26.3466 30.3471C27.318 31.2718 28.2978 32.1885 29.286 33.0974L31.0461 31.1838C30.0688 30.2849 29.0998 29.3783 28.1392 28.4638L26.3466 30.3471ZM32.2721 35.7977C33.2752 36.6895 34.2865 37.5735 35.306 38.4497L37.0007 36.4778C35.9922 35.6111 34.9918 34.7367 33.9996 33.8546L32.2721 35.7977ZM38.3775 41.0455C39.4094 41.9031 40.4493 42.753 41.4972 43.5952L43.126 41.5686C42.0891 40.7353 41.0602 39.8944 40.0393 39.0459L38.3775 41.0455ZM44.6533 46.0902C45.7111 46.9126 46.7767 47.7275 47.8499 48.5349L49.4129 46.4571C48.3506 45.658 47.296 44.8515 46.2492 44.0376L44.6533 46.0902ZM51.0901 50.9324C52.1713 51.7194 53.2602 52.4991 54.3565 53.2714L55.8539 51.1459C54.7684 50.3812 53.6905 49.6094 52.6201 48.8303L51.0901 50.9324ZM57.6679 55.5664C58.7738 56.3205 59.8871 57.0673 61.0077 57.8069L62.4399 55.637C61.3302 54.9045 60.2277 54.1649 59.1326 53.4182L57.6679 55.5664ZM64.3805 59.9974C65.5113 60.72 66.6493 61.4355 67.7945 62.144L69.1624 59.9329C68.0279 59.2311 66.9006 58.5223 65.7805 57.8065L64.3805 59.9974ZM71.2221 64.2307C72.3716 64.9194 73.528 65.6011 74.6913 66.276L75.996 64.027C74.8432 63.3582 73.6972 62.6827 72.5583 62.0004L71.2221 64.2307ZM78.1844 68.2701C79.3498 68.9248 80.5219 69.5728 81.7006 70.2141L82.9431 67.9302C81.7747 67.2945 80.6129 66.6522 79.4579 66.0033L78.1844 68.2701ZM85.2564 72.1179C86.4368 72.7398 87.6236 73.3551 88.8168 73.964L89.9986 71.6481C88.8154 71.0443 87.6386 70.4342 86.4683 69.8176L85.2564 72.1179ZM92.4121 75.7695C93.6129 76.3629 94.8199 76.9499 96.0332 77.5305L97.1555 75.1853C95.9521 74.6093 94.7549 74.0271 93.564 73.4386L92.4121 75.7695ZM99.6624 79.2398C100.878 79.8033 102.1 80.3606 103.328 80.9116L104.393 78.5395C103.174 77.9928 101.962 77.4399 100.756 76.8808L99.6624 79.2398ZM107.001 82.5338C108.227 83.0663 109.458 83.5926 110.694 84.113L111.703 81.7165C110.475 81.2 109.253 80.6776 108.038 80.1493L107.001 82.5338ZM114.422 85.6562C115.655 86.1585 116.894 86.6551 118.139 87.1458L119.093 84.7271C117.857 84.2399 116.627 83.7469 115.403 83.2482L114.422 85.6562ZM121.888 88.6002C123.139 89.0776 124.396 89.5493 125.658 90.0153L126.558 87.5762C125.305 87.1135 124.057 86.6451 122.815 86.171L121.888 88.6002ZM129.424 91.3834C130.685 91.8339 131.95 92.2788 133.222 92.7181L134.071 90.2608C132.808 89.8244 131.551 89.3825 130.299 88.935L129.424 91.3834ZM137.025 94.0111C138.29 94.434 139.56 94.8515 140.835 95.2637L141.635 92.7897C140.368 92.3802 139.106 91.9654 137.85 91.5453L137.025 94.0111ZM144.675 96.4841C145.948 96.8817 147.225 97.2742 148.508 97.6614L149.259 95.1724C147.985 94.7875 146.715 94.3975 145.451 94.0024L144.675 96.4841ZM152.355 98.8035C153.643 99.1791 154.935 99.5495 156.231 99.9148L156.936 97.4122C155.647 97.0491 154.363 96.6809 153.084 96.3076L152.355 98.8035ZM160.089 100.983C161.377 101.333 162.671 101.679 163.968 102.02L164.629 99.5049C163.338 99.1661 162.052 98.8225 160.771 98.4739L160.089 100.983ZM167.872 103.026C169.161 103.353 170.455 103.675 171.753 103.992L172.37 101.466C171.079 101.15 169.792 100.831 168.51 100.506L167.872 103.026ZM175.66 104.928C176.964 105.235 178.272 105.537 179.584 105.835L180.159 103.299C178.854 103.003 177.553 102.703 176.256 102.397L175.66 104.928ZM183.489 106.703C184.795 106.988 186.105 107.269 187.419 107.545L187.953 105C186.646 104.726 185.343 104.447 184.044 104.163L183.489 106.703ZM191.36 108.356C192.665 108.62 193.973 108.879 195.286 109.133L195.781 106.581C194.475 106.328 193.173 106.07 191.875 105.808L191.36 108.356ZM199.234 109.884C200.549 110.129 201.868 110.37 203.191 110.606L203.648 108.047C202.332 107.812 201.019 107.572 199.71 107.328L199.234 109.884ZM207.132 111.296C208.45 111.522 209.771 111.743 211.095 111.96L211.516 109.395C210.198 109.178 208.883 108.958 207.571 108.733L207.132 111.296ZM215.067 112.598C216.381 112.804 217.7 113.006 219.021 113.204L219.407 110.633C218.091 110.436 216.779 110.234 215.47 110.029L215.067 112.598ZM222.996 113.787C224.321 113.976 225.649 114.162 226.981 114.343L227.332 111.767C226.006 111.586 224.684 111.402 223.365 111.213L222.996 113.787ZM230.945 114.871C232.27 115.043 233.598 115.211 234.929 115.376L235.248 112.795C233.922 112.632 232.599 112.464 231.28 112.293L230.945 114.871ZM238.926 115.856C240.247 116.011 241.571 116.161 242.898 116.309L243.185 113.724C241.863 113.578 240.544 113.428 239.228 113.274L238.926 115.856ZM246.889 116.739C248.222 116.878 249.558 117.014 250.897 117.147L251.152 114.559C249.818 114.427 248.488 114.292 247.16 114.153L246.889 116.739ZM254.875 117.528C256.204 117.651 257.535 117.771 258.87 117.887L259.095 115.297C257.766 115.181 256.439 115.062 255.115 114.939L254.875 117.528ZM262.882 118.225C264.208 118.333 265.538 118.438 266.87 118.539L267.067 115.946C265.739 115.846 264.415 115.742 263.093 115.634L262.882 118.225ZM270.868 118.831C272.203 118.925 273.541 119.016 274.881 119.103L275.05 116.508C273.714 116.422 272.381 116.331 271.05 116.238L270.868 118.831ZM278.88 119.352C280.21 119.432 281.543 119.508 282.879 119.58L283.02 116.984C281.689 116.912 280.361 116.836 279.035 116.757L278.88 119.352ZM286.892 119.789C288.226 119.855 289.563 119.917 290.902 119.976L291.017 117.379C289.682 117.32 288.35 117.257 287.02 117.192L286.892 119.789ZM294.9 120.144C296.235 120.196 297.572 120.245 298.912 120.292L299.001 117.693C297.666 117.647 296.333 117.598 295.002 117.546L294.9 120.144ZM302.932 120.42C304.262 120.46 305.594 120.496 306.928 120.529L306.993 117.93C305.662 117.897 304.334 117.861 303.009 117.821L302.932 120.42ZM310.938 120.619C312.277 120.647 313.618 120.671 314.961 120.691L315.001 118.092C313.662 118.071 312.325 118.047 310.99 118.02L310.938 120.619ZM318.961 120.745C320.294 120.76 321.63 120.771 322.967 120.78L322.985 118.18C321.651 118.171 320.319 118.16 318.99 118.145L318.961 120.745ZM326.986 120.798C327.657 120.799 328.328 120.8 329 120.8V118.2C328.33 118.2 327.661 118.199 326.992 118.198L326.986 120.798Z" fill="#0257A6"/>
</svg>
