<svg width="127" height="57" viewBox="0 0 127 57" fill="none" xmlns="http://www.w3.org/2000/svg">
<circle cx="72.1901" cy="1.44599" r="1.44599" fill="white"/>
<circle cx="90.1206" cy="1.44599" r="1.44599" fill="white"/>
<circle cx="107.472" cy="1.44599" r="1.44599" fill="white"/>
<circle cx="125.403" cy="1.44599" r="1.44599" fill="white"/>
<circle cx="72.1901" cy="19.3767" r="1.44599" fill="white"/>
<circle cx="90.1206" cy="19.3767" r="1.44599" fill="white"/>
<circle cx="107.472" cy="19.3767" r="1.44599" fill="white"/>
<circle cx="125.403" cy="19.3767" r="1.44599" fill="white"/>
<circle cx="72.1901" cy="36.7282" r="1.44599" fill="white"/>
<circle cx="90.1206" cy="36.7282" r="1.44599" fill="white"/>
<circle cx="107.472" cy="36.7282" r="1.44599" fill="white"/>
<circle cx="125.403" cy="36.7282" r="1.44599" fill="white"/>
<circle cx="72.1901" cy="54.6589" r="1.44599" fill="white"/>
<circle cx="90.1206" cy="54.6589" r="1.44599" fill="white"/>
<circle cx="107.472" cy="54.6589" r="1.44599" fill="white"/>
<circle cx="125.403" cy="54.6589" r="1.44599" fill="white"/>
<circle cx="36.4423" cy="1.44599" r="1.44599" fill="white"/>
<circle cx="54.3725" cy="1.44599" r="1.44599" fill="white"/>
<circle cx="36.4423" cy="19.3767" r="1.44599" fill="white"/>
<circle cx="54.3725" cy="19.3767" r="1.44599" fill="white"/>
<circle cx="36.4423" cy="36.7282" r="1.44599" fill="white"/>
<circle cx="54.3725" cy="36.7282" r="1.44599" fill="white"/>
<circle cx="36.4423" cy="54.6589" r="1.44599" fill="white"/>
<circle cx="54.3725" cy="54.6589" r="1.44599" fill="white"/>
<circle cx="1.44599" cy="1.44599" r="1.44599" fill="white"/>
<circle cx="19.3762" cy="1.44599" r="1.44599" fill="white"/>
<circle cx="1.44599" cy="19.3767" r="1.44599" fill="white"/>
<circle cx="19.3762" cy="19.3767" r="1.44599" fill="white"/>
</svg>
