<svg width="249" height="111" viewBox="0 0 249 111" fill="none" xmlns="http://www.w3.org/2000/svg">
<circle cx="107.228" cy="107.227" r="2.8367" transform="rotate(-180 107.228 107.227)" fill="#0257A6"/>
<circle cx="72.0525" cy="107.227" r="2.8367" transform="rotate(-180 72.0525 107.227)" fill="#0257A6"/>
<circle cx="38.0119" cy="107.227" r="2.8367" transform="rotate(-180 38.0119 107.227)" fill="#0257A6"/>
<circle cx="2.83664" cy="107.227" r="2.8367" transform="rotate(-180 2.83664 107.227)" fill="#0257A6"/>
<circle cx="107.228" cy="72.0522" r="2.8367" transform="rotate(-180 107.228 72.0522)" fill="#0257A6"/>
<circle cx="72.0525" cy="72.0522" r="2.8367" transform="rotate(-180 72.0525 72.0522)" fill="#0257A6"/>
<circle cx="38.0119" cy="72.0522" r="2.8367" transform="rotate(-180 38.0119 72.0522)" fill="#0257A6"/>
<circle cx="2.83664" cy="72.0522" r="2.8367" transform="rotate(-180 2.83664 72.0522)" fill="#0257A6"/>
<circle cx="107.228" cy="38.0118" r="2.8367" transform="rotate(-180 107.228 38.0118)" fill="#0257A6"/>
<circle cx="107.228" cy="2.83664" r="2.8367" transform="rotate(-180 107.228 2.83664)" fill="#0257A6"/>
<circle cx="177.357" cy="107.227" r="2.8367" transform="rotate(-180 177.357 107.227)" fill="#0257A6"/>
<circle cx="142.182" cy="107.227" r="2.8367" transform="rotate(-180 142.182 107.227)" fill="#0257A6"/>
<circle cx="177.357" cy="72.0522" r="2.8367" transform="rotate(-180 177.357 72.0522)" fill="#0257A6"/>
<circle cx="142.182" cy="72.0522" r="2.8367" transform="rotate(-180 142.182 72.0522)" fill="#0257A6"/>
<circle cx="177.357" cy="38.0118" r="2.8367" transform="rotate(-180 177.357 38.0118)" fill="#0257A6"/>
<circle cx="142.182" cy="38.0118" r="2.8367" transform="rotate(-180 142.182 38.0118)" fill="#0257A6"/>
<circle cx="177.357" cy="2.83664" r="2.8367" transform="rotate(-180 177.357 2.83664)" fill="#0257A6"/>
<circle cx="142.182" cy="2.83664" r="2.8367" transform="rotate(-180 142.182 2.83664)" fill="#0257A6"/>
<circle cx="246.012" cy="38.0118" r="2.8367" transform="rotate(-180 246.012 38.0118)" fill="#0257A6"/>
<circle cx="210.837" cy="38.0118" r="2.8367" transform="rotate(-180 210.837 38.0118)" fill="#0257A6"/>
<circle cx="246.012" cy="2.83664" r="2.8367" transform="rotate(-180 246.012 2.83664)" fill="#0257A6"/>
<circle cx="210.837" cy="2.83664" r="2.8367" transform="rotate(-180 210.837 2.83664)" fill="#0257A6"/>
</svg>
