<svg width="249" height="111" viewBox="0 0 249 111" fill="none" xmlns="http://www.w3.org/2000/svg">
<circle cx="107.228" cy="107.228" r="2.8367" transform="rotate(-180 107.228 107.228)" fill="#0257A6"/>
<circle cx="72.0523" cy="107.228" r="2.8367" transform="rotate(-180 72.0523 107.228)" fill="#0257A6"/>
<circle cx="38.0118" cy="107.228" r="2.8367" transform="rotate(-180 38.0118 107.228)" fill="#0257A6"/>
<circle cx="2.83664" cy="107.228" r="2.8367" transform="rotate(-180 2.83664 107.228)" fill="#0257A6"/>
<circle cx="107.228" cy="72.0525" r="2.8367" transform="rotate(-180 107.228 72.0525)" fill="#0257A6"/>
<circle cx="72.0522" cy="72.0525" r="2.8367" transform="rotate(-180 72.0522 72.0525)" fill="#0257A6"/>
<circle cx="38.0118" cy="72.0525" r="2.8367" transform="rotate(-180 38.0118 72.0525)" fill="#0257A6"/>
<circle cx="2.83664" cy="72.0525" r="2.8367" transform="rotate(-180 2.83664 72.0525)" fill="#0257A6"/>
<circle cx="107.228" cy="38.0119" r="2.8367" transform="rotate(-180 107.228 38.0119)" fill="#0257A6"/>
<circle cx="72.0522" cy="38.0119" r="2.8367" transform="rotate(-180 72.0522 38.0119)" fill="#0257A6"/>
<circle cx="38.0118" cy="38.0119" r="2.8367" transform="rotate(-180 38.0118 38.0119)" fill="#0257A6"/>
<circle cx="2.83664" cy="38.0119" r="2.8367" transform="rotate(-180 2.83664 38.0119)" fill="#0257A6"/>
<circle cx="107.228" cy="2.83688" r="2.8367" transform="rotate(-180 107.228 2.83688)" fill="#0257A6"/>
<circle cx="72.0522" cy="2.83688" r="2.8367" transform="rotate(-180 72.0522 2.83688)" fill="#0257A6"/>
<circle cx="38.0118" cy="2.83688" r="2.8367" transform="rotate(-180 38.0118 2.83688)" fill="#0257A6"/>
<circle cx="2.83664" cy="2.83688" r="2.8367" transform="rotate(-180 2.83664 2.83688)" fill="#0257A6"/>
<circle cx="177.357" cy="107.228" r="2.8367" transform="rotate(-180 177.357 107.228)" fill="#0257A6"/>
<circle cx="142.182" cy="107.228" r="2.8367" transform="rotate(-180 142.182 107.228)" fill="#0257A6"/>
<circle cx="177.357" cy="72.0525" r="2.8367" transform="rotate(-180 177.357 72.0525)" fill="#0257A6"/>
<circle cx="142.182" cy="72.0525" r="2.8367" transform="rotate(-180 142.182 72.0525)" fill="#0257A6"/>
<circle cx="177.357" cy="38.0119" r="2.8367" transform="rotate(-180 177.357 38.0119)" fill="#0257A6"/>
<circle cx="142.182" cy="38.0119" r="2.8367" transform="rotate(-180 142.182 38.0119)" fill="#0257A6"/>
<circle cx="177.357" cy="2.83688" r="2.8367" transform="rotate(-180 177.357 2.83688)" fill="#0257A6"/>
<circle cx="142.182" cy="2.83688" r="2.8367" transform="rotate(-180 142.182 2.83688)" fill="#0257A6"/>
<circle cx="246.012" cy="107.228" r="2.8367" transform="rotate(-180 246.012 107.228)" fill="#0257A6"/>
<circle cx="210.837" cy="107.228" r="2.8367" transform="rotate(-180 210.837 107.228)" fill="#0257A6"/>
<circle cx="246.012" cy="72.0525" r="2.8367" transform="rotate(-180 246.012 72.0525)" fill="#0257A6"/>
<circle cx="210.837" cy="72.0525" r="2.8367" transform="rotate(-180 210.837 72.0525)" fill="#0257A6"/>
<circle cx="246.012" cy="38.0119" r="2.8367" transform="rotate(-180 246.012 38.0119)" fill="#0257A6"/>
<circle cx="210.837" cy="38.0119" r="2.8367" transform="rotate(-180 210.837 38.0119)" fill="#0257A6"/>
<circle cx="246.012" cy="2.83688" r="2.8367" transform="rotate(-180 246.012 2.83688)" fill="#0257A6"/>
<circle cx="210.837" cy="2.83688" r="2.8367" transform="rotate(-180 210.837 2.83688)" fill="#0257A6"/>
</svg>
