<svg width="249" height="111" viewBox="0 0 249 111" fill="none" xmlns="http://www.w3.org/2000/svg">
<circle cx="141.621" cy="41.0525" r="2.8367" fill="#0257A6"/>
<circle cx="176.796" cy="41.0525" r="2.8367" fill="#0257A6"/>
<circle cx="210.837" cy="41.0525" r="2.8367" fill="#0257A6"/>
<circle cx="246.012" cy="41.0525" r="2.8367" fill="#0257A6"/>
<circle cx="141.621" cy="76.2273" r="2.8367" fill="#0257A6"/>
<circle cx="176.796" cy="76.2273" r="2.8367" fill="#0257A6"/>
<circle cx="210.837" cy="76.2273" r="2.8367" fill="#0257A6"/>
<circle cx="246.012" cy="76.2273" r="2.8367" fill="#0257A6"/>
<circle cx="71.4917" cy="72.0525" r="2.8367" fill="#0257A6"/>
<circle cx="106.667" cy="41.0525" r="2.8367" fill="#0257A6"/>
<circle cx="71.4917" cy="107.227" r="2.8367" fill="#0257A6"/>
<circle cx="106.667" cy="76.2273" r="2.8367" fill="#0257A6"/>
<circle cx="2.8367" cy="2.8367" r="2.8367" fill="#0257A6"/>
<circle cx="38.012" cy="2.8367" r="2.8367" fill="#0257A6"/>
<circle cx="2.8367" cy="38.012" r="2.8367" fill="#0257A6"/>
<circle cx="38.012" cy="38.012" r="2.8367" fill="#0257A6"/>
<circle cx="2.8367" cy="72.0525" r="2.8367" fill="#0257A6"/>
<circle cx="38.012" cy="72.0525" r="2.8367" fill="#0257A6"/>
<circle cx="2.8367" cy="107.227" r="2.8367" fill="#0257A6"/>
<circle cx="38.012" cy="107.227" r="2.8367" fill="#0257A6"/>
</svg>
