<svg width="41" height="180" viewBox="0 0 41 180" fill="none" xmlns="http://www.w3.org/2000/svg">
<circle cx="2.8367" cy="38.0119" r="2.8367" transform="rotate(-90 2.8367 38.0119)" fill="#0257A6"/>
<circle cx="38.0118" cy="38.0119" r="2.8367" transform="rotate(-90 38.0118 38.0119)" fill="#0257A6"/>
<circle cx="38.0118" cy="2.83615" r="2.8367" transform="rotate(-90 38.0118 2.83615)" fill="#0257A6"/>
<circle cx="2.8367" cy="108.141" r="2.8367" transform="rotate(-90 2.8367 108.141)" fill="#0257A6"/>
<circle cx="2.8367" cy="72.966" r="2.8367" transform="rotate(-90 2.8367 72.966)" fill="#0257A6"/>
<circle cx="38.0118" cy="108.141" r="2.8367" transform="rotate(-90 38.0118 108.141)" fill="#0257A6"/>
<circle cx="38.0118" cy="72.966" r="2.8367" transform="rotate(-90 38.0118 72.966)" fill="#0257A6"/>
<circle cx="2.8367" cy="176.796" r="2.8367" transform="rotate(-90 2.8367 176.796)" fill="#0257A6"/>
<circle cx="2.8367" cy="141.621" r="2.8367" transform="rotate(-90 2.8367 141.621)" fill="#0257A6"/>
<circle cx="38.0118" cy="141.621" r="2.8367" transform="rotate(-90 38.0118 141.621)" fill="#0257A6"/>
</svg>
