<svg width="34" height="34" viewBox="0 0 34 34" fill="none" xmlns="http://www.w3.org/2000/svg">
<g opacity="0.5">
<path d="M17.0001 0C11.0565 0.0065875 6.23999 4.82311 6.2334 10.7667V23.2333C6.2334 29.1796 11.0538 34 17.0001 34C22.9463 34 27.7667 29.1796 27.7667 23.2333V10.7667C27.7601 4.82311 22.9436 0.0065875 17.0001 0ZM18.1334 5.66667V9.06667C18.1334 9.69262 17.626 10.2 17.0001 10.2C16.3741 10.2 15.8667 9.69262 15.8667 9.06667V5.66667C15.8667 5.04071 16.3741 4.53333 17.0001 4.53333C17.626 4.53333 18.1334 5.04071 18.1334 5.66667ZM7.36673 10.7667C7.37516 5.67191 11.3476 1.46391 16.4334 1.16223V3.48047C15.4357 3.73809 14.7373 4.63625 14.7334 5.66667V9.06667C14.7373 10.0971 15.4357 10.9952 16.4334 11.2529V13.6H7.36673V10.7667ZM26.6334 23.2333C26.6275 28.5512 22.318 32.8607 17.0001 32.8667C11.6822 32.8607 7.37268 28.5512 7.36673 23.2333V14.7333H26.6334V23.2333ZM26.6334 13.6H17.5667V11.2529C18.5645 10.9952 19.2628 10.0971 19.2667 9.06667V5.66667C19.2628 4.63625 18.5645 3.73809 17.5667 3.48047V1.16223C22.6526 1.46391 26.625 5.67191 26.6334 10.7667V13.6Z" fill="white"/>
</g>
</svg>
