<svg width="130" height="130" viewBox="0 0 130 130" fill="none" xmlns="http://www.w3.org/2000/svg">
<g opacity="0.1" clip-path="url(#clip0)">
<path d="M28.1636 46.7107C29.3412 51.3474 32.3342 54.9292 35.9406 56.2049C40.1357 70.017 50.9547 84.3197 65.5275 84.3197C80.1246 84.3197 90.9191 70.017 95.1142 56.2049C98.7203 54.9783 101.714 51.3474 102.891 46.7107C104.412 40.602 102.327 34.8858 98.107 32.8496C98.107 32.6043 98.1563 32.3835 98.1563 32.1381C98.1563 24.8519 94.6479 18.3016 88.981 13.395C89.0298 13.0515 89.0544 12.7081 89.0544 12.3155C89.0541 7.60521 77.9898 0 64.3497 0C50.7094 0 39.645 7.60521 39.645 12.3155C39.645 12.8062 39.6941 13.1987 39.7432 13.5667C34.1742 18.4488 30.7396 24.95 30.7396 32.1136C30.7396 32.8496 30.7887 33.561 30.8868 34.297C28.0655 36.9711 26.8879 41.7305 28.1636 46.7107ZM32.6777 41.3134C32.9966 39.13 34.0761 37.4127 35.5971 37.0447C35.7688 37.0202 35.916 36.9957 36.1123 36.9957C36.2595 36.9957 36.3822 36.9957 36.5294 37.0202L38.8355 37.241L39.1789 34.9594C39.964 29.7094 41.7058 25.0481 44.1346 21.1474C48.5996 20.5586 55.9594 17.0504 64.3006 17.0504C74.3344 17.0504 82.9702 22.1287 86.8462 21.0738C89.2994 24.9745 91.0661 29.6603 91.8509 34.9349L92.1943 37.2165L94.5004 36.9957C94.8191 36.9711 95.1871 36.9711 95.4324 37.0202C96.1439 37.2165 96.7329 37.7071 97.1991 38.345C98.3519 39.9641 98.7692 42.7118 98.1065 45.4841C97.1745 49.2131 94.7212 51.421 92.7831 51.6909L91.164 51.9117L90.7226 53.4818C87.2141 66.337 77.401 79.3886 65.4537 79.3886C53.5061 79.3886 43.7175 66.3616 40.1848 53.4818L39.7432 51.9117L38.124 51.6909C36.1859 51.421 33.7571 49.2131 32.8004 45.4841C32.5305 44.0611 32.4814 42.6137 32.6777 41.3134Z" fill="#0257A6"/>
<path d="M93.7156 73.9424C90.6001 79.266 87.0183 83.731 82.2344 86.1598C72.3967 91.1891 65.0614 95.2861 65.0614 95.2861L65.0368 95.2613V95.1634L64.9387 95.2122L64.8406 95.1634V95.2613L64.816 95.2861C64.816 95.2861 57.4807 91.1891 47.643 86.1598C42.8836 83.7065 39.2773 79.2415 36.1616 73.9424C21.589 79.8548 11.4814 93.4706 11.4814 105.369C11.4814 117.881 11.4814 130 11.4814 130H64.8896H65.1104H118.519C118.519 130 118.519 117.881 118.519 105.369C118.445 93.4706 108.288 79.8548 93.7156 73.9424Z" fill="#0257A6"/>
</g>
<defs>
<clipPath id="clip0">
<rect width="130" height="130" fill="white"/>
</clipPath>
</defs>
</svg>
