<svg width="130" height="130" viewBox="0 0 130 130" fill="none" xmlns="http://www.w3.org/2000/svg">
<g opacity="0.1">
<path d="M26.8844 61.4577C26.8844 67.8288 31.0859 72.9638 36.2761 72.9638H49.5672C53.9609 76.9457 59.0138 79.4721 64.451 79.4721C69.8883 79.4721 74.9411 76.9457 79.3349 72.9638H92.626C97.8161 72.9638 102.018 67.8009 102.018 61.4577V44.7614H101.99C102.045 43.4982 102.073 42.1801 102.073 40.7795C102.073 18.2616 85.239 0 64.4787 0C43.7185 0 26.8844 18.2616 26.8844 40.7795C26.8844 42.1801 26.9119 43.4982 26.9668 44.7614H26.8844V61.4577ZM64.4787 74.7485C62.1171 74.7485 59.8104 74.0622 57.6135 72.9363C55.7736 71.9752 54.0161 70.6843 52.341 69.1193C46.7664 63.8742 42.3177 55.6634 40.1209 47.7546L39.7089 46.2443L38.1711 46.0521C37.3748 45.9422 36.5235 45.5028 35.6996 44.7614C34.5737 43.7453 33.5851 42.2075 33.0634 40.1479C32.4592 37.7588 32.6789 35.3697 33.6675 33.7221C34.0245 33.1179 34.6561 32.349 35.6447 32.1019C35.782 32.0744 35.9468 32.047 36.139 32.047C36.2763 32.047 36.4136 32.047 36.5235 32.0744L37.3748 32.1568C41.1369 37.8961 51.7368 36.4132 61.0187 28.8615C62.9135 27.3237 64.5886 25.6486 66.044 23.9185C69.6142 23.5066 73.4862 23.3967 77.1934 24.3853C85.4317 26.5822 87.7656 31.1682 90.0724 32.1293L90.0998 32.2666L90.4293 32.2392C90.8413 32.349 91.2806 32.2941 91.7749 32.1019L92.3242 32.047C92.6537 32.0195 92.9832 32.0195 93.2301 32.0744C94.2187 32.3216 94.8503 33.0905 95.2073 33.6946C96.1959 35.3423 96.4156 37.7314 95.8114 40.1205C95.2897 42.1526 94.2736 43.7179 93.1752 44.7339C92.3514 45.4754 91.5001 45.9422 90.7037 46.0246L89.1659 46.2443L88.754 47.7546C86.5846 55.6085 82.2183 63.7095 76.6986 68.982C74.996 70.6022 73.1836 71.9755 71.2613 72.9638C69.1471 74.1172 66.8401 74.7485 64.4787 74.7485ZM92.1319 77.1656C89.1936 82.1632 85.8159 86.3922 81.3123 88.6717C72.0305 93.4222 65.1378 97.2668 65.1378 97.2668L65.1103 97.2395V97.13L65.0005 97.1846L64.8906 97.13V97.2395L64.8632 97.2668C64.8632 97.2668 57.9705 93.4222 48.6887 88.6717C44.1851 86.365 40.8074 82.1632 37.8691 77.1656C24.1386 82.7399 14.5547 95.5914 14.5547 106.768C14.5547 118.576 14.5547 130 14.5547 130H64.9181H65.1103H115.446C115.446 130 115.446 118.576 115.446 106.768C115.446 95.5642 105.862 82.7674 92.1319 77.1656Z" fill="#0257A6"/>
</g>
</svg>
